<?xml version="1.0" encoding="utf-8"?>
<!-- Generator: Adobe Illustrator 21.1.0, SVG Export Plug-In . SVG Version: 6.00 Build 0)  -->
<!DOCTYPE svg PUBLIC "-//W3C//DTD SVG 1.1//EN" "http://www.w3.org/Graphics/SVG/1.1/DTD/svg11.dtd">
<svg version="1.1" id="Layer_1" xmlns="http://www.w3.org/2000/svg" xmlns:xlink="http://www.w3.org/1999/xlink" x="0px" y="0px"
	 viewBox="0 0 960 540" style="enable-background:new 0 0 960 540;" xml:space="preserve">
<style type="text/css">
	.st0{fill:#1D1D1D;stroke:#000000;stroke-width:2;stroke-miterlimit:10;}
</style>
<g>
	<path d="M239,208.7c-2.4-4.7-10.2-15.4-31.3-13.2c-16.4,1.8-33.1,9-47.1,20.4c-0.5,0.4-0.7,1.3,0.1,2.3c0.7,0.9,1.6,1.1,2.3,0.6
		c10.9-8.6,23.6-14.7,36.9-17.8c10.7-2.5,29.6-4.6,35.5,8.9c4.3,9.8,1.1,21.7-9.8,36.4c-7.2,9.7-16.6,18.3-27.1,24.8
		c-2.6,1.6-5.2,3-8.1,4.4c1.3-6.1,2.4-11.3,3.4-16.3l0.9-4.2c3-15,6.2-30.5,8.1-45.9c0.1-1.1-1.2-2.4-2.1-2.6
		c-0.7-0.1-1.3,0.3-1.4,1c-1.8,8.4-3.4,16.9-5,25.2c-1.5,8.1-3.1,16.5-4.9,24.7c-1.4,6.6-2.9,13.3-4.6,20.6
		c-8.4,3.4-17.3,5.5-24.9,7.2c-1.1,0.3-1.4,1.1-1.3,1.8c0.2,1.2,2,2.7,3.3,2.6c6.8-0.4,14-2.1,21.4-4.9c-0.4,1.5-0.8,3-1.2,4.5
		c-1.6,5.9-3.3,12-3.7,18.1c-0.1,1.1,1.3,2.3,2.2,2.6c0.1,0,0.3,0.1,0.4,0.1c0.6,0,1.1-0.3,1.3-0.9c2.5-5.8,3.7-12.2,4.9-18.4
		c0.4-2.1,0.8-4.4,1.3-6.5l0.4-1.8c4.1-1.9,8.2-4,12.2-6.4c12.3-7.5,22.9-17.5,30.6-28.9C241.7,232,244.2,219.1,239,208.7z"/>
	<path d="M394.7,250.8c-0.7-0.6-2.1-1.1-3-0.4c-0.1,0.1-0.4,0.4-0.5,0.9c-1.5-0.9-3-1.2-4.6-0.9c-6.2,1.2-11.2,11.6-12.6,14.7
		c-2.8,6.4-8.4,22,1.3,28.5c1.6,1.1,3.3,1.6,5,1.6c0.7,0,1.4-0.1,2.1-0.3c4.8-1.2,9.5-6.4,14.3-15.7
		C401.5,270.3,402.6,258,394.7,250.8z M393.9,273c-1.2,3.2-3.1,6.4-5.9,10.3l-0.5,0.6c-1.9,2.7-4.3,6-7.3,6.6
		c-1.6,0.3-2.9,0.1-3.8-0.8c-2.2-2.1-2.3-7.5-1.7-11.5c0.5-3.4,1.5-6.8,2.8-10.2c2.6-6.5,6.7-13.8,10.5-14.6
		c0.2-0.1,0.5-0.1,0.7-0.1c0.9,0,1.8,0.4,2.7,1.2c0.5,0.5,1.1,0.4,1.5,0.1C396.1,260.7,396.4,266.5,393.9,273z"/>
	<path d="M448.8,242.3c-9,3.3-18.5,6.1-27.7,8.7l1.5-7.1c6.9-2.5,12.3-7.5,15.2-14.2c1.8-4,3.6-12.4,1.1-17.7
		c-1.1-2.3-2.8-3.8-5.2-4.4c-4.6-1.3-8.1,2.3-9.6,6.4c-1.5,4.3-2.4,9-3.3,13.6c-0.4,2-0.8,4.1-1.2,6.1l-1.7,7.7c-2.3,0.7-4.6,1-7,1
		c-0.6,0-1.1,0.5-1.1,1.1c0,0.7,0.8,2,1.8,2c1.8,0.1,3.7,0,5.5-0.3l-1.6,7.3c-3.6,1-7.3,2.2-11.2,3.3c-0.6,0.2-1.1,0.8-0.8,1.7
		c0.3,0.9,1.4,2,2.4,1.7c3-0.8,6-1.7,8.6-2.4l-0.6,2.7c-1.1,5-2.2,10-3.3,15c-1.1,4.8-2.3,9.7-3.4,14.5c-2.5,10.4-5.1,21.2-6.8,31.9
		c-0.3,1.5,1.5,2.9,2.8,3.2c0.2,0,0.4,0.1,0.6,0.1c0.9,0,1.6-0.5,1.9-1.4c2.6-9.4,4.5-19.3,6.4-28.8c0.8-4.3,1.7-8.7,2.6-13
		c1.8-8.6,3.7-17.2,5.5-25.8l1.4-0.4c9.8-2.9,19.9-5.8,29.9-8.1c0.7-0.2,1.2-0.6,1.3-1.2c0.2-0.8-0.2-1.7-1.1-2.5
		C450.8,242.3,449.7,241.9,448.8,242.3z M423.8,238.7L423.8,238.7c0.5-2.2,0.9-4.5,1.4-6.8c0.9-4.5,1.9-9.1,3-13.6l0-0.1
		c0.3-1.3,0.7-2.6,1.3-3.7c0.8-1.4,2.2-2.7,3.4-2.7c0,0,0,0,0,0c0.8,0,1.5,0.6,2.1,1.8c1.3,2.3,0.6,6.6,0.3,8.5
		c-1.1,7.2-5.3,13.3-11.6,17L423.8,238.7z"/>
	<path d="M497.6,250.8c-0.9-0.3-1.8,0.1-2.1,1v0c-2.6,7.5-5.6,14.6-8.8,21c-0.5,1.1-1.1,2.2-1.6,3.3c-2.5,5.2-5.3,11.1-9.1,15
		c-0.8,0.8-2,1.4-2.6,1.2c-0.4-0.1-0.6-0.7-0.6-1.1c-0.2-1.1,0.2-2.6,0.5-3.9c0.1-0.5,0.2-1,0.3-1.5l2.1-11.4c0.4-2,0.7-4,1.1-6
		c1-5.4,2-10.9,2.8-16.4c0.2-1.1-1.2-2.4-2.1-2.6c-0.7-0.1-1.3,0.3-1.5,0.9c-1.8,7.2-3.3,14.7-4.7,21.9c-0.6,3.1-1.2,6.1-1.8,9.2
		c-0.1,0.4-0.2,0.9-0.3,1.4c-0.8,3.7-2,8.8,0.1,12c0.9,1.4,2.3,2.3,4.2,2.7c1.9,0.4,4.9,0,8-4.1c2.6-3.4,4.7-7.3,6.7-11.1l0.6-1.2
		c0.1-0.2,0.2-0.3,0.3-0.5c-0.7,3.1-1.5,6.2-2.2,9.3c-4,16.7-8.1,34.1-11.4,51.2c-0.3,1.7,1.5,3.2,3,3.5c0.2,0,0.4,0.1,0.6,0.1
		c1,0,1.8-0.6,2-1.5c0.2-0.7,0.4-1.5,0.6-2.3c3.9-16.2,7.2-32.7,10.4-48.8c2.5-12.5,5.1-25.4,8-38.1
		C500.3,252.7,498.8,251.1,497.6,250.8z"/>
	<path d="M526.9,250.1c-1.2,0.1-2.4,0.5-3.3,1.2c0-0.1-0.1-0.2-0.2-0.3c-0.6-0.9-1.4-1-1.9-0.7c-9.4,5.2-15.6,15.5-16.4,26.9
		c-0.3,4.5,0.1,10.8,3.5,15.1c1.8,2.3,4.8,4.1,7.9,4.1c1.4,0,2.7-0.3,4.1-1.1c5-2.9,8.7-9,11-13.4c2.9-5.4,4.7-11,5.3-16.7
		c0.6-5.7-0.4-9.7-3.3-12.5C531.9,251,529.2,250,526.9,250.1z M532.3,263.4c-0.4,3.2-1.2,6.6-2.6,10.1c-1.4,3.6-3.2,7-5.3,10.1
		l-0.4,0.5c-1.8,2.6-4.7,6.8-7.6,7.4c-1.4,0.3-4.1-1.3-5-2.7c-0.4-0.7-0.6-1.6-0.9-2.5l-0.1-0.2c-0.4-1.7-0.6-3.4-0.7-5.4
		c-0.1-3.8,0.4-7.6,1.7-11.3c2-5.9,5.7-11.1,10.9-15.5c0.1,0.4,0.4,0.8,0.8,1.2c0.8,0.8,1.8,1,2.5,0.4c1.1-0.9,2.4-1.2,3.5-0.9
		c1.3,0.4,2.4,1.6,2.9,3.2C532.6,259.6,532.5,261.5,532.3,263.4z"/>
	<path d="M611.7,242.2c-9.9,1.7-16.1,12.1-20.6,19.7l-0.1,0.1c-1.8,3-3.4,6.1-5,9.3c0.1-1.3,0.3-2.6,0.5-4c0.5-4.1,1-8.2,0.7-12.1
		c0.2-0.3,0.4-0.6,0.6-0.9c0.2-0.3,0.4-0.9-0.1-1.7c-0.3-0.6-0.9-1.1-1.5-1.4c-0.2-0.2-0.4-0.3-0.7-0.4c-0.4-0.1-0.9,0.1-1.1,0.5
		c-0.3,0.5-0.6,1-0.8,1.6l-1.9,3.1c-5.1,8.2-10.2,16.7-14.8,25.3c0.6-3.7,1.1-7.4,1.6-11c0.8-5.4,1.6-10.9,2.5-16.3
		c0.3-1.6-1.6-3.2-2.9-3.5c-1-0.2-1.8,0.3-2.1,1.3c-2.9,13.2-8.2,24.8-15.9,34.6c-0.2,0.2-0.3,0.5-0.5,0.8c-0.3,0.5-1.4,2-1.8,2
		c0,0,0,0,0,0c0,0-0.2-0.1-0.6-0.8c-0.2-0.4-0.2-2-0.2-2.7c0-0.4,0-0.7,0-1c-0.1-3.9,0-7.9,0.4-11.9c0.7-7.1,2.3-14,4.1-21
		c0.3-1-0.8-2.6-1.8-2.9c-0.7-0.2-1.4,0.1-1.7,0.8c-3.3,7.9-5.3,17.1-5.9,27.6c0,0.5-0.1,1-0.1,1.6c-0.4,5-1.1,14.4,5.4,15.5
		c3.4,0.6,5.6-2.4,7.3-4.5l0.4-0.5c2.1-2.7,4-5.5,5.7-8.5c-0.5,3.3-1.1,6.8-1.5,10.3c-0.2,1.7,1.8,3.3,3.2,3.6c0.1,0,0.3,0,0.4,0
		c0.9,0,1.6-0.6,1.8-1.5c0.1-0.4,0.2-0.9,0.3-1.4c4.7-7.2,9.1-14.7,13.4-22c1.1-1.9,2.3-3.9,3.4-5.8c-0.3,2.4-0.6,4.8-0.9,7.3
		l-2.4,20.3c-0.2,1.5,1.5,3.2,3.1,3.5c0.2,0,0.4,0.1,0.5,0.1c0.9,0,1.6-0.5,1.9-1.4c3-10.2,6.8-19.1,11.5-27.3
		c4.9-8.5,10.1-16.4,19-19.7c0.9-0.3,1.3-1.1,1.1-2C615.2,243.7,613.1,242,611.7,242.2z"/>
	<path d="M702.9,237.9c5.6-17.6,0.1-27.7-2.5-31.2c-6.1-8.3-17.1-10-30.9-4.7c-13,5-24.2,13.7-32.5,25.3c-0.7,0.9,0.2,2.2,1,2.8
		c0.9,0.6,1.6,0.4,2-0.1c8.4-11,19.5-19.2,32-23.9c6.7-2.5,16.2-5.2,22.4-0.2c5.9,4.7,5.9,13.9,5.6,17.7
		c-1.5,20.8-16,39.6-39.9,51.8c0.6-3.2,1.3-6.3,1.9-9.5l1-5.1c0.8-4.1,1.7-8.2,2.6-12.2c2.4-11.3,4.9-23,6.6-34.6
		c0.2-1.1-1.1-2.7-2.2-3.1c-0.7-0.3-1.4,0-1.8,0.6c-0.7,1.2-1.5,2.2-2.4,3.3c-0.4,0.5-0.8,1.1-1.2,1.7c-0.6,0.8,0.1,1.9,0.6,2.4
		c0.3,0.3,0.6,0.4,0.9,0.4c-2.2,9-4.1,18.3-5.9,27.3c-0.8,4.1-1.7,8.1-2.5,12.2l-1.2,5.8c-1,4.7-2,9.4-3,14.1
		c-2.9,1.2-5.9,2.4-8.8,3.3c-1,0.3-1.6,1.1-1.5,2.1c0.2,1.6,2.2,3.1,3.4,3.2c1.6,0.2,3.3,0.3,4.9,0.5l-0.1,0.4
		c-1.3,5.7-2.7,11.7-3.1,17.6c-0.1,1.3,1.5,3,2.8,3.3c0.1,0,0.3,0,0.4,0c0.7,0,1.3-0.4,1.6-1.2c1.9-5.5,3-11.4,4-17.1
		c0.1-0.8,0.3-1.6,0.4-2.4l2.6,0.3c11.5,1.3,23.3,2.6,35.1,3.4c1.5,0.1,2.1-0.8,2.2-1.5c0.2-1.5-1.6-3.5-3.1-3.7
		c-11.3-1.6-22.9-2.7-34.1-3.7l-1.6-0.1l0,0C674.7,275.8,695.2,262.2,702.9,237.9z"/>
	<path d="M713.3,251.9c-1.8,0.2-2,1.5-2.1,2.3c0,0.4,0.1,0.9,0.5,1.3c-2.3,11.4-4.6,23.2-7.3,34.9c0,0.1,0,0.1-0.1,0.2l-0.4,2
		c-0.3,1.6,1.5,3.1,2.9,3.5c0.2,0,0.4,0.1,0.5,0.1c0.9,0,1.5-0.5,1.7-1.4c3.3-14.1,5.5-27.8,6.4-40.6c0-0.7-0.4-1.4-0.8-1.8
		C714.3,252.1,713.8,251.9,713.3,251.9z"/>
	<path d="M719.7,219c-0.7-0.1-1.3,0.3-1.5,0.9v0c-2,7.8-3.3,14-4.2,19.6c-0.2,1.3,1.4,2.9,2.5,3.1c0.1,0,0.2,0,0.3,0
		c0.7,0,1.2-0.4,1.4-1.1c1.7-7,2.8-14.3,3.6-19.9C722,220.5,720.7,219.2,719.7,219z"/>
	<path d="M756.3,218.4c-1.1-0.2-2,0.3-2.2,1.3c-2.4,11.4-5,22.6-7.7,33.4l-0.8,3c-0.1,0.3-0.2,0.7-0.2,1c-0.2-0.4-0.4-0.8-0.6-1.2
		c-1.6-2.9-5-6-9.3-5.6c-3.6,0.4-6.5,3.2-8.6,8.5c-2.1,5.3-3.4,11.3-3.8,17.9c-0.3,4.5-0.4,15.2,4.3,18.4c1.7,1.2,3.8,1.2,6.3,0.1
		c3.7-1.7,6.2-6.1,8.1-10c-0.5,3.3-1,6.5-1.4,9.5c-0.2,1.7,1.7,3.2,3.2,3.5c0.1,0,0.3,0,0.4,0c0.9,0,1.6-0.6,1.8-1.5
		c2.5-12.7,4.7-25.7,6.9-38.3c2.1-12.1,4.2-24.5,6.6-36.8C759.5,220.2,757.7,218.7,756.3,218.4z M742.4,268.4
		c-1.8,5.9-3.7,10.6-5.9,14.7c-1,1.8-2.2,4.1-3.9,5.9c-1.3,1.4-1.6,1.8-2.9,1.3c-1.2-0.4-1.2-0.8-1.4-2.2c0-0.2,0-0.4-0.1-0.7
		c-0.6-5.5-0.4-11.1,0.6-16.7c0.9-5.1,2.1-10.3,5-13.8c1.1-1.3,2.6-2.1,4-2.1c0.1,0,0.3,0,0.4,0c1.5,0.2,2.7,1.2,3.5,2.8
		c1.2,2.5,0.9,5.8,0.5,8.8c0,0.4-0.1,0.8-0.1,1.2C742.2,267.9,742.3,268.1,742.4,268.4z"/>
	<path d="M794.5,270c-1.5-0.7-2.4-0.1-2.8,0.6v0c-2.2,4.7-4.7,8.5-7.6,11.8c-2.6,2.9-8.7,9.8-13.3,9.1c-4.5-0.7-5.2-7.4-4.9-13.1
		c6.9-3.1,13-8.2,17.3-14.5c2.8-4.2,5.5-9.2,3.6-14c-1.3-3.2-4.2-5.5-7.3-5.7c-5.8-0.3-9.9,6.7-12.1,10.4c-2.9,5-4.9,10.4-5.8,16.1
		c-0.3,1.6-0.5,3.2-0.6,4.8c-2.2,0.9-4.4,1.7-6.8,2.4c-0.7,0.2-1,0.8-0.9,1.6c0.2,0.8,1.1,2,2.1,1.9c1.8-0.2,3.6-0.6,5.5-1.1
		c0.3,8.9,3.6,14.3,9.5,15.9c0.8,0.2,1.6,0.3,2.3,0.3c5.3,0,10-4.4,12.9-7.2c4.7-4.4,8.4-9.7,11-15.8
		C797.2,272.1,795.7,270.6,794.5,270z M769.7,261.5c1.1-2.5,4.5-10,9-12.2c1.3-0.7,2.3-0.8,2.8-0.2c1.3,1.2,0.8,5.7-0.2,7.8
		c-1,2.1-2.4,4.3-4.3,6.7c-2.9,3.6-6.5,6.7-10.7,9.2C767,268.9,768.1,265.1,769.7,261.5z"/>
	<path d="M310.8,247.6c-1-1.3-2.8-2-3.9-1.2c-8.7,6.6-16.2,14.5-22.2,23.5c1.2-5.8,2.3-11.8,2.3-17.6c0-0.9-1.3-2.4-2.3-2.6
		c-0.5-0.1-0.9,0.1-1.2,0.5c-0.5,0-0.9,0.1-1.2,0.4c-6.8,7-12.8,14.9-17.3,21c-2,2.8-4.3,5.9-6.5,9.3c0.3-1.5,0.7-2.9,1-4.3l1.1-4.2
		c1.5-5.6,3-11.5,4.4-17.2c0.3-1.3-1.1-2.8-2.2-3.1c-0.9-0.3-1.6,0.1-1.9,0.9c-2.9,7.5-7,15.2-12,23c-2.2,3.4-4.7,6.8-7.2,10.1
		c-0.3,0.4-0.6,0.8-0.9,1.2c-1,1.4-2.1,2.7-3.2,3.8c-0.6,0.6-1.1,0.7-1.2,0.7c0,0-0.9-0.4-1.3-3.9c-1.7-16,7.4-30.2,23.7-37
		c0.5-0.2,0.9-0.8,0.7-1.7c-0.2-0.7-1.2-2.1-2.4-1.8c-9.1,2.3-17.5,8.9-22.3,17.5c-4.5,8.1-7,20.4-3.1,28.2c1.2,2.4,2.7,3.7,4.6,3.8
		c4.6,0.3,9.6-6.9,12.3-10.8c0.3-0.4,0.5-0.8,0.7-1.1c1.5-2.2,3-4.5,4.5-6.8c-0.2,0.5-0.3,1-0.5,1.4c-1.6,4.8-3.2,9.8-3.7,14.7
		c-0.1,1.3,1.3,2.9,2.5,3.2c0.2,0,0.3,0.1,0.5,0.1c0.7,0,1.3-0.4,1.6-1.1c0.3-0.7,0.6-1.5,0.9-2.3c1.9-2.6,3.7-5.3,5.4-8
		c2.6-3.9,5.3-7.8,8.1-11.6c4.1-5.4,8.5-10.7,12.9-15.7c-0.3,1.6-0.6,3.2-0.9,4.7c-0.5,2.9-1.1,5.9-1.8,8.7
		c-1.7,7.2-3.6,14.4-5.8,21.4c-0.5,1.6,1.2,3,2.5,3.5c0.3,0.1,0.6,0.1,0.9,0.1c0.8,0,1.5-0.5,1.8-1.3c6.2-18.3,17.5-34,32.6-45.6
		C311.6,250,311.6,248.8,310.8,247.6z"/>
	<path d="M343.7,230c-4.2,0.1-8.5,0.7-12.9,1.6c1.2-5.6,2-10.3,2.7-14.8c0.1-1-1-2.4-1.9-2.6c-0.6-0.2-1.2,0.2-1.5,0.8
		c-1.7,5.1-3.3,10.9-5,18.1c-3.7,1.1-7.4,2.4-11.1,4.1c-0.9,0.4-1.3,1.5-0.9,2.7l0,0.1c0.2,0.5,0.5,1.6,1.5,1.9
		c2.4,0.7,3.7,0.1,5.4-0.6c0.4-0.2,0.9-0.4,1.4-0.6c0.7-0.3,1.3-0.5,2-0.7c-0.5,2.1-1,4.2-1.4,6.3c-0.8,3.7-1.7,7.3-2.5,10.9
		l-4.9,20.7c-0.9,3.6-1.7,7.2-2.5,10.8c-0.2,0.7-0.4,1.5-0.6,2.2c-0.7,2.4-1.3,5-1.2,7.6c0.1,0.9,1.2,2.6,2.4,2.8c0.1,0,0.2,0,0.4,0
		c0.6,0,1.1-0.3,1.4-0.9c1.3-2.2,1.8-4.8,2.3-7.2c0.1-0.7,0.3-1.5,0.5-2.2c0.8-3.6,1.7-7.2,2.5-10.8l4.7-20.7
		c0.8-3.5,1.7-7.1,2.5-10.7c0.8-3.6,1.7-7.1,2.5-10.7c4.7-1.2,9.8-2,15.9-2.5c1.7-0.1,2.2-1.2,2.2-2.1
		C347.5,231.9,345.5,229.9,343.7,230z"/>
</g>
<g>
	<path class="st0" d="M-790.4,209.2c-5.6-11.2-18.6-13.9-30.3-12.6c-17,1.8-33.4,9.5-46.5,20.1c-0.4,0.3,0.7,1.6,1.1,1.3
		c10.9-8.6,23.6-14.8,37.3-18c12.4-2.8,30.6-4.3,36.7,9.5c5.7,12.9-2.2,27-9.9,37.4c-7.4,10-16.8,18.5-27.4,25
		c-3.3,2-6.6,3.7-10,5.3c1.3-6.1,2.6-12.1,3.8-18.2c3.3-16.6,6.8-33.3,8.9-50.1c0.1-0.6-1.4-2-1.6-1.3c-3.5,16.6-6.3,33.3-9.8,49.9
		c-1.5,7.1-3.1,14.1-4.7,21.2c-8.2,3.3-16.7,5.5-25.6,7.5c-1.6,0.4,0.6,2.5,1.7,2.4c7.7-0.5,15.5-2.5,22.9-5.5
		c-1.9,7.9-4.8,16.2-5.4,24.3c0,0.7,1.7,2.2,2.1,1.2c3.3-7.7,4.4-16.6,6.2-24.7c0.2-0.7,0.3-1.5,0.5-2.3c4.4-1.9,8.6-4.2,12.5-6.6
		c12-7.3,22.5-17.1,30.3-28.6C-790.5,235.7-784.1,221.7-790.4,209.2z"/>
	<path class="st0" d="M-634.5,251.6c-0.6-0.6-2.4-0.8-1.5,0.5c4.3,6.8,5.2,13.6,2.3,21.2c-1.5,3.8-3.7,7.3-6,10.5
		c-2.1,2.8-4.7,6.9-8.4,7.7c-7.6,1.6-7.4-8.5-6.6-13.3c0.5-3.6,1.5-7.1,2.9-10.4c1.8-4.5,8.7-20.2,15.5-13.9
		c0.4,0.3,0.1-0.6-0.1-0.7c-7.3-6.9-14.7,7.3-17,12.4c-3.3,7.5-7.7,21.5,0.9,27.3c8.8,5.9,16.7-7.7,20-14
		C-628.3,270.5-626.8,258.6-634.5,251.6z"/>
	<path class="st0" d="M-579.3,243.2c-9.6,3.5-19.5,6.3-29.3,9.2c0.7-3.1,1.3-6.2,2-9.2c6.6-2.3,12.2-7.1,15.1-13.8
		c2.4-5.4,4.7-18.4-3.4-20.7c-4.1-1.2-7.1,2.2-8.4,5.8c-2.2,6.2-3,13.2-4.5,19.6c-0.6,2.8-1.2,5.5-1.8,8.3c-2.5,0.8-5.1,1.2-7.9,1.2
		c-0.4,0,0.3,1.1,0.7,1.1c2.3,0.1,4.6-0.1,6.7-0.5c-0.7,3.1-1.4,6.2-2.1,9.3c-3.9,1.1-7.8,2.3-11.7,3.5c-0.6,0.2,0.5,1.6,1,1.5
		c3.4-0.9,6.8-1.9,10.2-2.9c-1.4,6.4-2.9,12.9-4.3,19.3c-3.4,15.4-7.7,30.8-10.2,46.3c-0.2,1.3,2.9,3,3.3,1.4
		c3.7-13.7,6.1-27.8,9-41.7c1.9-8.8,3.8-17.6,5.7-26.4c10.6-3.1,21.2-6.2,31.9-8.7C-575.5,245.5-578,242.7-579.3,243.2z
		 M-605.7,238.5c1.5-6.8,2.8-13.7,4.4-20.4c0.3-1.4,0.7-2.9,1.4-4.1c1.4-2.4,4.9-5.4,7.3-0.9c1.4,2.5,0.8,6.5,0.4,9.1
		c-1.4,8.5-6.8,15.2-14,18.7C-606,240.1-605.9,239.3-605.7,238.5z"/>
	<path class="st0" d="M-532,252.1c-2.5,7.2-5.4,14.3-8.8,21.1c-3,6-6.2,13.8-10.9,18.6c-1.6,1.6-4.4,2.6-4.9-0.5
		c-0.3-1.7,0.5-4,0.8-5.7c0.7-3.8,1.4-7.6,2.1-11.4c1.3-7.4,2.8-14.8,3.9-22.3c0.1-0.6-1.5-2-1.6-1.3c-2.5,10.2-4.4,20.7-6.5,31
		c-0.9,4.5-3.8,13.5,3.2,14.9c2.9,0.6,5.4-1.6,7-3.8c2.8-3.7,5-8.1,7.2-12.1c1.5-2.8,2.9-5.6,4.2-8.5c-5.3,23-11.1,46-15.6,69.2
		c-0.3,1.6,3.2,3.5,3.7,1.7c0.2-0.7,0.4-1.5,0.5-2.3c6.9-28.7,11.9-58,18.4-86.8C-529.2,252.8-531.6,250.9-532,252.1z"/>
	<path class="st0" d="M-495.4,253.6c-2.6-2.5-7.1-3.7-9.7-0.6c-0.5,0.7,1,2.4,1.7,1.8c2.9-2.4,6.8-1.1,8,2.8c0.6,1.9,0.4,4,0.2,5.9
		c-0.4,3.5-1.4,7-2.6,10.4c-1.4,3.7-3.2,7.2-5.5,10.4c-1.9,2.7-5.1,7.6-8.6,8.4c-2,0.4-5-1.5-6-3.1c-0.6-0.9-0.8-2-1-3
		c-0.4-1.8-0.7-3.7-0.7-5.6c-0.1-4,0.5-7.9,1.8-11.7c2.3-6.8,6.7-12.4,12.2-16.8c0.3-0.3-0.4-1.4-0.7-1.2
		c-9.4,5.2-15.2,15.5-15.9,26.1c-0.3,4.8,0.2,10.5,3.3,14.4c2.6,3.2,7,5,10.8,2.8c4.6-2.7,8.2-8.4,10.6-13
		c2.7-5.1,4.6-10.6,5.2-16.4C-492,261.1-492.3,256.6-495.4,253.6z"/>
	<path class="st0" d="M-416.6,243.2c-9.5,1.6-15.5,11.8-20,19.4c-2.8,4.7-5.2,9.6-7.4,14.6c0.2-1.8,0.3-3.6,0.5-5.4
		c0.5-6.1,2.2-13.4,0.7-19.4c0-0.1-0.4-0.7-0.5-0.5c-1.7,2.7-1.7,6.6-2.1,9.6c-0.4,3.4-0.9,6.7-1.3,10.1c-0.8,6.8-1.6,13.5-2.4,20.3
		c-0.2,1.5,3,3.5,3.6,1.7c2.8-9.6,6.6-18.8,11.6-27.5c4.8-8.3,10.1-16.7,19.5-20.1C-412.8,245.4-415.6,243-416.6,243.2z"/>
	<path class="st0" d="M-326.5,237.6c3-9.6,4-21.7-2.3-30.3c-7.2-9.8-19.7-8.2-29.8-4.4c-13,4.9-24,13.7-32.1,25
		c-0.3,0.5,1,1.9,1.3,1.5c8.3-10.9,19.6-19.4,32.5-24.2c7.1-2.6,16.8-5.3,23.4-0.1c5.3,4.2,6.4,12.2,6,18.6
		c-1.8,25-20.7,43.1-42.2,53.6c1.1-5.5,2.2-11.1,3.4-16.6c3.2-15.5,6.8-31.1,9.1-46.8c0.1-0.7-1.6-2.8-2.2-1.8
		c-1.1,1.8-2.4,3.4-3.7,5.1c-0.2,0.3,0.6,1.5,0.9,1.2c0.5-0.4,0.9-0.8,1.4-1.2c-3.5,13.9-6.1,28-9,41.9c-1.4,6.8-2.9,13.5-4.3,20.3
		c-3.1,1.3-6.2,2.5-9.3,3.6c-2.2,0.7,0.5,3.2,1.7,3.3c2,0.2,4,0.4,6,0.6c-1.4,6.3-3,12.6-3.4,18.9c-0.1,1.1,2.3,3.2,2.8,1.7
		c2.2-6.5,3.3-13.4,4.6-20.2c12.8,1.4,25.7,2.9,38.6,3.8c2.5,0.2,0.4-3-1.1-3.3c-12.2-1.8-24.5-2.8-36.8-3.9
		c0.1-0.5,0.2-1.1,0.3-1.6C-350.9,273.6-333.3,259-326.5,237.6z"/>
	<path class="st0" d="M-315.1,252.9c-1,0.1-1.1,0.5-1.2,1.5c0,0.2,0.4,1,0.6,0.7l0.1,0c-2.4,12-4.7,23.9-7.4,35.8c0,0,0,0.1,0,0.1
		c-0.1,0.7-0.3,1.3-0.4,2c-0.3,1.4,2.8,3.3,3.2,1.7c3.1-13.2,5.4-27,6.4-40.5C-314,253.8-314.6,252.9-315.1,252.9z"/>
	<path class="st0" d="M-309.3,220.2c-1.7,6.4-3.2,13-4.1,19.5c-0.1,0.9,2,2.8,2.2,1.7c1.6-6.5,2.7-13.2,3.5-19.8
		C-307.6,220.9-309.1,219.4-309.3,220.2z"/>
	<path class="st0" d="M-273.4,219.9c-2.4,11.2-5,22.3-7.7,33.4c-0.7,2.7-1.3,5.4-2,8.2c-0.1-1.8-0.5-3.5-1.4-5.1
		c-1.6-2.9-4.8-5.4-8.3-5c-4.1,0.4-6.4,4.4-7.8,7.9c-2.2,5.6-3.4,11.6-3.8,17.6c-0.3,4.6-0.6,22,9.2,17.5c4.5-2.1,7.2-8.5,9.1-12.6
		c0.6-1.4,1.2-2.7,1.7-4.1c-1,5.8-1.9,11.6-2.7,17.4c-0.2,1.4,3.1,3.4,3.4,1.7c4.9-24.9,8.6-50.1,13.5-75
		C-270,220.3-273,218.4-273.4,219.9z M-291.1,283.6c-1.1,2.1-2.4,4.2-3.9,6c-1.3,1.4-2.1,2.4-4.1,1.6c-2-0.8-1.9-1.8-2.1-3.7
		c-0.7-5.6-0.4-11.4,0.6-17c0.9-4.7,2-10.5,5.2-14.2c2.8-3.3,7.4-3.5,9.6,0.9c1.6,3.1,0.8,7.2,0.5,10.5c0,0.1,0.1,0.3,0.2,0.6
		C-286.6,273.6-288.5,278.8-291.1,283.6z"/>
	<path class="st0" d="M-235.9,271.1c-2.1,4.3-4.6,8.4-7.8,12c-3,3.4-9.1,10.2-14.2,9.4c-5.6-0.9-6-9.3-5.7-14.8
		c7-3,13.2-8.1,17.4-14.4c2.5-3.7,5.3-8.6,3.5-13.1c-1-2.7-3.5-4.9-6.4-5c-5.2-0.2-9,6.1-11.2,9.9c-2.8,4.9-4.8,10.2-5.7,15.8
		c-0.3,1.6-0.5,3.4-0.6,5.3c-2.4,1.1-4.9,1.9-7.5,2.7c-0.6,0.2,0.3,1.6,0.8,1.5c2.2-0.3,4.4-0.8,6.6-1.5c0,7,1.8,14.4,8.8,16.2
		c5.5,1.4,10.6-3.2,14.3-6.6c4.6-4.4,8.3-9.6,10.8-15.4C-232.3,271.9-235.3,269.9-235.9,271.1z M-259.7,261.1
		c1.9-4.2,5.1-10.5,9.4-12.7c6.4-3.2,5.4,5.8,4,8.9c-1.1,2.5-2.7,4.8-4.4,6.9c-3.6,4.5-7.9,7.9-12.7,10.5
		C-262.9,269.9-261.6,265.4-259.7,261.1z"/>
	<path class="st0" d="M-721,247.3c-10.1,7.7-18.6,17.2-25,28c0.1-0.3,0.1-0.5,0.2-0.8c1.5-7.2,3.2-14.8,3.3-22.2
		c0-0.5-1.5-2.2-1.7-1.3c-2,7.1-2.9,14.6-4.6,21.8c-1.7,7.2-3.6,14.4-5.8,21.5c-0.4,1.3,2.7,3.3,3.2,1.7c6.2-18.3,17.6-34.4,33-46.1
		C-717.1,248.9-719.9,246.4-721,247.3z"/>
	<path class="st0" d="M-684.8,231c-4.8,0.2-9.6,0.8-14.2,1.9c1.2-5.4,2.2-10.9,3-16.3c0.1-0.5-1.2-2.1-1.4-1.4
		c-2,6.1-3.6,12.3-5.2,18.6c-3.9,1.1-7.8,2.5-11.5,4.2c-0.6,0.3-0.5,1-0.3,1.5c0.1,0.4,0.3,1.2,0.9,1.4c2.6,0.8,3.6-0.2,6.2-1.2
		c1.2-0.5,2.5-0.9,3.8-1.3c-1.5,6.3-2.9,12.7-4.3,18.9c-1.6,6.9-3.3,13.8-4.9,20.7c-0.9,3.6-1.7,7.2-2.5,10.7
		c-0.7,3.1-1.9,6.3-1.7,9.5c0,0.7,1.6,2.8,2.3,1.6c1.5-2.8,1.9-6.1,2.6-9.2c0.8-3.6,1.6-7.2,2.5-10.7c1.6-6.9,3.2-13.8,4.7-20.7
		c1.7-7.3,3.5-14.6,5.2-22c5.5-1.5,11-2.3,16.7-2.7C-680.4,234.4-682.9,230.9-684.8,231z"/>
	<path class="st0" d="M-461.5,252.1c-2.8,12.8-8.1,24.8-16.1,35c-1.1,1.4-3,5.1-4.6,1.8c-0.4-0.9-0.2-3.2-0.2-4.1c-0.1-4,0-8,0.4-12
		c0.7-7.2,2.4-14.2,4.1-21.1c0.2-0.6-1.2-2.3-1.6-1.5c-3.6,8.6-5.3,18-5.8,27.3c-0.2,4.4-1.8,15,4.5,16.1c3,0.5,5.1-2.5,6.7-4.7
		c2.6-3.4,5-7.1,7.1-10.9c0.5-0.9,1-1.9,1.5-2.8c-1,5.4-1.9,10.9-2.6,16.3c-0.2,1.5,3,3.6,3.4,1.8c2.6-13,4-26.3,6.3-39.4
		C-458.2,252.6-461.1,250.5-461.5,252.1z"/>
	<path class="st0" d="M-745.5,251.4c-6.3,6.4-11.9,13.6-17.2,20.8c-3.3,4.5-6.6,9.2-9.6,14.1c0.8-3.4,1.5-6.8,2.3-10
		c1.9-7.1,3.7-14.2,5.5-21.3c0.2-0.9-1.8-2.7-2.2-1.6c-3.2,8.1-7.4,15.9-12.1,23.2c-2.3,3.5-4.7,6.9-7.3,10.2
		c-1.3,1.7-2.7,3.7-4.3,5.2c-3.1,2.9-3.9-1.4-4.2-3.9c-1.8-17.4,8.9-31.6,24.3-38.1c0.5-0.2-0.6-1.7-1.1-1.6
		c-9.2,2.3-17.1,8.8-21.7,17.1c-4,7.2-7,19.4-3.1,27.3c4.7,9.5,13.2-4.3,15.9-8.2c3.3-4.7,6.2-9.5,8.8-14.5
		c-0.4,1.3-0.7,2.6-1.1,3.9c-1.9,6.6-4.9,13.7-5.5,20.5c-0.1,1,2.1,3.1,2.7,1.7c0.3-0.8,0.7-1.5,0.9-2.3c4.6-6.5,8.8-13.3,13.6-19.7
		c5.4-7.3,11.4-14,17.3-20.8C-742.9,252.7-744.8,250.7-745.5,251.4z"/>
	<path class="st0" d="M-443.3,252.3c-7.9,13-16.3,26.1-22.6,40c-0.1,0.2,0.4,1.1,0.6,0.8c8.5-12.7,15.7-26.3,23.7-39.3
		C-441.2,253.2-442.8,251.5-443.3,252.3z"/>
</g>
</svg>
