<?xml version="1.0" encoding="utf-8"?>
<!-- Generator: Adobe Illustrator 21.1.0, SVG Export Plug-In . SVG Version: 6.00 Build 0)  -->
<!DOCTYPE svg PUBLIC "-//W3C//DTD SVG 1.1//EN" "http://www.w3.org/Graphics/SVG/1.1/DTD/svg11.dtd">
<svg version="1.1" id="Layer_1" xmlns="http://www.w3.org/2000/svg" xmlns:xlink="http://www.w3.org/1999/xlink" x="0px" y="0px"
	 viewBox="0 0 100 60" style="enable-background:new 0 0 100 60;" xml:space="preserve">
<style type="text/css">
	.st0{fill:#223063;}
	.st1{fill:#222F63;}
	.st2{fill:#FFFFFF;}
	.st3{fill:#1C1D1D;}
	.st4{fill:#DEE5EB;}
	.st5{fill:#1D1D1D;}
	.st6{fill:#1D1D1B;}
</style>
<g>
	<path class="st3" d="M73.9,28.4L73.9,28.4c1.8,0,3.4-1,4.1-2.6c1.4-3.3-1-6.5-4.1-6.5h-6.5v9.1H73.9z M67.4,40.7h7.7
		c2.2,0,4.2-1.5,4.6-3.6c0.6-2.9-1.6-5.5-4.5-5.5h-7.9v9.1H67.4z M75.2,43.9H64.1V16.1h9.7c4.3,0,7.8,3.5,7.8,7.8
		c0,2.2-0.9,4.2-2.4,5.6c2.3,1.4,3.8,3.8,3.8,6.7C83,40.4,79.5,43.9,75.2,43.9"/>
	<path class="st3" d="M51.8,28.4L51.8,28.4c1.8,0,3.4-1,4.1-2.6c1.4-3.3-1-6.5-4.1-6.5h-6.5v9.1H51.8z M45.3,40.7H53
		c2.2,0,4.2-1.5,4.6-3.6c0.6-2.9-1.6-5.5-4.5-5.5h-7.9v9.1H45.3z M53.2,44H42.1V16h9.4c3.9,0,7.4,2.7,8,6.6c0.4,2.7-0.6,5.2-2.3,6.8
		c2.3,1.4,3.8,3.8,3.8,6.7C61,40.5,57.5,44,53.2,44"/>
	<polygon class="st3" points="25.1,16.1 23.2,16.1 24.1,19.3 26,19.3 	"/>
	<polygon class="st3" points="26.7,28.4 27.6,31.6 29.4,31.6 28.5,28.4 	"/>
	<polygon class="st3" points="29.3,40.7 23.2,40.7 23.2,31.6 26.7,31.6 25.8,28.4 23.2,28.4 23.2,19.3 22.3,16 20,16 20,44 30.2,44 
			"/>
	<path class="st3" d="M35.1,29.5c1.8-1.7,2.7-4.1,2.3-6.8c-0.6-3.9-4.1-6.6-8-6.6h-0.7l0.9,3.2h0.1c1.7,0,3.4,1,4.1,2.6
		c1.4,3.3-1,6.5-4.1,6.6l0,0h-0.3l0.9,3.2h0.6c2.2,0,4.2,1.5,4.6,3.6c0.6,2.9-1.6,5.5-4.5,5.5h-0.9L31,44l0,0c3.2,0,6.1-1.9,7.2-4.8
		C39.8,35.1,38.1,31.3,35.1,29.5"/>
	<polygon class="st3" points="26,16.1 26.9,19.3 28.7,19.3 27.8,16.1 	"/>
</g>
</svg>
