<?xml version="1.0" encoding="utf-8"?>
<!-- Generator: Adobe Illustrator 21.1.0, SVG Export Plug-In . SVG Version: 6.00 Build 0)  -->
<!DOCTYPE svg PUBLIC "-//W3C//DTD SVG 1.1//EN" "http://www.w3.org/Graphics/SVG/1.1/DTD/svg11.dtd">
<svg version="1.1" id="Layer_1" xmlns="http://www.w3.org/2000/svg" xmlns:xlink="http://www.w3.org/1999/xlink" x="0px" y="0px"
	 viewBox="0 0 68.3 68" style="enable-background:new 0 0 68.3 68;" xml:space="preserve">
<style type="text/css">
	.st0{fill:#222F63;}
	.st1{fill:#FFFFFF;}
</style>
<rect x="-0.1" class="st0" width="68.4" height="68"/>
<path class="st1" d="M29.1,17l1.1,3.9h2.2L31.3,17H29.1z M40.2,33.3c1.8-1.7,3-4.2,3-6.9c0-5.2-4.2-9.5-9.5-9.5h-1.2l1.1,3.9h0.1
	c3.1,0,5.5,2.5,5.5,5.5c0,3.1-2.5,5.5-5.5,5.5h0h-0.3l1.1,3.9l0.9,0c3.1,0,5.5,2.5,5.5,5.5S38.4,47,35.3,47h-1.1l1.1,3.9h0
	c5.2,0,9.5-4.2,9.5-9.5C44.8,38,42.9,35,40.2,33.3 M30,32l1.1,3.9l2.2,0L32.2,32L30,32z M28,17h-2.2l1.1,3.9h2.2L28,17z"/>
</svg>
