<?xml version="1.0" encoding="utf-8"?>
<!-- Generator: Adobe Illustrator 21.1.0, SVG Export Plug-In . SVG Version: 6.00 Build 0)  -->
<!DOCTYPE svg PUBLIC "-//W3C//DTD SVG 1.1//EN" "http://www.w3.org/Graphics/SVG/1.1/DTD/svg11.dtd">
<svg version="1.1" id="Layer_1" xmlns="http://www.w3.org/2000/svg" xmlns:xlink="http://www.w3.org/1999/xlink" x="0px" y="0px"
	 viewBox="0 0 217.1 68.1" style="enable-background:new 0 0 217.1 68.1;" xml:space="preserve">
<style type="text/css">
	.st0{fill:#223063;}
	.st1{fill:#222F63;}
	.st2{fill:#FFFFFF;}
	.st3{fill:#1C1D1D;}
	.st4{fill:#DEE5EB;}
	.st5{fill:#1D1D1D;}
	.st6{fill:#1D1D1B;}
</style>
<path class="st1" d="M88.1,32.4L88.1,32.4c3.1,0,5.5-2.5,5.5-5.5c0-3.1-2.5-5.5-5.6-5.5h-7.9v11L88.1,32.4z M80.2,47.4h9.6
	c3.1,0,5.6-2.5,5.6-5.5c0-3.1-2.5-5.5-5.6-5.5l-9.6,0V47.4z M89.8,51.3H76.3V17.4h11.8c5.2,0,9.5,4.2,9.5,9.4c0,2.7-1.1,5.1-3,6.9
	c2.8,1.6,4.6,4.7,4.6,8.1C99.3,47.1,95,51.3,89.8,51.3"/>
<path class="st1" d="M61.2,32.4L61.2,32.4c3.1,0,5.6-2.5,5.6-5.6c0-3.1-2.5-5.6-5.6-5.6h-7.9v11.1L61.2,32.4z M53.3,47.5h9.6
	c3.1,0,5.6-2.5,5.6-5.6c0-3.1-2.5-5.6-5.6-5.6l-9.6,0V47.5z M62.9,51.4H49.4v-34h11.9c5.2,0,9.5,4.3,9.5,9.5c0,2.7-1.1,5.2-3,6.9
	c2.8,1.7,4.6,4.7,4.6,8.2C72.4,47.1,68.2,51.4,62.9,51.4"/>
<path class="st1" d="M106.8,48.9c0,1.4-1.1,2.5-2.5,2.5c-1.4,0-2.5-1.1-2.5-2.5c0-1.4,1.1-2.5,2.5-2.5
	C105.7,46.4,106.8,47.6,106.8,48.9"/>
<path class="st1" d="M131.1,32.5c-0.8,2.1-2.4,3.2-4.4,3.2c-1.2,0-2.2-0.4-3.1-1.1l1.2-2.3c0.6,0.5,1.1,0.7,1.8,0.7
	c0.9,0,1.6-0.5,2.1-1.5l0.5-1l-5.6-13.3h3l4,10.2l3.8-10.2h2.9L131.1,32.5z"/>
<path class="st1" d="M150.2,19.3l-1.6,1.9c-0.9-1-2.2-1.5-3.9-1.5c-2.3,0-4,1.7-4,4.3s1.7,4.3,4,4.3c1.7,0,3.1-0.6,4-1.6l1.6,1.6
	c-1.2,1.6-3.2,2.5-5.7,2.5c-4,0-6.8-2.8-6.8-6.8c0-4.1,2.8-6.9,6.8-6.9C147,17.1,148.9,17.9,150.2,19.3"/>
<path class="st1" d="M122.2,19.3l-1.6,1.9c-0.9-1-2.2-1.5-3.9-1.5c-2.3,0-4,1.7-4,4.3s1.7,4.3,4,4.3c1.7,0,3.1-0.6,4-1.6l1.6,1.6
	c-1.2,1.6-3.2,2.5-5.7,2.5c-4,0-6.8-2.8-6.8-6.8c0-4.1,2.8-6.9,6.8-6.9C119,17.1,120.9,17.9,122.2,19.3"/>
<rect x="152.8" y="11.9" class="st1" width="2.9" height="18.8"/>
<path class="st1" d="M159.1,17.2h2.9v13.5h-2.9V17.2z M162.3,13.3c0,1-0.7,1.7-1.7,1.7c-1,0-1.7-0.7-1.7-1.7c0-1,0.7-1.8,1.7-1.8
	C161.5,11.6,162.3,12.3,162.3,13.3"/>
<path class="st1" d="M178.4,22.3v8.4h-2.9v-7.6c0-2-1.2-3.3-3.3-3.3c-2.2,0-3.6,1.6-3.8,3.7v7.2h-2.9V17.2h2.9v2.6
	c1-1.9,2.7-2.7,5-2.7C176.5,17.1,178.4,19.1,178.4,22.3"/>
<path class="st1" d="M191.1,23.6c0-2.4-1.6-4.1-3.9-4.1c-2.3,0-3.9,1.7-3.9,4.1c0,2.4,1.6,4.2,3.9,4.2
	C189.5,27.7,191.1,26,191.1,23.6 M194,29.4c0,3.9-2.8,6.3-7,6.3c-2.1,0-4-0.7-5.6-1.8l1.2-2.1c1.3,0.9,2.6,1.5,4.2,1.5
	c2.6,0,4.2-1.5,4.2-3.8v-1.7c-0.9,1.5-2.4,2.3-4.5,2.3c-3.7,0-6.1-2.6-6.1-6.5c0-3.8,2.4-6.4,6-6.4c2.1,0,3.6,0.8,4.6,2.3v-2.2h2.9
	V29.4z"/>
<path class="st1" d="M122.2,40.3l-1.6,1.9c-0.9-1-2.2-1.5-3.9-1.5c-2.3,0-4,1.7-4,4.3c0,2.6,1.7,4.3,4,4.3c1.7,0,3.1-0.6,4-1.6
	l1.6,1.6c-1.2,1.6-3.2,2.5-5.7,2.5c-4,0-6.8-2.8-6.8-6.8c0-4.1,2.8-6.9,6.8-6.9C119,38.1,120.9,38.9,122.2,40.3"/>
<path class="st1" d="M126.4,45.2c0,2.5,1.6,4.2,4,4.2c2.3,0,4-1.7,4-4.2c0-2.5-1.6-4.2-4-4.2C128.1,41,126.4,42.7,126.4,45.2
	 M137.2,45.2c0,3.9-2.8,6.6-6.8,6.6c-4.1,0-6.8-2.7-6.8-6.6c0-3.9,2.8-6.6,6.8-6.6C134.5,38.6,137.2,41.2,137.2,45.2"/>
<path class="st1" d="M160.7,43.5v7.9H158v-7.1c0-1.9-1.1-3.1-3-3.1c-2.2,0.1-3.5,1.7-3.5,4v6.3h-2.8v-7.1c0-1.9-1.1-3.1-3-3.1
	c-2.2,0.1-3.5,1.7-3.5,4v6.3h-2.7V38.7h2.7v2.5c0.9-1.8,2.5-2.6,4.6-2.6c2.3,0,3.8,1.1,4.4,3.1c0.8-2.1,2.5-3.1,4.8-3.1
	C159,38.6,160.7,40.4,160.7,43.5"/>
<polygon class="st1" points="28.7,17.4 26.4,17.4 27.6,21.3 29.8,21.3 "/>
<polygon class="st1" points="30.7,32.4 31.8,36.3 34,36.3 32.9,32.4 "/>
<polygon class="st1" points="33.8,47.5 26.4,47.5 26.4,36.3 30.7,36.3 29.6,32.4 26.4,32.4 26.4,21.3 25.3,17.4 22.5,17.4 
	22.5,51.4 34.9,51.4 "/>
<path class="st1" d="M40.9,33.7c1.8-1.7,3-4.2,3-6.9c0-5.2-4.3-9.5-9.5-9.5h-1.2l1.1,3.9h0.1c3.1,0,5.6,2.5,5.6,5.6
	c0,3.1-2.5,5.6-5.5,5.6h0l-0.3,0l1.1,3.9l0.9,0c3.1,0,5.6,2.5,5.6,5.6c0,3.1-2.5,5.6-5.6,5.6h-1.1l1.1,3.9h0c5.2,0,9.5-4.3,9.5-9.5
	C45.5,38.4,43.7,35.4,40.9,33.7"/>
<polygon class="st1" points="29.8,17.4 30.9,21.3 33.1,21.3 32,17.4 "/>
</svg>
