<?xml version="1.0" encoding="utf-8"?>
<!-- Generator: Adobe Illustrator 21.1.0, SVG Export Plug-In . SVG Version: 6.00 Build 0)  -->
<!DOCTYPE svg PUBLIC "-//W3C//DTD SVG 1.1//EN" "http://www.w3.org/Graphics/SVG/1.1/DTD/svg11.dtd">
<svg version="1.1" id="Layer_1" xmlns="http://www.w3.org/2000/svg" xmlns:xlink="http://www.w3.org/1999/xlink" x="0px" y="0px"
	 viewBox="0 0 960 540" style="enable-background:new 0 0 960 540;" xml:space="preserve">
<style type="text/css">
	.st0{fill:#1D1D1D;stroke:#1D1D1D;stroke-width:2;stroke-linecap:round;stroke-linejoin:round;stroke-miterlimit:10;}
	.st1{fill:#1D1D1D;}
</style>
<path class="st0" d="M439.9,131.8c-5-11.5-17.8-14.9-29.5-14.3c-17.1,0.9-33.9,7.6-47.6,17.4c-0.4,0.3,0.6,1.7,1,1.4
	c11.4-8,24.4-13.5,38.2-15.8c12.5-2.1,30.8-2.5,36.1,11.6c4.9,13.2-3.7,26.8-12,36.7c-7.9,9.5-17.8,17.5-28.8,23.4
	c-3.4,1.8-6.8,3.4-10.3,4.7c1.7-6,3.3-12,4.9-18c4.3-16.4,8.7-32.9,11.8-49.5c0.1-0.6-1.3-2.1-1.5-1.4c-4.5,16.3-8.2,32.9-12.7,49.2
	c-1.9,7-3.9,13.9-5.9,20.9c-8.3,2.8-17,4.5-26,6c-1.7,0.3,0.5,2.5,1.5,2.5c7.7-0.1,15.6-1.6,23.2-4.2c-2.4,7.8-5.7,15.9-6.7,23.9
	c-0.1,0.7,1.5,2.3,2,1.4c3.7-7.5,5.3-16.3,7.6-24.3c0.2-0.7,0.4-1.5,0.6-2.2c4.5-1.7,8.8-3.7,12.9-5.8c12.4-6.6,23.4-15.8,31.9-26.8
	C438.3,158.3,445.5,144.7,439.9,131.8z"/>
<path class="st0" d="M363.9,263.4c-0.6-0.6-2.4-0.8-1.5,0.5c4.3,6.8,5.2,13.6,2.3,21.2c-1.5,3.8-3.7,7.3-6,10.5
	c-2.1,2.8-4.7,6.9-8.4,7.7c-7.6,1.6-7.4-8.5-6.6-13.3c0.5-3.6,1.5-7.1,2.9-10.4c1.8-4.5,8.7-20.2,15.5-13.9c0.4,0.3,0.1-0.6-0.1-0.7
	c-7.3-6.9-14.7,7.3-17,12.4c-3.3,7.5-7.7,21.5,0.9,27.3c8.8,5.9,16.7-7.7,20-14C370.1,282.3,371.6,270.4,363.9,263.4z"/>
<path class="st0" d="M419.1,255c-9.6,3.5-19.5,6.3-29.3,9.2c0.7-3.1,1.3-6.2,2-9.2c6.6-2.3,12.2-7.1,15.1-13.8
	c2.4-5.4,4.7-18.4-3.4-20.7c-4.1-1.2-7.1,2.2-8.4,5.8c-2.2,6.2-3,13.2-4.5,19.6c-0.6,2.8-1.2,5.5-1.8,8.3c-2.5,0.8-5.1,1.2-7.9,1.2
	c-0.4,0,0.3,1.1,0.7,1.1c2.3,0.1,4.6-0.1,6.7-0.5c-0.7,3.1-1.4,6.2-2.1,9.3c-3.9,1.1-7.8,2.3-11.7,3.5c-0.6,0.2,0.5,1.6,1,1.5
	c3.4-0.9,6.8-1.9,10.2-2.9c-1.4,6.4-2.9,12.9-4.3,19.3c-3.4,15.4-7.7,30.8-10.2,46.3c-0.2,1.3,2.9,3,3.3,1.4
	c3.7-13.7,6.1-27.8,9-41.7c1.9-8.8,3.8-17.6,5.7-26.4c10.6-3.1,21.2-6.2,31.9-8.7C422.9,257.3,420.4,254.5,419.1,255z M392.7,250.3
	c1.5-6.8,2.7-13.7,4.4-20.4c0.3-1.4,0.7-2.9,1.4-4.1c1.4-2.4,4.9-5.4,7.3-0.9c1.4,2.5,0.8,6.5,0.4,9.1c-1.4,8.5-6.8,15.2-14,18.7
	C392.4,251.9,392.5,251.1,392.7,250.3z"/>
<path class="st0" d="M496.8,228.4c-2.5,7.2-5.4,14.3-8.8,21.1c-3,6-6.2,13.8-10.9,18.6c-1.6,1.6-4.4,2.6-4.9-0.5
	c-0.3-1.7,0.5-4,0.8-5.7c0.7-3.8,1.4-7.6,2.1-11.4c1.3-7.4,2.8-14.8,3.9-22.3c0.1-0.6-1.5-2-1.6-1.3c-2.5,10.2-4.4,20.7-6.5,31
	c-0.9,4.5-3.8,13.5,3.2,14.9c2.9,0.6,5.4-1.6,7-3.8c2.8-3.7,5-8.1,7.2-12.1c1.5-2.8,2.9-5.6,4.2-8.5c-5.3,23-11.1,46-15.6,69.2
	c-0.3,1.6,3.2,3.5,3.7,1.7c0.2-0.7,0.4-1.5,0.5-2.3c6.9-28.7,11.9-58,18.4-86.8C499.6,229.1,497.2,227.1,496.8,228.4z"/>
<path class="st0" d="M533.4,229.9c-2.6-2.5-7.1-3.7-9.7-0.6c-0.5,0.7,1,2.4,1.7,1.8c2.9-2.4,6.8-1.1,8,2.8c0.6,1.9,0.4,4,0.2,5.9
	c-0.4,3.5-1.4,7-2.6,10.4c-1.4,3.7-3.2,7.2-5.5,10.4c-1.9,2.7-5.1,7.6-8.6,8.4c-2,0.4-5-1.5-6-3.1c-0.6-0.9-0.8-2-1-3
	c-0.4-1.8-0.7-3.7-0.7-5.6c-0.1-4,0.5-7.9,1.8-11.7c2.3-6.8,6.7-12.4,12.2-16.8c0.3-0.3-0.4-1.4-0.7-1.2
	c-9.4,5.2-15.2,15.5-15.9,26.1c-0.3,4.8,0.2,10.5,3.3,14.4c2.6,3.2,7,5,10.8,2.8c4.6-2.7,8.2-8.4,10.6-13c2.7-5.1,4.6-10.6,5.2-16.4
	C536.9,237.4,536.5,232.9,533.4,229.9z"/>
<path class="st0" d="M616.4,207.5c-9.5,1.6-15.5,11.8-20,19.4c-2.8,4.7-5.2,9.6-7.4,14.6c0.2-1.8,0.3-3.6,0.5-5.4
	c0.5-6.1,2.2-13.4,0.7-19.4c0-0.1-0.4-0.7-0.5-0.5c-1.7,2.7-1.7,6.6-2.1,9.6c-0.4,3.4-0.9,6.7-1.3,10.1c-0.8,6.8-1.6,13.5-2.4,20.3
	c-0.2,1.5,3,3.5,3.6,1.7c2.8-9.6,6.6-18.8,11.6-27.5c4.8-8.3,10.1-16.7,19.5-20.1C620.2,209.7,617.5,207.3,616.4,207.5z"/>
<path class="st0" d="M460.1,332.3c3-9.6,4-21.7-2.3-30.3c-7.2-9.8-19.7-8.2-29.8-4.4c-13,4.9-24,13.7-32.1,25
	c-0.3,0.5,1,1.9,1.3,1.5c8.3-10.9,19.6-19.4,32.5-24.2c7.1-2.6,16.8-5.3,23.4-0.1c5.3,4.2,6.4,12.2,6,18.6
	c-1.8,25-20.7,43.1-42.2,53.6c1.1-5.5,2.2-11.1,3.4-16.6c3.2-15.5,6.8-31.1,9.1-46.8c0.1-0.7-1.6-2.8-2.2-1.8
	c-1.1,1.8-2.4,3.4-3.7,5.1c-0.2,0.3,0.6,1.5,0.9,1.2c0.5-0.4,0.9-0.8,1.4-1.2c-3.5,13.9-6.1,28-9,41.9c-1.4,6.8-2.9,13.5-4.3,20.3
	c-3.1,1.3-6.2,2.5-9.3,3.6c-2.2,0.7,0.5,3.2,1.7,3.3c2,0.2,4,0.4,6,0.6c-1.4,6.3-3,12.6-3.4,18.9c-0.1,1.1,2.3,3.2,2.8,1.7
	c2.2-6.5,3.3-13.4,4.6-20.2c12.8,1.4,25.7,2.9,38.6,3.8c2.5,0.2,0.4-3-1.1-3.3c-12.2-1.8-24.5-2.8-36.8-3.9c0.1-0.5,0.2-1.1,0.3-1.6
	C435.8,368.2,453.4,353.7,460.1,332.3z"/>
<path class="st0" d="M471.6,347.6c-1,0.1-1.1,0.5-1.2,1.5c0,0.2,0.4,1,0.6,0.7h0.1c-2.4,12-4.7,23.9-7.4,35.8v0.1
	c-0.1,0.7-0.3,1.3-0.4,2c-0.3,1.4,2.8,3.3,3.2,1.7c3.1-13.2,5.4-27,6.4-40.5C472.7,348.4,472.1,347.6,471.6,347.6z"/>
<path class="st0" d="M513.3,308.6c-2.4,11.2-5,22.3-7.7,33.4c-0.7,2.7-1.3,5.4-2,8.2c-0.1-1.8-0.5-3.5-1.4-5.1
	c-1.6-2.9-4.8-5.4-8.3-5c-4.1,0.4-6.4,4.4-7.8,7.9c-2.2,5.6-3.4,11.6-3.8,17.6c-0.3,4.6-0.6,22,9.2,17.5c4.5-2.1,7.2-8.5,9.1-12.6
	c0.6-1.4,1.2-2.7,1.7-4.1c-1,5.8-1.9,11.6-2.7,17.4c-0.2,1.4,3.1,3.4,3.4,1.7c4.9-24.9,8.6-50.1,13.5-75
	C516.7,309,513.6,307,513.3,308.6z M495.5,372.3c-1.1,2.1-2.4,4.2-3.9,6c-1.3,1.4-2.1,2.4-4.1,1.6s-1.9-1.8-2.1-3.7
	c-0.7-5.6-0.4-11.4,0.6-17c0.9-4.7,2-10.5,5.2-14.2c2.8-3.3,7.4-3.5,9.6,0.9c1.6,3.1,0.8,7.2,0.5,10.5c0,0.1,0.1,0.3,0.2,0.6
	C500.1,362.3,498.2,367.4,495.5,372.3z"/>
<path class="st0" d="M553.8,355.8c-2.1,4.3-4.6,8.4-7.8,12c-3,3.4-9.1,10.2-14.2,9.4c-5.6-0.9-6-9.3-5.7-14.8
	c7-3,13.2-8.1,17.4-14.4c2.5-3.7,5.3-8.6,3.5-13.1c-1-2.7-3.5-4.9-6.4-5c-5.2-0.2-9,6.1-11.2,9.9c-2.8,4.9-4.8,10.2-5.7,15.8
	c-0.3,1.6-0.5,3.4-0.6,5.3c-2.4,1.1-4.9,1.9-7.5,2.7c-0.6,0.2,0.3,1.6,0.8,1.5c2.2-0.3,4.4-0.8,6.6-1.5c0,7,1.8,14.4,8.8,16.2
	c5.5,1.4,10.6-3.2,14.3-6.6c4.6-4.4,8.3-9.6,10.8-15.4C557.3,356.6,554.3,354.6,553.8,355.8z M530,345.7c1.9-4.2,5.1-10.5,9.4-12.7
	c6.4-3.2,5.4,5.8,4,8.9c-1.1,2.5-2.7,4.8-4.4,6.9c-3.6,4.5-7.9,7.9-12.7,10.5C526.8,354.6,528.1,350,530,345.7z"/>
<path class="st0" d="M506.9,164.7c-10.1,7.7-18.6,17.2-25,28c0.1-0.3,0.1-0.5,0.2-0.8c1.5-7.2,3.2-14.8,3.3-22.2
	c0-0.5-1.5-2.2-1.7-1.3c-2,7.1-2.9,14.6-4.6,21.8s-3.6,14.4-5.8,21.5c-0.4,1.3,2.7,3.3,3.2,1.7c6.2-18.3,17.6-34.4,33-46.1
	C510.8,166.3,508,163.8,506.9,164.7z"/>
<path class="st0" d="M545.1,141.4c-4.8,0.2-9.6,0.8-14.2,1.9c1.2-5.4,2.2-10.9,3-16.3c0.1-0.5-1.2-2.1-1.4-1.4
	c-2,6.1-3.6,12.3-5.2,18.6c-3.9,1.1-7.8,2.5-11.5,4.2c-0.6,0.3-0.5,1-0.3,1.5c0.1,0.4,0.3,1.2,0.9,1.4c2.6,0.8,3.6-0.2,6.2-1.2
	c1.2-0.5,2.5-0.9,3.8-1.3c-1.5,6.3-2.9,12.7-4.3,18.9c-1.6,6.9-3.3,13.8-4.9,20.7c-0.9,3.6-1.7,7.2-2.5,10.7
	c-0.7,3.1-1.9,6.3-1.7,9.5c0,0.7,1.6,2.8,2.3,1.6c1.5-2.8,1.9-6.1,2.6-9.2c0.8-3.6,1.6-7.2,2.5-10.7c1.6-6.9,3.2-13.8,4.7-20.7
	c1.7-7.3,3.5-14.6,5.2-22c5.5-1.5,11-2.3,16.7-2.7C549.5,144.7,547.1,141.3,545.1,141.4z"/>
<path class="st0" d="M569.6,221.4c-2.8,12.8-8.1,24.8-16.1,35c-1.1,1.4-3,5.1-4.6,1.8c-0.4-0.9-0.2-3.2-0.2-4.1c-0.1-4,0-8,0.4-12
	c0.7-7.2,2.4-14.2,4.1-21.1c0.2-0.6-1.2-2.3-1.6-1.5c-3.6,8.6-5.3,18-5.8,27.3c-0.2,4.4-1.8,15,4.5,16.1c3,0.5,5.1-2.5,6.7-4.7
	c2.6-3.4,5-7.1,7.1-10.9c0.5-0.9,1-1.9,1.5-2.8c-1,5.4-1.9,10.9-2.6,16.3c-0.2,1.5,3,3.6,3.4,1.8c2.6-13,4-26.3,6.3-39.4
	C572.8,221.8,569.9,219.8,569.6,221.4z"/>
<path class="st0" d="M482.4,168.8c-6.3,6.4-11.9,13.6-17.2,20.8c-3.3,4.5-6.6,9.2-9.6,14.1c0.8-3.4,1.5-6.8,2.3-10
	c1.9-7.1,3.7-14.2,5.5-21.3c0.2-0.9-1.8-2.7-2.2-1.6c-3.2,8.1-7.4,15.9-12.1,23.2c-2.3,3.5-4.7,6.9-7.3,10.2
	c-1.3,1.7-2.7,3.7-4.3,5.2c-3.1,2.9-3.9-1.4-4.2-3.9c-1.8-17.4,8.9-31.6,24.3-38.1c0.5-0.2-0.6-1.7-1.1-1.6
	c-9.2,2.3-17.1,8.8-21.7,17.1c-4,7.2-7,19.4-3.1,27.3c4.7,9.5,13.2-4.3,15.9-8.2c3.3-4.7,6.2-9.5,8.8-14.5c-0.4,1.3-0.7,2.6-1.1,3.9
	c-1.9,6.6-4.9,13.7-5.5,20.5c-0.1,1,2.1,3.1,2.7,1.7c0.3-0.8,0.7-1.5,0.9-2.3c4.6-6.5,8.8-13.3,13.6-19.7c5.4-7.3,11.4-14,17.3-20.8
	C485,170,483.1,168.1,482.4,168.8z"/>
<path class="st0" d="M587.7,221.6c-7.9,13-16.3,26.1-22.6,40c-0.1,0.2,0.4,1.1,0.6,0.8c8.5-12.7,15.7-26.3,23.7-39.3
	C589.8,222.5,588.2,220.8,587.7,221.6z"/>
<path class="st0" d="M517.1,418c-10.7-1.3-22.8,0.8-33.4,2.5c-11.5,1.9-22.8,4.8-33.8,8.8c-2.5,0.9-6.6,1.3-5.7,4.8
	c0.4,1.5,2.6,3.6,4.2,3.5c2.7,0,2.7-2.6,1.5-4.5c4.7-0.4,10.2-3.2,14.7-4.3c5.7-1.5,11.4-2.8,17.2-3.8c6.2-1.1,12.4-1.9,18.7-2.4
	c6.2-0.5,12.6-0.1,18.8-0.8C522,421.5,518.3,418.1,517.1,418z"/>
<g>
	<path class="st1" d="M1379.2,200.6c7-0.1,14.3-1.3,21.6-3.6c-0.5,1.4-0.9,2.9-1.4,4.3c-2,5.9-4,11.9-4.7,17.9c-0.2,1,1,2.4,2,2.7
		c0.2,0.1,0.4,0.1,0.6,0.1c0.5,0,1-0.3,1.3-0.8c2.7-5.6,4.3-11.8,5.9-17.9c0.6-2.2,1.1-4.5,1.8-6.6c0.1-0.4,0.2-0.7,0.3-1.1
		c0.1-0.2,0.1-0.4,0.2-0.6c3.9-1.5,8-3.4,12.5-5.7c12.6-6.7,23.7-16,32.2-27.1c11-14.7,14.1-27.1,9.4-37.8
		c-2.1-4.8-9.3-16-30.5-14.9c-16.4,0.9-33.5,7.1-48.1,17.6c-0.6,0.4-0.8,1.3,0,2.4c0.8,1,1.6,1,2.1,0.7c11.4-8,24.5-13.4,37.8-15.6
		c24-4,32.3,3.7,35,11c3.7,10.1-0.1,21.8-11.8,35.7c-7.7,9.3-17.6,17.3-28.5,23.2c-3,1.6-5.7,2.9-8.3,3.9c1.5-5.4,3-10.8,4.4-16.1
		l0.7-2.6c4-15.3,8.2-31.2,11.1-47c0.2-1-1-2.5-2-2.7c-0.7-0.1-1.3,0.2-1.5,0.9c-2.3,8.2-4.3,16.5-6.4,24.6
		c-2,8.1-4.1,16.4-6.3,24.6c-1.6,5.7-3.2,11.5-4.8,17.1l-0.9,3.3c-8.4,2.8-17.1,4.4-25.4,5.8c-1.2,0.2-1.5,1-1.4,1.7
		C1376.2,199.2,1378.1,200.6,1379.2,200.6z"/>
	<path class="st1" d="M1384.7,255.7c-0.6-0.6-2.1-1.1-3-0.4c-0.1,0.1-0.4,0.4-0.5,0.8c-1.4-0.9-2.9-1.1-4.5-0.8
		c-5.9,1.2-10.8,10.7-12.6,14.7c-2.8,6.4-8.4,22,1.3,28.5c1.6,1.1,3.3,1.6,5,1.6c0.7,0,1.4-0.1,2.1-0.3c4.8-1.2,9.5-6.4,14.4-15.7
		C1393.6,270.8,1389.9,260.4,1384.7,255.7z M1381.4,258.8C1381.4,258.8,1381.5,258.8,1381.4,258.8L1381.4,258.8L1381.4,258.8
		L1381.4,258.8L1381.4,258.8z M1383.9,277.8c-1.3,3.2-3.1,6.4-5.9,10.3c-0.2,0.3-0.5,0.7-0.7,1c-1.9,2.5-4.2,5.7-7.1,6.3
		c-1.7,0.3-2.9,0.1-3.8-0.8c-2.1-2-2.3-7.1-1.6-11.4c0.5-3.4,1.4-6.8,2.8-10.2c2.6-6.5,6.7-13.8,10.5-14.7c0.2-0.1,0.5-0.1,0.7-0.1
		c0.9,0,1.8,0.4,2.6,1.2c0,0,0.1,0,0.1,0.1c0.5,0.4,1,0.2,1.2,0.1c0,0,0.1,0,0.1-0.1C1386,265.6,1386.3,271.4,1383.9,277.8z"/>
	<path class="st1" d="M1442.8,250.5c0.2-0.8-0.2-1.7-1-2.5c-0.9-0.9-2-1.2-2.9-0.9c-8.2,3-16.8,5.5-25.1,8l-2.5,0.7
		c0.2-0.8,0.4-1.7,0.5-2.5c0.3-1.5,0.6-3,1-4.5c6.9-2.6,12.3-7.6,15.2-14.2c1.8-4,3.6-12.3,1.1-17.6c-1.1-2.3-2.8-3.8-5.2-4.5
		c-4.9-1.4-8.2,2.6-9.6,6.4c-1.5,4.1-2.3,8.6-3.2,13c-0.4,2.2-0.9,4.5-1.4,6.7c-0.3,1.4-0.6,2.7-0.9,4.1c-0.3,1.2-0.5,2.4-0.8,3.7
		c-2.2,0.7-4.6,1-7,1c-0.3,0-0.6,0.2-0.8,0.4c-0.2,0.2-0.3,0.5-0.3,0.8c0,0.7,0.8,2,1.8,2l0,0c1.8,0.1,3.6,0,5.4-0.3l-1.6,7.3
		c-3.7,1.1-7.5,2.2-11.2,3.4c-0.7,0.2-1,0.9-0.8,1.6c0.2,0.8,1.2,2,2.4,1.8c2.9-0.8,5.8-1.6,8.6-2.4c-0.6,2.7-1.2,5.4-1.8,8.1
		c-0.7,3.2-1.4,6.4-2.1,9.6c-1.1,5.1-2.4,10.2-3.6,15.2c-2.4,10.2-5,20.7-6.6,31.1c-0.2,1.5,1.5,2.9,2.9,3.1c0.2,0,0.4,0.1,0.5,0.1
		c0.9,0,1.6-0.5,1.9-1.4c2.7-9.9,4.7-20.1,6.7-30c0.8-3.9,1.5-7.8,2.4-11.7l5.6-25.8c10.2-3,20.8-6.1,31.2-8.5
		C1442.4,251.5,1442.7,250.8,1442.8,250.5z M1413.8,243.6L1413.8,243.6c0.6-2.6,1.1-5.1,1.6-7.7c0.9-4.2,1.7-8.6,2.8-12.8
		c0.3-1.2,0.6-2.7,1.3-3.8c0.8-1.4,2.2-2.7,3.4-2.7l0,0c0.8,0,1.5,0.6,2.1,1.8c1.2,2.2,0.6,6.1,0.3,8.4c-1.2,7.2-5.4,13.3-11.6,17
		C1413.7,243.8,1413.8,243.7,1413.8,243.6z"/>
	<path class="st1" d="M1496,310.5c-0.3,1.7,1.5,3.2,3,3.5c0.2,0.1,0.5,0.1,0.7,0.1c1,0,1.7-0.5,2-1.5c0.3-0.9,0.4-1.7,0.5-2.4
		c3.8-16,7.2-32.5,10.4-48.4c2.5-12.6,5.2-25.7,8-38.4v-0.1c0.1-1.4-1.5-3-2.8-3.3c-0.9-0.2-1.6,0.3-1.9,1.1
		c-2.6,7.6-5.6,14.6-8.8,21c-0.6,1.1-1.1,2.3-1.7,3.5c-2.5,5.2-5.3,11.1-9,14.9c-0.9,0.9-2,1.4-2.6,1.2c-0.4-0.1-0.6-0.7-0.6-1.2
		c-0.2-1,0.2-2.5,0.5-3.8c0.1-0.5,0.3-1.1,0.3-1.5l2.1-11.4c0.4-2.4,0.9-4.8,1.3-7.2c0.9-4.9,1.9-10.1,2.6-15.1
		c0.2-1-0.8-1.9-1.1-2.1c-0.6-0.5-1.2-0.7-1.7-0.5c-0.4,0.2-0.7,0.5-0.7,0.9c-1.8,7.5-3.4,15.3-4.9,22.8c-0.5,2.8-1.1,5.5-1.6,8.3
		c-0.1,0.5-0.2,1-0.3,1.6c-0.8,3.6-1.9,8.6,0.1,11.8c0.9,1.4,2.3,2.3,4.2,2.7c3.7,0.8,6.6-2.3,8-4.2c2.3-3.1,4.2-6.6,6.1-10
		c0.4-0.7,0.8-1.5,1.2-2.2c0.1-0.2,0.2-0.5,0.4-0.7c-0.8,3.4-1.6,6.8-2.4,10.2C1503.3,276.4,1499.3,293.5,1496,310.5z"/>
	<path class="st1" d="M1541.3,264.8c3.8-2.2,7.5-6.7,11-13.4c2.9-5.6,4.7-11.2,5.3-16.8c0.5-5.5-0.6-9.7-3.4-12.4
		c-1.9-1.8-4.4-2.8-6.7-2.7c-1.2,0.1-2.4,0.5-3.3,1.2c-0.1-0.2-0.2-0.3-0.3-0.5c-0.6-0.8-1.3-0.7-1.7-0.5
		c-9.4,5.2-15.7,15.5-16.4,26.9c-0.4,6.6,0.8,11.6,3.5,15.1c1.9,2.3,4.8,4.1,8,4.1C1538.6,265.9,1540,265.6,1541.3,264.8
		L1541.3,264.8z M1536.8,261.1c-1.5,0.3-4.1-1.3-5-2.7c-0.5-0.7-0.6-1.6-0.8-2.5v-0.2c-0.5-2-0.7-3.8-0.7-5.4
		c-0.1-3.9,0.5-7.7,1.7-11.4c2-5.8,5.6-11,10.8-15.5c0.2,0.4,0.5,0.8,0.8,1.1c0.8,0.8,1.8,0.9,2.5,0.3c1.1-0.9,2.3-1.2,3.5-0.8
		c1.3,0.4,2.4,1.5,2.9,3.2c0.6,1.8,0.3,3.8,0.2,5.5c-0.3,3-1.2,6.2-2.5,10.2c-1.4,3.8-3.2,7.2-5.4,10.2l-0.4,0.6
		C1542.6,256.2,1539.7,260.4,1536.8,261.1z"/>
	<path class="st1" d="M1640.1,202.2c-0.4-1.3-2.4-2.9-3.8-2.7c-9.9,1.7-16.1,12.1-20.6,19.8l-0.1,0.1c-1.7,2.9-3.4,6-5,9.4
		c0.1-1.4,0.3-2.9,0.5-4.4c0.6-5,1.3-10.2,0.1-14.9l0,0c-0.1-0.5-0.6-1.1-1.2-1.3c-0.4-0.1-0.9,0.1-1.2,0.5c-1,1.6-1.4,3.5-1.7,5
		c-0.1,0.1-0.2,0.2-0.3,0.4c-1.1,1.9-2.3,3.8-3.5,5.7c-4.7,7.7-9.5,15.6-13.8,23.6c0.5-3.4,1-6.8,1.5-10.1
		c0.8-5.5,1.6-11.3,2.6-16.8v-0.1c0.1-1.7-1.8-3.3-3.2-3.4c-1-0.1-1.7,0.4-1.9,1.4c-2.9,13.2-8.2,24.8-15.9,34.6
		c-0.2,0.2-0.4,0.5-0.6,0.8c-0.4,0.5-1.4,1.9-1.8,2c0,0-0.2-0.1-0.5-0.7c-0.2-0.5-0.2-2.1-0.1-2.9c0-0.3,0-0.6,0-0.8
		c-0.1-4.3,0-8.2,0.4-11.9c0.7-7.3,2.5-14.6,4.1-20.9c0.4-1.1-0.8-2.5-1.7-2.9c-0.7-0.3-1.5,0-1.8,0.7c-3.3,8-5.3,17.3-5.9,27.6
		c0,0.5-0.1,1.1-0.1,1.8c-0.4,5-1,14.3,5.4,15.4c3.5,0.6,5.9-2.6,7.6-4.9l0.1-0.1c2.1-2.7,4-5.6,5.8-8.6c-0.6,3.7-1.1,7.2-1.6,10.4
		c-0.2,1.7,1.7,3.3,3.1,3.6c0.1,0,0.3,0,0.4,0c0.9,0,1.6-0.6,1.8-1.5c0.1-0.4,0.1-0.7,0.2-1.1l0.1-0.5c4.8-7.3,9.3-15,13.6-22.5
		c1.5-2.6,3.1-5.3,4.6-7.9c-0.2,1.7-0.4,3.3-0.6,5l-2.4,20.3c-0.2,1.5,1.4,3.1,3,3.5c1.2,0.3,2.2-0.2,2.6-1.4
		c2.9-9.8,6.7-19,11.5-27.3c4.9-8.5,10.1-16.4,19-19.7C1640,203.9,1640.4,203.1,1640.1,202.2z"/>
	<path class="st1" d="M1475.7,378.4c0.2-1.5-1.6-3.5-3-3.8l0,0c-10.9-1.6-22-2.6-32.8-3.5l-2.9-0.3c16.1-7.2,36.7-20.9,44.3-45.1
		c2.3-7.3,5-21-2.4-31.2c-7.8-10.6-21.1-8.4-31-4.7c-12.9,4.9-24.2,13.6-32.6,25.4c-0.6,1,0.4,2.3,1.1,2.8c0.8,0.5,1.5,0.3,1.8-0.2
		c8.3-10.9,19.4-19.2,32-23.9c7.2-2.6,16.3-5.1,22.4-0.3c5.8,4.6,5.9,13.9,5.6,17.7c-1.5,20.8-16,39.7-39.8,51.9l0.1-0.3
		c0.9-4.7,1.9-9.6,2.9-14.3c0.7-3.5,1.4-6.9,2.2-10.4c2.5-11.9,5.1-24.2,6.9-36.5c0.2-1.1-1.1-2.7-2.2-3.1c-0.7-0.3-1.5,0-1.9,0.6
		c-0.9,1.4-1.9,2.7-2.9,4.1l-0.7,1c-0.6,0.8,0.2,2,0.7,2.5c0.3,0.2,0.5,0.3,0.8,0.3c-2.3,9.4-4.2,19-6.1,28.4
		c-0.7,3.7-1.5,7.4-2.3,11.1c-0.7,3.4-1.4,6.8-2.1,10.1c-0.7,3.2-1.4,6.4-2,9.6c-2.9,1.2-5.9,2.3-8.7,3.4c-1.1,0.3-1.6,1.1-1.5,2.1
		c0.2,1.5,2.1,3.1,3.4,3.2l4.9,0.5c-0.1,0.5-0.2,1.1-0.4,1.6c-1.2,5.4-2.5,10.9-2.8,16.3c-0.1,1.4,1.4,3,2.7,3.3c0.1,0,0.3,0,0.4,0
		c0.7,0,1.3-0.4,1.6-1.2c1.9-5.5,3-11.4,4-17.1c0.1-0.8,0.3-1.5,0.4-2.3l4.1,0.4c11,1.2,22.4,2.5,33.6,3.3
		C1475,380,1475.6,379.2,1475.7,378.4z"/>
	<path class="st1" d="M1482.8,378.4c0,0.1,0,0.1,0,0.2l0,0c0,0.3-0.1,0.6-0.2,0.8c-0.1,0.4-0.2,0.7-0.2,1c-0.3,1.6,1.4,3.1,2.8,3.5
		c0.2,0,0.4,0.1,0.6,0.1c0.9,0,1.6-0.5,1.8-1.4c3.3-14.1,5.5-27.8,6.4-40.7c0-0.2,0-0.3-0.1-0.4c-0.2-0.5-1-1.9-2.3-1.9l0,0
		c-1.9,0.2-2,1.5-2.1,2.5c0,0.3,0.2,0.9,0.6,1.3l-1,5.2C1487.1,358.4,1485.1,368.5,1482.8,378.4z"/>
	<path class="st1" d="M1521.9,380.2c0.1,0,0.3,0,0.4,0c0.9,0,1.6-0.6,1.8-1.5c2.5-12.5,4.6-25.2,6.8-37.5c2.1-12.3,4.3-25,6.8-37.5
		c0.2-1.7-1.7-3.4-3.1-3.6c-1-0.2-1.9,0.4-2,1.4c-2.1,10-4.6,20.6-7.7,33.4c-0.3,1.3-0.7,2.7-1,4c-0.2-0.4-0.4-0.8-0.6-1.2
		c-1.7-3.1-5.2-6-9.3-5.5c-3.7,0.4-6.5,3.1-8.6,8.5c-2.1,5.4-3.4,11.5-3.9,17.9c-0.2,3.5-0.6,15,4.3,18.4c1.7,1.2,3.9,1.2,6.3,0.1
		c3.7-1.7,6.2-6,8.1-9.9c-0.5,3.2-1,6.4-1.4,9.5C1518.5,378.3,1520.5,379.9,1521.9,380.2z M1514.7,364.9c-1.2,2.3-2.5,4.3-3.7,5.8
		l-0.2,0.2c-1.2,1.3-1.6,1.7-2.8,1.2c-1.2-0.5-1.3-0.9-1.4-2.4l-0.1-0.5c-0.7-5.2-0.5-10.8,0.6-16.8c0.9-4.5,2-10.2,5-13.7
		c1.1-1.3,2.6-2.1,4-2.1c0.2,0,0.3,0,0.5,0c1.4,0.2,2.6,1.1,3.5,2.8c1.2,2.4,0.9,5.6,0.6,8.4c-0.1,0.5-0.1,1.1-0.2,1.7
		c0,0.2,0.1,0.4,0.2,0.6C1519.1,355.6,1517.2,360.4,1514.7,364.9z"/>
	<path class="st1" d="M1575.5,347.7c-1.4-0.5-2.2,0.1-2.5,0.8c-2.3,4.7-4.8,8.6-7.6,11.8c-2.6,2.9-8.6,9.8-13.3,9.1
		c-4.4-0.7-5.1-7.4-4.9-13.1c7-3.1,13.1-8.3,17.3-14.5c2.9-4.2,5.5-9.2,3.6-14c-1.2-3.3-4.1-5.5-7.3-5.7
		c-5.9-0.2-10.1,6.9-12.1,10.4c-3,5.2-4.9,10.6-5.8,16.1c-0.3,1.5-0.5,3.1-0.6,4.8c-2.2,1-4.5,1.7-6.9,2.4c-0.6,0.2-1.1,0.8-0.8,1.7
		c0.2,0.8,1.1,1.9,2.1,1.7c1.8-0.2,3.7-0.6,5.5-1.2c0.3,8.8,3.6,14.3,9.5,15.8c0.8,0.2,1.5,0.3,2.3,0.3c5.2,0,9.7-4.2,12.9-7.1
		c4.8-4.6,8.5-9.9,11.1-15.8C1578.4,349.7,1576.8,348.2,1575.5,347.7z M1551,339.1c1.1-2.5,4.5-9.9,8.9-12.2
		c1.3-0.7,2.3-0.8,2.8-0.2c1.3,1.2,0.8,5.7-0.2,7.9c-0.9,2.1-2.3,4.2-4.3,6.7c-3,3.7-6.5,6.7-10.7,9.3
		C1548.2,346.7,1549.4,342.9,1551,339.1z"/>
	<path class="st1" d="M1534.4,204.5c0.2,0,0.3,0.1,0.4,0.1c0.6,0,1.1-0.3,1.4-0.9l0,0c1.2-2.3,1.8-4.9,2.3-7.4
		c0.1-0.7,0.3-1.4,0.4-2.1c0.8-3.5,1.6-7.2,2.5-10.7l0.1-0.2c1.6-6.7,3.2-13.7,4.6-20.5c0.8-3.3,1.5-6.5,2.3-9.8
		c0.9-3.9,1.8-7.7,2.7-11.6c4.8-1.3,10.1-2.1,15.9-2.5c1.6-0.1,2-1.2,2-2c-0.1-1.6-2.1-3.6-4-3.5c-4.5,0.2-8.8,0.7-12.8,1.6
		c1-4.8,1.9-9.8,2.7-14.8c0.2-1-1-2.5-1.9-2.7c-0.7-0.2-1.3,0.2-1.4,0.8c-1.9,5.8-3.4,11.7-5.1,18.1c-3.9,1.1-7.6,2.5-11.1,4.1
		c-0.9,0.5-1.2,1.5-0.8,2.7c0.1,0.5,0.5,1.7,1.6,2.1c2.4,0.7,3.7,0.1,5.4-0.6c0.4-0.2,0.9-0.4,1.5-0.6c0.6-0.3,1.3-0.5,2-0.7
		c-1,4.1-1.9,8.2-2.8,12.3l-1.1,4.9c-0.8,3.4-1.6,6.9-2.4,10.3c-0.8,3.5-1.7,6.9-2.4,10.3c-0.7,3-1.4,5.9-2.1,8.8l-0.4,1.9
		c-0.2,0.8-0.4,1.5-0.6,2.3c-0.6,2.4-1.3,4.9-1.1,7.4C1532.1,202.6,1533.2,204.2,1534.4,204.5z"/>
	<path class="st1" d="M1454,175.5c-4.5,8.1-7,20.4-3.1,28.2c1.2,2.4,2.8,3.7,4.6,3.8c4.7,0.3,9.7-7,12.3-11c0.2-0.4,0.5-0.7,0.6-0.9
		c1.6-2.2,3.1-4.5,4.5-6.8c-0.1,0.4-0.3,0.8-0.4,1.2c-1.6,4.9-3.3,9.9-3.7,14.9c-0.1,1.3,1.3,2.9,2.6,3.2c0.2,0,0.3,0.1,0.5,0.1
		c0.7,0,1.3-0.4,1.6-1.1c0.1-0.3,0.2-0.5,0.3-0.8c0.2-0.4,0.4-0.9,0.5-1.4c1.9-2.6,3.7-5.3,5.4-8c2.6-3.8,5.2-7.8,8.1-11.6
		c4.1-5.5,8.6-10.8,13-15.9c-0.3,1.5-0.6,3-0.9,4.5c-0.6,3-1.2,6.2-1.9,9.2c-1.9,7.8-3.7,14.8-5.8,21.4c-0.5,1.5,1.2,3,2.5,3.5
		c1.2,0.4,2.3-0.1,2.6-1.1c6.2-18.3,17.5-34.1,32.7-45.6c0.5-0.4,0.8-1.1,0.7-1.7c-0.2-1.2-1.3-2.2-2.4-2.6
		c-0.8-0.3-1.6-0.2-2.2,0.2c-8.8,6.7-16.2,14.6-22.2,23.5c1.2-5.8,2.3-11.8,2.3-17.7c0-0.9-1.3-2.4-2.3-2.6c-0.5,0-0.9,0.2-1.2,0.5
		c-0.5,0-0.9,0.1-1.3,0.4c-6.6,6.8-12.5,14.4-17.3,20.9c-2.6,3.5-4.7,6.5-6.6,9.3c0.3-1.5,0.7-3,1-4.4c1.9-7.1,3.7-14.3,5.5-21.3
		c0.3-1.3-1.1-2.8-2.2-3.1c-0.8-0.2-1.6,0.1-1.9,0.9c-3,7.5-7,15.3-12,23c-2.5,3.8-4.8,7.1-7.3,10.1c-0.2,0.3-0.5,0.6-0.7,1
		c-1.1,1.5-2.2,3-3.5,4.1c-0.6,0.6-1.1,0.7-1.2,0.7c-0.1-0.1-0.9-0.5-1.3-4c-1.6-15.8,7.7-30.3,23.7-37.1c0.5-0.2,0.9-0.8,0.7-1.6
		c-0.2-0.8-1.2-2.1-2.4-1.9C1467.2,160.2,1458.9,166.7,1454,175.5z"/>
	<path class="st1" d="M1537.3,410c-10.3-1.3-21.9,0.6-32.1,2.3l-1.5,0.2c-11.7,1.9-23.2,4.9-34,8.8c-0.4,0.2-0.9,0.3-1.4,0.4
		c-2.4,0.7-5.9,1.7-5,5.6c0.5,1.7,2.9,4.2,5,4.2c0.1,0,0.1,0,0.2,0c1.8,0,2.6-0.9,2.9-1.5c0.5-0.9,0.5-2,0.1-3.2
		c2.6-0.4,5.3-1.4,8-2.4c2-0.7,3.8-1.4,5.5-1.8c6.2-1.6,11.8-2.9,17.1-3.8c6.2-1.1,12.3-1.9,18.6-2.4c2.8-0.2,5.6-0.3,8.4-0.3
		c3.4-0.1,7-0.1,10.4-0.5c1.4-0.2,1.9-1,1.9-1.8C1541.3,412.4,1538.7,410.2,1537.3,410z"/>
</g>
</svg>
