<?xml version="1.0" encoding="utf-8"?>
<!-- Generator: Adobe Illustrator 21.1.0, SVG Export Plug-In . SVG Version: 6.00 Build 0)  -->
<!DOCTYPE svg PUBLIC "-//W3C//DTD SVG 1.1//EN" "http://www.w3.org/Graphics/SVG/1.1/DTD/svg11.dtd">
<svg version="1.1" id="Layer_1" xmlns="http://www.w3.org/2000/svg" xmlns:xlink="http://www.w3.org/1999/xlink" x="0px" y="0px"
	 viewBox="0 0 122.9 121.6" style="enable-background:new 0 0 122.9 121.6;" xml:space="preserve">
<style type="text/css">
	.st0{fill:#223063;}
	.st1{fill:#222F63;}
	.st2{fill:#FFFFFF;}
	.st3{fill:#1C1D1D;}
	.st4{fill:#DEE5EB;}
	.st5{fill:#1D1D1D;}
	.st6{fill:#1D1D1B;}
</style>
<rect x="-0.1" y="0.1" class="st1" width="122.9" height="121.2"/>
<path class="st2" d="M42.5,81.9c-0.8,1.9-2.2,2.9-4,2.9c-1.1,0-2-0.3-2.8-1l1.1-2.1c0.6,0.4,1,0.6,1.6,0.6c0.8,0,1.5-0.4,1.9-1.4
	l0.4-0.9l-5.1-12.1h2.8l3.7,9.3l3.4-9.3h2.7L42.5,81.9z"/>
<path class="st2" d="M59.8,69.9l-1.5,1.7c-0.9-0.9-2-1.4-3.5-1.4c-2.1,0-3.7,1.6-3.7,3.9s1.5,3.9,3.7,3.9c1.5,0,2.8-0.5,3.6-1.5
	l1.5,1.5c-1.1,1.5-2.9,2.3-5.2,2.3c-3.7,0-6.2-2.5-6.2-6.2c0-3.7,2.5-6.2,6.2-6.2C56.9,67.8,58.7,68.6,59.8,69.9"/>
<path class="st2" d="M34.3,69.9l-1.5,1.7c-0.9-0.9-2-1.4-3.5-1.4c-2.1,0-3.7,1.6-3.7,3.9s1.5,3.9,3.7,3.9c1.5,0,2.8-0.5,3.6-1.5
	l1.5,1.5c-1.1,1.5-2.9,2.3-5.2,2.3c-3.7,0-6.2-2.5-6.2-6.2c0-3.7,2.5-6.2,6.2-6.2C31.4,67.8,33.2,68.6,34.3,69.9"/>
<path class="st2" d="M34.3,88.4l-1.5,1.7c-0.9-0.9-2-1.4-3.5-1.4c-2.1,0-3.7,1.6-3.7,3.9s1.5,3.9,3.7,3.9c1.5,0,2.8-0.5,3.6-1.5
	l1.5,1.5c-1.1,1.5-2.9,2.3-5.2,2.3c-3.7,0-6.2-2.5-6.2-6.2c0-3.7,2.5-6.2,6.2-6.2C31.4,86.4,33.2,87.1,34.3,88.4"/>
<rect x="62.1" y="63.1" class="st2" width="2.7" height="17.1"/>
<path class="st2" d="M67.9,67.9h2.6v12.3h-2.6V67.9z M70.8,64.4c0,0.9-0.7,1.6-1.5,1.6c-0.9,0-1.5-0.7-1.5-1.6
	c0-0.9,0.7-1.6,1.5-1.6C70.1,62.8,70.8,63.5,70.8,64.4"/>
<path class="st2" d="M85.5,72.6v7.6h-2.7v-6.9c0-1.8-1.1-3-3-3c-2,0-3.3,1.4-3.5,3.3v6.5h-2.7V67.9h2.7v2.4c0.9-1.7,2.5-2.4,4.5-2.4
	C83.8,67.8,85.5,69.6,85.5,72.6"/>
<path class="st2" d="M97.1,73.7c0-2.2-1.5-3.8-3.5-3.8c-2.1,0-3.6,1.6-3.6,3.8c0,2.2,1.5,3.8,3.6,3.8C95.6,77.5,97.1,76,97.1,73.7
	 M99.7,79c0,3.5-2.5,5.7-6.4,5.7c-1.9,0-3.6-0.6-5.1-1.6l1.1-1.9c1.2,0.9,2.4,1.3,3.9,1.3c2.3,0,3.9-1.4,3.9-3.5v-1.5
	c-0.8,1.3-2.2,2.1-4.1,2.1c-3.3,0-5.5-2.4-5.5-5.9c0-3.5,2.2-5.8,5.5-5.8c1.9,0,3.3,0.7,4.2,2.1v-2h2.6V79z"/>
<path class="st2" d="M39.1,92.8c0,2.2,1.5,3.8,3.6,3.8c2.1,0,3.5-1.5,3.5-3.8c0-2.2-1.5-3.7-3.5-3.7C40.6,89,39.1,90.6,39.1,92.8
	 M48.7,92.8c0,3.5-2.5,5.9-6,5.9c-3.6,0-6.1-2.4-6.1-5.9c0-3.5,2.5-5.9,6.1-5.9C46.2,86.9,48.7,89.3,48.7,92.8"/>
<path class="st2" d="M70.2,91.3v7.2h-2.5V92c0-1.8-1-2.8-2.7-2.8c-2,0.1-3.2,1.6-3.2,3.6v5.7h-2.5V92c0-1.8-1-2.8-2.7-2.8
	c-2,0.1-3.2,1.6-3.2,3.6v5.7h-2.5V87h2.5v2.2c0.8-1.6,2.3-2.3,4.2-2.3c2.1,0,3.5,1,4,2.8c0.7-1.9,2.3-2.8,4.4-2.8
	C68.6,86.9,70.2,88.6,70.2,91.3"/>
<path class="st2" d="M88.7,38.1L88.7,38.1c3.1,0,5.5-2.5,5.5-5.5c0-3.1-2.5-5.5-5.6-5.5h-7.9v11.1L88.7,38.1z M80.8,53.1h9.6
	c3.1,0,5.6-2.5,5.6-5.5c0-3.1-2.5-5.5-5.6-5.5l-9.6,0V53.1z M90.4,57H76.8V23.1h11.8c5.2,0,9.5,4.2,9.5,9.5c0,2.7-1.1,5.1-3,6.9
	c2.8,1.6,4.6,4.7,4.6,8.1C99.8,52.8,95.6,57,90.4,57"/>
<path class="st2" d="M61.8,38.2L61.8,38.2c3.1,0,5.6-2.5,5.6-5.6c0-3.1-2.5-5.6-5.6-5.6h-7.9v11.1L61.8,38.2z M53.9,53.2h9.6
	c3.1,0,5.6-2.5,5.6-5.6s-2.5-5.6-5.6-5.6l-9.6,0V53.2z M63.5,57.1H49.9v-34h11.9c5.2,0,9.5,4.3,9.5,9.5c0,2.7-1.1,5.2-3,6.9
	c2.8,1.7,4.7,4.7,4.7,8.2C73,52.9,68.7,57.1,63.5,57.1"/>
<path class="st2" d="M21.2,96.3c0,1.2-1,2.2-2.2,2.2s-2.2-1-2.2-2.2c0-1.2,1-2.2,2.2-2.2S21.2,95.1,21.2,96.3"/>
<polygon class="st2" points="29.2,23.1 27,23.1 28.1,27.1 30.3,27.1 "/>
<polygon class="st2" points="31.2,38.2 32.3,42.1 34.5,42.1 33.4,38.2 "/>
<polygon class="st2" points="34.3,53.2 27,53.2 27,42.1 31.2,42.1 30.1,38.2 27,38.1 27,27.1 25.8,23.1 23,23.1 23,57.1 35.4,57.1 
	"/>
<path class="st2" d="M41.4,39.5c1.8-1.7,3-4.2,3-6.9c0-5.2-4.3-9.5-9.5-9.5h-1.2l1.1,3.9h0.1c3.1,0,5.6,2.5,5.6,5.6
	c0,3.1-2.5,5.6-5.5,5.6h0l-0.3,0l1.1,3.9l0.9,0c3.1,0,5.6,2.5,5.6,5.6c0,3.1-2.5,5.6-5.6,5.6h-1.1l1.1,3.9h0c5.2,0,9.5-4.3,9.5-9.5
	C46.1,44.2,44.2,41.2,41.4,39.5"/>
<polygon class="st2" points="30.3,23.1 31.4,27.1 33.7,27.1 32.6,23.1 "/>
</svg>
