<?xml version="1.0" encoding="utf-8"?>
<!-- Generator: Adobe Illustrator 21.1.0, SVG Export Plug-In . SVG Version: 6.00 Build 0)  -->
<!DOCTYPE svg PUBLIC "-//W3C//DTD SVG 1.1//EN" "http://www.w3.org/Graphics/SVG/1.1/DTD/svg11.dtd">
<svg version="1.1" id="Layer_1" xmlns="http://www.w3.org/2000/svg" xmlns:xlink="http://www.w3.org/1999/xlink" x="0px" y="0px"
	 viewBox="0 0 638.2 164" style="enable-background:new 0 0 638.2 164;" xml:space="preserve">
<style type="text/css">
	.st0{fill:#223063;}
	.st1{fill:#222F63;}
	.st2{fill:#FFFFFF;}
	.st3{fill:#1C1D1D;}
	.st4{fill:#DEE5EB;}
	.st5{fill:#1D1D1D;}
	.st6{fill:#1D1D1B;}
</style>
<g>
	<path class="st4" d="M80.4,25.1C78,20.4,70.2,9.7,49.1,11.9C32.7,13.7,16,20.9,2,32.3c-0.5,0.4-0.7,1.3,0.1,2.3
		c0.7,0.9,1.6,1.1,2.3,0.6C15.3,26.6,28,20.5,41.3,17.4c10.7-2.5,29.6-4.6,35.5,8.9c4.3,9.8,1.1,21.7-9.8,36.4
		C59.8,72.4,50.4,81,39.9,87.5c-2.6,1.6-5.2,3-8.1,4.4c1.3-6.1,2.4-11.3,3.4-16.3l0.9-4.2c3-15,6.2-30.5,8.1-45.9
		c0.1-1.1-1.2-2.4-2.1-2.6c-0.7-0.1-1.3,0.3-1.4,1c-1.8,8.4-3.4,16.9-5,25.2c-1.5,8.1-3.1,16.5-4.9,24.7c-1.4,6.6-2.9,13.3-4.6,20.6
		c-8.4,3.4-17.3,5.5-24.9,7.2c-1.1,0.3-1.4,1.1-1.3,1.8c0.2,1.2,2,2.7,3.3,2.6c6.8-0.4,14-2.1,21.4-4.9c-0.4,1.5-0.8,3-1.2,4.5
		c-1.6,5.9-3.3,12-3.7,18.1c-0.1,1.1,1.3,2.3,2.2,2.6c0.1,0,0.3,0.1,0.4,0.1c0.6,0,1.1-0.3,1.3-0.9c2.5-5.8,3.7-12.2,4.9-18.4
		c0.4-2.1,0.8-4.4,1.3-6.5l0.4-1.8c4.1-1.9,8.2-4,12.2-6.4c12.3-7.5,22.9-17.5,30.6-28.9C83.1,48.4,85.6,35.5,80.4,25.1z"/>
	<path class="st4" d="M236.1,67.2c-0.7-0.6-2.1-1.1-3-0.4c-0.1,0.1-0.4,0.4-0.5,0.9c-1.5-0.9-3-1.2-4.6-0.9
		c-6.2,1.2-11.2,11.6-12.6,14.7c-2.8,6.4-8.4,22,1.3,28.5c1.6,1.1,3.3,1.6,5,1.6c0.7,0,1.4-0.1,2.1-0.3c4.8-1.2,9.5-6.4,14.3-15.7
		C242.9,86.7,244,74.4,236.1,67.2z M235.3,89.4c-1.2,3.2-3.1,6.4-5.9,10.3l-0.5,0.6c-1.9,2.7-4.3,6-7.3,6.6
		c-1.6,0.3-2.9,0.1-3.8-0.8c-2.2-2.1-2.3-7.5-1.7-11.5c0.5-3.4,1.5-6.8,2.8-10.2c2.6-6.5,6.7-13.8,10.5-14.6
		c0.2-0.1,0.5-0.1,0.7-0.1c0.9,0,1.8,0.4,2.7,1.2c0.5,0.5,1.1,0.4,1.5,0.1C237.5,77.1,237.8,82.9,235.3,89.4z"/>
	<path class="st4" d="M290.2,58.7c-9,3.3-18.5,6.1-27.7,8.7l1.5-7.1c6.9-2.5,12.3-7.5,15.2-14.2c1.8-4,3.6-12.4,1.1-17.7
		c-1.1-2.3-2.8-3.8-5.2-4.4c-4.6-1.3-8.1,2.3-9.6,6.4c-1.5,4.3-2.4,9-3.3,13.6c-0.4,2-0.8,4.1-1.2,6.1l-1.7,7.7c-2.3,0.7-4.6,1-7,1
		c-0.6,0-1.1,0.5-1.1,1.1c0,0.7,0.8,2,1.8,2c1.8,0.1,3.7,0,5.5-0.3l-1.6,7.3c-3.6,1-7.3,2.2-11.2,3.3c-0.6,0.2-1.1,0.8-0.8,1.7
		s1.4,2,2.4,1.7c3-0.8,6-1.7,8.6-2.4l-0.6,2.7c-1.1,5-2.2,10-3.3,15c-1.1,4.8-2.3,9.7-3.4,14.5c-2.5,10.4-5.1,21.2-6.8,31.9
		c-0.3,1.5,1.5,2.9,2.8,3.2c0.2,0,0.4,0.1,0.6,0.1c0.9,0,1.6-0.5,1.9-1.4c2.6-9.4,4.5-19.3,6.4-28.8c0.8-4.3,1.7-8.7,2.6-13
		c1.8-8.6,3.7-17.2,5.5-25.8l1.4-0.4c9.8-2.9,19.9-5.8,29.9-8.1c0.7-0.2,1.2-0.6,1.3-1.2c0.2-0.8-0.2-1.7-1.1-2.5
		C292.2,58.7,291.1,58.3,290.2,58.7z M265.2,55.1L265.2,55.1c0.5-2.2,0.9-4.5,1.4-6.8c0.9-4.5,1.9-9.1,3-13.6v-0.1
		c0.3-1.3,0.7-2.6,1.3-3.7c0.8-1.4,2.2-2.7,3.4-2.7l0,0c0.8,0,1.5,0.6,2.1,1.8c1.3,2.3,0.6,6.6,0.3,8.5c-1.1,7.2-5.3,13.3-11.6,17
		L265.2,55.1z"/>
	<path class="st4" d="M339,67.2c-0.9-0.3-1.8,0.1-2.1,1l0,0c-2.6,7.5-5.6,14.6-8.8,21c-0.5,1.1-1.1,2.2-1.6,3.3
		c-2.5,5.2-5.3,11.1-9.1,15c-0.8,0.8-2,1.4-2.6,1.2c-0.4-0.1-0.6-0.7-0.6-1.1c-0.2-1.1,0.2-2.6,0.5-3.9c0.1-0.5,0.2-1,0.3-1.5
		l2.1-11.4c0.4-2,0.7-4,1.1-6c1-5.4,2-10.9,2.8-16.4c0.2-1.1-1.2-2.4-2.1-2.6c-0.7-0.1-1.3,0.3-1.5,0.9c-1.8,7.2-3.3,14.7-4.7,21.9
		c-0.6,3.1-1.2,6.1-1.8,9.2c-0.1,0.4-0.2,0.9-0.3,1.4c-0.8,3.7-2,8.8,0.1,12c0.9,1.4,2.3,2.3,4.2,2.7c1.9,0.4,4.9,0,8-4.1
		c2.6-3.4,4.7-7.3,6.7-11.1l0.6-1.2c0.1-0.2,0.2-0.3,0.3-0.5c-0.7,3.1-1.5,6.2-2.2,9.3c-4,16.7-8.1,34.1-11.4,51.2
		c-0.3,1.7,1.5,3.2,3,3.5c0.2,0,0.4,0.1,0.6,0.1c1,0,1.8-0.6,2-1.5c0.2-0.7,0.4-1.5,0.6-2.3c3.9-16.2,7.2-32.7,10.4-48.8
		c2.5-12.5,5.1-25.4,8-38.1C341.7,69.1,340.2,67.5,339,67.2z"/>
	<path class="st4" d="M368.3,66.5c-1.2,0.1-2.4,0.5-3.3,1.2c0-0.1-0.1-0.2-0.2-0.3c-0.6-0.9-1.4-1-1.9-0.7
		c-9.4,5.2-15.6,15.5-16.4,26.9c-0.3,4.5,0.1,10.8,3.5,15.1c1.8,2.3,4.8,4.1,7.9,4.1c1.4,0,2.7-0.3,4.1-1.1c5-2.9,8.7-9,11-13.4
		c2.9-5.4,4.7-11,5.3-16.7s-0.4-9.7-3.3-12.5C373.3,67.4,370.6,66.4,368.3,66.5z M373.7,79.8c-0.4,3.2-1.2,6.6-2.6,10.1
		c-1.4,3.6-3.2,7-5.3,10.1l-0.4,0.5c-1.8,2.6-4.7,6.8-7.6,7.4c-1.4,0.3-4.1-1.3-5-2.7c-0.4-0.7-0.6-1.6-0.9-2.5l-0.1-0.2
		c-0.4-1.7-0.6-3.4-0.7-5.4c-0.1-3.8,0.4-7.6,1.7-11.3c2-5.9,5.7-11.1,10.9-15.5c0.1,0.4,0.4,0.8,0.8,1.2c0.8,0.8,1.8,1,2.5,0.4
		c1.1-0.9,2.4-1.2,3.5-0.9c1.3,0.4,2.4,1.6,2.9,3.2C374,76,373.9,77.9,373.7,79.8z"/>
	<path class="st4" d="M453.1,58.6c-9.9,1.7-16.1,12.1-20.6,19.7l-0.1,0.1c-1.8,3-3.4,6.1-5,9.3c0.1-1.3,0.3-2.6,0.5-4
		c0.5-4.1,1-8.2,0.7-12.1c0.2-0.3,0.4-0.6,0.6-0.9s0.4-0.9-0.1-1.7c-0.3-0.6-0.9-1.1-1.5-1.4c-0.2-0.2-0.4-0.3-0.7-0.4
		c-0.4-0.1-0.9,0.1-1.1,0.5c-0.3,0.5-0.6,1-0.8,1.6l-1.9,3.1c-5.1,8.2-10.2,16.7-14.8,25.3c0.6-3.7,1.1-7.4,1.6-11
		c0.8-5.4,1.6-10.9,2.5-16.3c0.3-1.6-1.6-3.2-2.9-3.5c-1-0.2-1.8,0.3-2.1,1.3c-2.9,13.2-8.2,24.8-15.9,34.6
		c-0.2,0.2-0.3,0.5-0.5,0.8c-0.3,0.5-1.4,2-1.8,2l0,0c0,0-0.2-0.1-0.6-0.8c-0.2-0.4-0.2-2-0.2-2.7c0-0.4,0-0.7,0-1
		c-0.1-3.9,0-7.9,0.4-11.9c0.7-7.1,2.3-14,4.1-21c0.3-1-0.8-2.6-1.8-2.9c-0.7-0.2-1.4,0.1-1.7,0.8c-3.3,7.9-5.3,17.1-5.9,27.6
		c0,0.5-0.1,1-0.1,1.6c-0.4,5-1.1,14.4,5.4,15.5c3.4,0.6,5.6-2.4,7.3-4.5l0.4-0.5c2.1-2.7,4-5.5,5.7-8.5c-0.5,3.3-1.1,6.8-1.5,10.3
		c-0.2,1.7,1.8,3.3,3.2,3.6c0.1,0,0.3,0,0.4,0c0.9,0,1.6-0.6,1.8-1.5c0.1-0.4,0.2-0.9,0.3-1.4c4.7-7.2,9.1-14.7,13.4-22
		c1.1-1.9,2.3-3.9,3.4-5.8c-0.3,2.4-0.6,4.8-0.9,7.3l-2.4,20.3c-0.2,1.5,1.5,3.2,3.1,3.5c0.2,0,0.4,0.1,0.5,0.1
		c0.9,0,1.6-0.5,1.9-1.4c3-10.2,6.8-19.1,11.5-27.3c4.9-8.5,10.1-16.4,19-19.7c0.9-0.3,1.3-1.1,1.1-2
		C456.6,60.1,454.5,58.4,453.1,58.6z"/>
	<path class="st4" d="M544.3,54.3c5.6-17.6,0.1-27.7-2.5-31.2c-6.1-8.3-17.1-10-30.9-4.7c-13,5-24.2,13.7-32.5,25.3
		c-0.7,0.9,0.2,2.2,1,2.8c0.9,0.6,1.6,0.4,2-0.1c8.4-11,19.5-19.2,32-23.9c6.7-2.5,16.2-5.2,22.4-0.2c5.9,4.7,5.9,13.9,5.6,17.7
		c-1.5,20.8-16,39.6-39.9,51.8c0.6-3.2,1.3-6.3,1.9-9.5l1-5.1c0.8-4.1,1.7-8.2,2.6-12.2c2.4-11.3,4.9-23,6.6-34.6
		c0.2-1.1-1.1-2.7-2.2-3.1c-0.7-0.3-1.4,0-1.8,0.6c-0.7,1.2-1.5,2.2-2.4,3.3c-0.4,0.5-0.8,1.1-1.2,1.7c-0.6,0.8,0.1,1.9,0.6,2.4
		c0.3,0.3,0.6,0.4,0.9,0.4c-2.2,9-4.1,18.3-5.9,27.3c-0.8,4.1-1.7,8.1-2.5,12.2l-1.2,5.8c-1,4.7-2,9.4-3,14.1
		c-2.9,1.2-5.9,2.4-8.8,3.3c-1,0.3-1.6,1.1-1.5,2.1c0.2,1.6,2.2,3.1,3.4,3.2c1.6,0.2,3.3,0.3,4.9,0.5l-0.1,0.4
		c-1.3,5.7-2.7,11.7-3.1,17.6c-0.1,1.3,1.5,3,2.8,3.3c0.1,0,0.3,0,0.4,0c0.7,0,1.3-0.4,1.6-1.2c1.9-5.5,3-11.4,4-17.1
		c0.1-0.8,0.3-1.6,0.4-2.4l2.6,0.3c11.5,1.3,23.3,2.6,35.1,3.4c1.5,0.1,2.1-0.8,2.2-1.5c0.2-1.5-1.6-3.5-3.1-3.7
		c-11.3-1.6-22.9-2.7-34.1-3.7l-1.6-0.1l0,0C516.1,92.2,536.6,78.6,544.3,54.3z"/>
	<path class="st4" d="M554.7,68.3c-1.8,0.2-2,1.5-2.1,2.3c0,0.4,0.1,0.9,0.5,1.3c-2.3,11.4-4.6,23.2-7.3,34.9c0,0.1,0,0.1-0.1,0.2
		l-0.4,2c-0.3,1.6,1.5,3.1,2.9,3.5c0.2,0,0.4,0.1,0.5,0.1c0.9,0,1.5-0.5,1.7-1.4c3.3-14.1,5.5-27.8,6.4-40.6c0-0.7-0.4-1.4-0.8-1.8
		C555.7,68.5,555.2,68.3,554.7,68.3z"/>
	<path class="st4" d="M561.1,35.4c-0.7-0.1-1.3,0.3-1.5,0.9l0,0c-2,7.8-3.3,14-4.2,19.6c-0.2,1.3,1.4,2.9,2.5,3.1c0.1,0,0.2,0,0.3,0
		c0.7,0,1.2-0.4,1.4-1.1c1.7-7,2.8-14.3,3.6-19.9C563.4,36.9,562.1,35.6,561.1,35.4z"/>
	<path class="st4" d="M597.7,34.8c-1.1-0.2-2,0.3-2.2,1.3c-2.4,11.4-5,22.6-7.7,33.4l-0.8,3c-0.1,0.3-0.2,0.7-0.2,1
		c-0.2-0.4-0.4-0.8-0.6-1.2c-1.6-2.9-5-6-9.3-5.6c-3.6,0.4-6.5,3.2-8.6,8.5c-2.1,5.3-3.4,11.3-3.8,17.9c-0.3,4.5-0.4,15.2,4.3,18.4
		c1.7,1.2,3.8,1.2,6.3,0.1c3.7-1.7,6.2-6.1,8.1-10c-0.5,3.3-1,6.5-1.4,9.5c-0.2,1.7,1.7,3.2,3.2,3.5c0.1,0,0.3,0,0.4,0
		c0.9,0,1.6-0.6,1.8-1.5c2.5-12.7,4.7-25.7,6.9-38.3c2.1-12.1,4.2-24.5,6.6-36.8C600.9,36.6,599.1,35.1,597.7,34.8z M583.8,84.8
		c-1.8,5.9-3.7,10.6-5.9,14.7c-1,1.8-2.2,4.1-3.9,5.9c-1.3,1.4-1.6,1.8-2.9,1.3c-1.2-0.4-1.2-0.8-1.4-2.2c0-0.2,0-0.4-0.1-0.7
		c-0.6-5.5-0.4-11.1,0.6-16.7c0.9-5.1,2.1-10.3,5-13.8c1.1-1.3,2.6-2.1,4-2.1c0.1,0,0.3,0,0.4,0c1.5,0.2,2.7,1.2,3.5,2.8
		c1.2,2.5,0.9,5.8,0.5,8.8c0,0.4-0.1,0.8-0.1,1.2C583.6,84.3,583.7,84.5,583.8,84.8z"/>
	<path class="st4" d="M635.9,86.4c-1.5-0.7-2.4-0.1-2.8,0.6l0,0c-2.2,4.7-4.7,8.5-7.6,11.8c-2.6,2.9-8.7,9.8-13.3,9.1
		c-4.5-0.7-5.2-7.4-4.9-13.1c6.9-3.1,13-8.2,17.3-14.5c2.8-4.2,5.5-9.2,3.6-14c-1.3-3.2-4.2-5.5-7.3-5.7c-5.8-0.3-9.9,6.7-12.1,10.4
		c-2.9,5-4.9,10.4-5.8,16.1c-0.3,1.6-0.5,3.2-0.6,4.8c-2.2,0.9-4.4,1.7-6.8,2.4c-0.7,0.2-1,0.8-0.9,1.6c0.2,0.8,1.1,2,2.1,1.9
		c1.8-0.2,3.6-0.6,5.5-1.1c0.3,8.9,3.6,14.3,9.5,15.9c0.8,0.2,1.6,0.3,2.3,0.3c5.3,0,10-4.4,12.9-7.2c4.7-4.4,8.4-9.7,11-15.8
		C638.6,88.5,637.1,87,635.9,86.4z M611.1,77.9c1.1-2.5,4.5-10,9-12.2c1.3-0.7,2.3-0.8,2.8-0.2c1.3,1.2,0.8,5.7-0.2,7.8
		s-2.4,4.3-4.3,6.7c-2.9,3.6-6.5,6.7-10.7,9.2C608.4,85.3,609.5,81.5,611.1,77.9z"/>
	<path class="st4" d="M152.2,64c-1-1.3-2.8-2-3.9-1.2c-8.7,6.6-16.2,14.5-22.2,23.5c1.2-5.8,2.3-11.8,2.3-17.6
		c0-0.9-1.3-2.4-2.3-2.6c-0.5-0.1-0.9,0.1-1.2,0.5c-0.5,0-0.9,0.1-1.2,0.4c-6.8,7-12.8,14.9-17.3,21c-2,2.8-4.3,5.9-6.5,9.3
		c0.3-1.5,0.7-2.9,1-4.3l1.1-4.2c1.5-5.6,3-11.5,4.4-17.2c0.3-1.3-1.1-2.8-2.2-3.1c-0.9-0.3-1.6,0.1-1.9,0.9c-2.9,7.5-7,15.2-12,23
		c-2.2,3.4-4.7,6.8-7.2,10.1c-0.3,0.4-0.6,0.8-0.9,1.2c-1,1.4-2.1,2.7-3.2,3.8c-0.6,0.6-1.1,0.7-1.2,0.7c0,0-0.9-0.4-1.3-3.9
		c-1.7-16,7.4-30.2,23.7-37c0.5-0.2,0.9-0.8,0.7-1.7c-0.2-0.7-1.2-2.1-2.4-1.8c-9.1,2.3-17.5,8.9-22.3,17.5
		c-4.5,8.1-7,20.4-3.1,28.2c1.2,2.4,2.7,3.7,4.6,3.8c4.6,0.3,9.6-6.9,12.3-10.8c0.3-0.4,0.5-0.8,0.7-1.1c1.5-2.2,3-4.5,4.5-6.8
		c-0.2,0.5-0.3,1-0.5,1.4c-1.6,4.8-3.2,9.8-3.7,14.7c-0.1,1.3,1.3,2.9,2.5,3.2c0.2,0,0.3,0.1,0.5,0.1c0.7,0,1.3-0.4,1.6-1.1
		s0.6-1.5,0.9-2.3c1.9-2.6,3.7-5.3,5.4-8c2.6-3.9,5.3-7.8,8.1-11.6c4.1-5.4,8.5-10.7,12.9-15.7c-0.3,1.6-0.6,3.2-0.9,4.7
		c-0.5,2.9-1.1,5.9-1.8,8.7c-1.7,7.2-3.6,14.4-5.8,21.4c-0.5,1.6,1.2,3,2.5,3.5c0.3,0.1,0.6,0.1,0.9,0.1c0.8,0,1.5-0.5,1.8-1.3
		c6.2-18.3,17.5-34,32.6-45.6C153,66.4,153,65.2,152.2,64z"/>
	<path class="st4" d="M185.1,46.4c-4.2,0.1-8.5,0.7-12.9,1.6c1.2-5.6,2-10.3,2.7-14.8c0.1-1-1-2.4-1.9-2.6c-0.6-0.2-1.2,0.2-1.5,0.8
		c-1.7,5.1-3.3,10.9-5,18.1c-3.7,1.1-7.4,2.4-11.1,4.1c-0.9,0.4-1.3,1.5-0.9,2.7v0.1c0.2,0.5,0.5,1.6,1.5,1.9
		c2.4,0.7,3.7,0.1,5.4-0.6c0.4-0.2,0.9-0.4,1.4-0.6c0.7-0.3,1.3-0.5,2-0.7c-0.5,2.1-1,4.2-1.4,6.3c-0.8,3.7-1.7,7.3-2.5,10.9
		L156,94.3c-0.9,3.6-1.7,7.2-2.5,10.8c-0.2,0.7-0.4,1.5-0.6,2.2c-0.7,2.4-1.3,5-1.2,7.6c0.1,0.9,1.2,2.6,2.4,2.8c0.1,0,0.2,0,0.4,0
		c0.6,0,1.1-0.3,1.4-0.9c1.3-2.2,1.8-4.8,2.3-7.2c0.1-0.7,0.3-1.5,0.5-2.2c0.8-3.6,1.7-7.2,2.5-10.8l4.7-20.7
		c0.8-3.5,1.7-7.1,2.5-10.7c0.8-3.6,1.7-7.1,2.5-10.7c4.7-1.2,9.8-2,15.9-2.5c1.7-0.1,2.2-1.2,2.2-2.1
		C188.9,48.3,186.9,46.3,185.1,46.4z"/>
</g>
</svg>
