<?xml version="1.0" encoding="utf-8"?>
<!-- Generator: Adobe Illustrator 21.1.0, SVG Export Plug-In . SVG Version: 6.00 Build 0)  -->
<!DOCTYPE svg PUBLIC "-//W3C//DTD SVG 1.1//EN" "http://www.w3.org/Graphics/SVG/1.1/DTD/svg11.dtd">
<svg version="1.1" id="Layer_1" xmlns="http://www.w3.org/2000/svg" xmlns:xlink="http://www.w3.org/1999/xlink" x="0px" y="0px"
	 viewBox="0 0 122.3 68.1" style="enable-background:new 0 0 122.3 68.1;" xml:space="preserve">
<style type="text/css">
	.st0{fill:#223063;}
	.st1{fill:#222F63;}
	.st2{fill:#FFFFFF;}
	.st3{fill:#1C1D1D;}
	.st4{fill:#DEE5EB;}
	.st5{fill:#1D1D1D;}
	.st6{fill:#1D1D1B;}
</style>
<path class="st3" d="M88.1,32.4L88.1,32.4c3.1,0,5.5-2.5,5.5-5.5c0-3.1-2.5-5.5-5.6-5.5h-7.9v11L88.1,32.4z M80.2,47.4h9.6
	c3.1,0,5.6-2.5,5.6-5.5c0-3.1-2.5-5.5-5.6-5.5l-9.6,0V47.4z M89.8,51.3H76.3V17.4h11.8c5.2,0,9.5,4.2,9.5,9.4c0,2.7-1.1,5.1-3,6.9
	c2.8,1.6,4.6,4.7,4.6,8.1C99.3,47.1,95,51.3,89.8,51.3"/>
<path class="st3" d="M61.2,32.4L61.2,32.4c3.1,0,5.6-2.5,5.6-5.6c0-3.1-2.5-5.6-5.6-5.6h-7.9v11.1L61.2,32.4z M53.3,47.5h9.6
	c3.1,0,5.6-2.5,5.6-5.6c0-3.1-2.5-5.6-5.6-5.6l-9.6,0V47.5z M62.9,51.4H49.4v-34h11.9c5.2,0,9.5,4.3,9.5,9.5c0,2.7-1.1,5.2-3,6.9
	c2.8,1.7,4.6,4.7,4.6,8.2C72.4,47.1,68.2,51.4,62.9,51.4"/>
<polygon class="st3" points="28.7,17.4 26.4,17.4 27.6,21.3 29.8,21.3 "/>
<polygon class="st3" points="30.7,32.4 31.8,36.3 34,36.3 32.9,32.4 "/>
<polygon class="st3" points="33.8,47.5 26.4,47.5 26.4,36.3 30.7,36.3 29.6,32.4 26.4,32.4 26.4,21.3 25.3,17.4 22.5,17.4 
	22.5,51.4 34.9,51.4 "/>
<path class="st3" d="M40.9,33.7c1.8-1.7,3-4.2,3-6.9c0-5.2-4.3-9.5-9.5-9.5h-1.2l1.1,3.9h0.1c3.1,0,5.6,2.5,5.6,5.6
	c0,3.1-2.5,5.6-5.5,5.6h0l-0.3,0l1.1,3.9l0.9,0c3.1,0,5.6,2.5,5.6,5.6c0,3.1-2.5,5.6-5.6,5.6h-1.1l1.1,3.9h0c5.2,0,9.5-4.3,9.5-9.5
	C45.5,38.4,43.7,35.4,40.9,33.7"/>
<polygon class="st3" points="29.8,17.4 30.9,21.3 33.1,21.3 32,17.4 "/>
</svg>
