<?xml version="1.0" encoding="utf-8"?>
<!-- Generator: Adobe Illustrator 21.1.0, SVG Export Plug-In . SVG Version: 6.00 Build 0)  -->
<!DOCTYPE svg PUBLIC "-//W3C//DTD SVG 1.1//EN" "http://www.w3.org/Graphics/SVG/1.1/DTD/svg11.dtd">
<svg version="1.1" id="Layer_1" xmlns="http://www.w3.org/2000/svg" xmlns:xlink="http://www.w3.org/1999/xlink" x="0px" y="0px"
	 viewBox="0 0 100 60.4" style="enable-background:new 0 0 100 60.4;" xml:space="preserve">
<style type="text/css">
	.st0{fill:#223063;}
	.st1{fill:#222F63;}
	.st2{fill:#FFFFFF;}
	.st3{fill:#1C1D1D;}
	.st4{fill:#DEE5EB;}
	.st5{fill:#1D1D1D;}
	.st6{fill:#1D1D1B;}
</style>
<g>
	<path class="st0" d="M73.9,28.8L73.9,28.8c1.8,0,3.4-1,4.1-2.6c1.4-3.3-1-6.5-4.1-6.5h-6.5v9.1H73.9z M67.4,41.1h7.7
		c2.2,0,4.2-1.5,4.6-3.6c0.6-2.9-1.6-5.5-4.5-5.5h-7.9v9.1H67.4z M75.2,44.3H64.1V16.5h9.7c4.3,0,7.8,3.5,7.8,7.8
		c0,2.2-0.9,4.2-2.4,5.6c2.3,1.4,3.8,3.8,3.8,6.7C83,40.8,79.5,44.3,75.2,44.3"/>
	<path class="st0" d="M51.8,28.8L51.8,28.8c1.8,0,3.4-1,4.1-2.6c1.4-3.3-1-6.5-4.1-6.5h-6.5v9.1H51.8z M45.3,41.1H53
		c2.2,0,4.2-1.5,4.6-3.6c0.6-2.9-1.6-5.5-4.5-5.5h-7.9v9.1H45.3z M53.2,44.4H42.1v-28h9.4c3.9,0,7.4,2.7,8,6.6
		c0.4,2.7-0.6,5.2-2.3,6.8c2.3,1.4,3.8,3.8,3.8,6.7C61,40.9,57.5,44.4,53.2,44.4"/>
	<polygon class="st0" points="25.1,16.5 23.2,16.5 24.1,19.7 26,19.7 	"/>
	<polygon class="st0" points="26.7,28.8 27.6,32 29.4,32 28.5,28.8 	"/>
	<polygon class="st0" points="29.3,41.1 23.2,41.1 23.2,32 26.7,32 25.8,28.8 23.2,28.8 23.2,19.7 22.3,16.4 20,16.4 20,44.4 
		30.2,44.4 	"/>
	<path class="st0" d="M35.1,29.9c1.8-1.7,2.7-4.1,2.3-6.8c-0.6-3.9-4.1-6.6-8-6.6h-0.7l0.9,3.2h0.1c1.7,0,3.4,1,4.1,2.6
		c1.4,3.3-1,6.5-4.1,6.6l0,0h-0.3l0.9,3.2h0.6c2.2,0,4.2,1.5,4.6,3.6c0.6,2.9-1.6,5.5-4.5,5.5h-0.9l0.9,3.2l0,0
		c3.2,0,6.1-1.9,7.2-4.8C39.8,35.5,38.1,31.7,35.1,29.9"/>
	<polygon class="st0" points="26,16.5 26.9,19.7 28.7,19.7 27.8,16.5 	"/>
</g>
</svg>
