<?xml version="1.0" encoding="utf-8"?>
<!-- Generator: Adobe Illustrator 21.1.0, SVG Export Plug-In . SVG Version: 6.00 Build 0)  -->
<!DOCTYPE svg PUBLIC "-//W3C//DTD SVG 1.1//EN" "http://www.w3.org/Graphics/SVG/1.1/DTD/svg11.dtd">
<svg version="1.1" id="Layer_1" xmlns="http://www.w3.org/2000/svg" xmlns:xlink="http://www.w3.org/1999/xlink" x="0px" y="0px"
	 viewBox="0 0 68.3 68" style="enable-background:new 0 0 68.3 68;" xml:space="preserve">
<style type="text/css">
	.st0{fill:#223063;}
	.st1{fill:#222F63;}
	.st2{fill:#FFFFFF;}
	.st3{fill:#1C1D1D;}
	.st4{fill:#DEE5EB;}
	.st5{fill:#1D1D1D;}
	.st6{fill:#1D1D1B;}
</style>
<polygon class="st0" points="26.9,11.3 28.4,16.5 31.4,16.5 29.9,11.3 "/>
<path class="st0" d="M41.7,33.1c2.4-2.3,4-5.6,4-9.2c0-7-5.7-12.6-12.6-12.6h-1.6l1.5,5.2H33c4.1,0,7.4,3.3,7.4,7.4
	c0,4.1-3.3,7.4-7.4,7.4h0h-0.4l1.5,5.2l1.2,0c4.1,0,7.4,3.3,7.4,7.4s-3.3,7.4-7.4,7.4h-1.5l1.5,5.2h0c7,0,12.6-5.7,12.6-12.6
	C47.9,39.4,45.4,35.3,41.7,33.1"/>
<polygon class="st0" points="28.1,31.3 29.6,36.6 32.5,36.6 31.1,31.3 "/>
<polygon class="st0" points="25.4,11.3 22.4,11.3 23.9,16.5 26.9,16.5 "/>
</svg>
