<?xml version="1.0" encoding="utf-8"?>
<!-- Generator: Adobe Illustrator 21.1.0, SVG Export Plug-In . SVG Version: 6.00 Build 0)  -->
<!DOCTYPE svg PUBLIC "-//W3C//DTD SVG 1.1//EN" "http://www.w3.org/Graphics/SVG/1.1/DTD/svg11.dtd">
<svg version="1.1" id="Layer_1" xmlns="http://www.w3.org/2000/svg" xmlns:xlink="http://www.w3.org/1999/xlink" x="0px" y="0px"
	 viewBox="0 0 280.2 322" style="enable-background:new 0 0 280.2 322;" xml:space="preserve">
<style type="text/css">
	.st0{fill:#223063;}
</style>
<g>
	<path class="st0" d="M19.2,91.1c7-0.1,14.3-1.3,21.6-3.6c-0.5,1.4-0.9,2.9-1.4,4.3c-2,5.9-4,11.9-4.7,17.9c-0.2,1,1,2.4,2,2.7
		c0.2,0.1,0.4,0.1,0.6,0.1c0.5,0,1-0.3,1.3-0.8c2.7-5.6,4.3-11.8,5.9-17.8c0.6-2.2,1.1-4.5,1.8-6.6c0.1-0.4,0.2-0.7,0.3-1.1
		c0.1-0.2,0.1-0.4,0.2-0.6c3.9-1.5,8-3.4,12.5-5.7c12.6-6.7,23.7-16,32.2-27.1c11-14.7,14.1-27.1,9.4-37.8l0,0
		c-2.1-4.8-9.3-16-30.5-14.9C54,0.8,36.9,7.1,22.3,17.6c-0.6,0.4-0.8,1.3,0,2.4c0.7,1,1.6,1,2.1,0.7c11.4-8,24.5-13.4,37.8-15.6
		c24-4,32.3,3.7,35,11c3.7,10.1-0.1,21.8-11.8,35.7c-7.7,9.1-17.6,17.1-28.5,23c-3,1.6-5.7,2.9-8.3,3.9c1.5-5.4,2.9-10.8,4.4-16.1
		l0.7-2.6c4-15.4,8.2-31.2,11.1-47c0.2-1-1-2.5-2-2.7c-0.7-0.1-1.3,0.2-1.5,0.9C59.1,19.4,57,27.7,55,35.8s-4.1,16.4-6.3,24.6
		c-1.6,5.7-3.2,11.5-4.8,17.1L43,80.8c-8.4,2.8-17.1,4.4-25.4,5.8c-1.2,0.2-1.5,1-1.4,1.7C16.2,89.6,18,91.1,19.2,91.1z"/>
	<path class="st0" d="M24.7,146.1c-0.6-0.6-2.1-1.1-3-0.4c-0.1,0.1-0.4,0.4-0.5,0.8c-1.4-0.9-2.9-1.1-4.5-0.8
		c-5.8,1.2-10.7,10.7-12.5,14.8c-2.8,6.4-8.4,22,1.3,28.5c1.6,1.1,3.3,1.6,5,1.6c0.7,0,1.4-0.1,2.1-0.3c4.8-1.2,9.5-6.4,14.4-15.7
		C33.6,161.2,29.9,150.9,24.7,146.1z M21.4,149.2L21.4,149.2L21.4,149.2L21.4,149.2L21.4,149.2L21.4,149.2z M23.8,168.2
		c-1.3,3.2-3.1,6.4-5.9,10.3c-0.2,0.3-0.5,0.7-0.7,1c-1.9,2.5-4.2,5.7-7.1,6.3c-1.7,0.3-2.9,0.1-3.8-0.8c-2.1-2-2.3-7.1-1.6-11.4
		c0.5-3.4,1.4-6.8,2.8-10.2c2.6-6.5,6.7-13.8,10.5-14.7c0.2-0.1,0.5-0.1,0.7-0.1c0.9,0,1.8,0.4,2.6,1.2c0,0,0.1,0,0.1,0.1
		c0.5,0.4,1,0.2,1.2,0.1c0,0,0.1,0,0.1-0.1C26,156,26.3,161.8,23.8,168.2z"/>
	<path class="st0" d="M82.7,140.9c0.2-0.8-0.2-1.7-1-2.5c-0.9-0.9-2-1.2-2.9-0.9c-8.2,3-16.8,5.5-25.1,8l-2.5,0.7
		c0.2-0.9,0.4-1.7,0.5-2.6c0.3-1.5,0.6-3,1-4.4c6.9-2.6,12.3-7.6,15.2-14.2c1.8-4,3.6-12.3,1.1-17.6c-1.1-2.3-2.8-3.8-5.1-4.5
		c-4.9-1.4-8.2,2.6-9.6,6.4c-1.5,4.1-2.3,8.6-3.2,13c-0.4,2.2-0.9,4.5-1.4,6.7c-0.3,1.4-0.6,2.8-0.9,4.1c-0.3,1.2-0.5,2.4-0.8,3.6
		c-2.2,0.7-4.6,1-7,1c-0.3,0-0.6,0.2-0.8,0.4s-0.3,0.5-0.3,0.8c0,0.7,0.8,2,1.8,2l0,0c1.8,0.1,3.6,0,5.4-0.3l-1.6,7.3
		c-3.7,1.1-7.5,2.2-11.2,3.4c-0.7,0.2-1,0.9-0.8,1.6c0.2,0.8,1.2,2,2.4,1.8c2.9-0.8,5.8-1.6,8.6-2.4c-0.6,2.7-1.2,5.4-1.8,8
		c-0.7,3.2-1.4,6.4-2.1,9.6c-1.1,5.1-2.4,10.3-3.6,15.3c-2.4,10.2-5,20.7-6.6,31.1c-0.2,1.5,1.5,2.9,2.9,3.1c0.2,0,0.4,0.1,0.5,0.1
		c0.9,0,1.6-0.5,1.9-1.4c2.7-9.9,4.7-20.1,6.6-30c0.8-3.9,1.6-7.8,2.4-11.7l5.6-25.8c10.2-3,20.8-6.1,31.2-8.5
		C82.4,141.9,82.7,141.2,82.7,140.9z M53.7,134C53.8,134,53.8,134,53.7,134c0.6-2.6,1.1-5.1,1.6-7.7c0.9-4.2,1.7-8.6,2.8-12.8
		c0.3-1.2,0.6-2.7,1.3-3.8c0.8-1.4,2.2-2.7,3.4-2.7l0,0c0.8,0,1.5,0.6,2.1,1.8c1.2,2.2,0.6,6.1,0.3,8.4c-1.2,7.2-5.4,13.3-11.6,17
		C53.7,134.2,53.7,134.1,53.7,134z"/>
	<path class="st0" d="M136,200.9c-0.3,1.7,1.5,3.2,3,3.5c0.2,0.1,0.5,0.1,0.7,0.1c1,0,1.7-0.5,2-1.5c0.2-0.6,0.4-1.5,0.5-2.4
		c3.8-16,7.2-32.5,10.4-48.4c2.5-12.6,5.2-25.6,8-38.4v-0.1c0.1-1.4-1.5-3-2.8-3.3c-0.9-0.2-1.6,0.3-1.9,1.1
		c-2.6,7.6-5.6,14.6-8.7,21c-0.6,1.1-1.1,2.3-1.7,3.5c-2.5,5.2-5.3,11.1-9,14.9c-0.9,0.9-2,1.4-2.6,1.2c-0.4-0.1-0.6-0.7-0.6-1.2
		c-0.2-1,0.2-2.5,0.5-3.8c0.1-0.5,0.3-1.1,0.3-1.5l2.1-11.4c0.4-2.4,0.9-4.8,1.3-7.2c0.9-4.9,1.9-10.1,2.6-15.1
		c0.2-1-0.8-1.9-1.1-2.1c-0.6-0.5-1.2-0.7-1.7-0.5c-0.4,0.2-0.7,0.5-0.7,0.9c-1.8,7.5-3.4,15.3-4.9,22.8c-0.5,2.8-1.1,5.5-1.7,8.3
		c-0.1,0.5-0.2,1-0.3,1.6c-0.8,3.6-1.9,8.6,0.1,11.8c0.9,1.4,2.3,2.3,4.2,2.7c3.8,0.8,6.6-2.3,8-4.2c2.3-3.1,4.2-6.6,6.1-10
		c0.4-0.7,0.8-1.5,1.2-2.2c0.1-0.2,0.2-0.5,0.4-0.7c-0.8,3.4-1.6,6.8-2.4,10.2C143.3,166.9,139.3,183.9,136,200.9z"/>
	<path class="st0" d="M192.3,141.8c3-5.6,4.7-11.2,5.3-16.8c0.5-5.5-0.6-9.7-3.4-12.4l0,0c-1.9-1.8-4.4-2.9-6.7-2.7
		c-1.2,0.1-2.4,0.5-3.3,1.2c-0.1-0.2-0.2-0.3-0.3-0.5c-0.6-0.8-1.3-0.7-1.7-0.5c-9.4,5.2-15.7,15.5-16.4,26.9
		c-0.4,6.6,0.8,11.6,3.5,15.1c1.9,2.3,4.8,4.1,8,4.1c1.3,0,2.7-0.3,4.1-1.1C185.1,153,188.8,148.5,192.3,141.8z M176.8,151.5
		c-1.5,0.3-4.1-1.3-5-2.7c-0.5-0.7-0.6-1.6-0.8-2.5v-0.1c-0.5-2-0.7-3.8-0.7-5.4c-0.1-3.9,0.5-7.7,1.7-11.4c2-5.8,5.6-11,10.8-15.5
		c0.2,0.4,0.5,0.8,0.8,1.1c0.8,0.8,1.8,0.9,2.5,0.3c1.1-0.9,2.3-1.2,3.5-0.8c1.3,0.4,2.4,1.5,2.9,3.2c0.6,1.8,0.3,3.8,0.2,5.5
		c-0.3,3-1.2,6.2-2.5,10.2c-1.4,3.8-3.2,7.2-5.4,10.2l-0.4,0.6C182.6,146.6,179.6,150.8,176.8,151.5z"/>
	<path class="st0" d="M280.1,92.7c-0.4-1.3-2.4-2.9-3.8-2.7c-9.9,1.7-16.1,12.1-20.6,19.8l-0.1,0.1c-1.7,2.8-3.4,6-5,9.4
		c0.1-1.4,0.3-2.9,0.5-4.4c0.6-5,1.3-10.2,0.1-14.9l0,0c-0.1-0.5-0.6-1.1-1.2-1.3c-0.4-0.1-0.9,0.1-1.2,0.5c-0.9,1.5-1.4,3.3-1.7,5
		c-0.1,0.1-0.2,0.2-0.3,0.4l0,0c-1.1,1.9-2.3,3.8-3.4,5.6c-4.7,7.7-9.5,15.6-13.8,23.7c0.5-3.4,1-6.8,1.5-10.2
		c0.8-5.5,1.6-11.3,2.6-16.8v-0.1c0.1-1.7-1.8-3.3-3.2-3.4c-1-0.1-1.7,0.4-1.9,1.4c-2.9,13.2-8.2,24.8-15.9,34.6
		c-0.2,0.2-0.4,0.5-0.6,0.8c-0.4,0.5-1.4,1.9-1.8,2c0,0-0.2-0.1-0.5-0.7c-0.2-0.5-0.2-2.1-0.1-2.9c0-0.3,0-0.6,0-0.8
		c-0.1-4.3,0-8.1,0.4-11.9c0.7-7.3,2.5-14.6,4.1-20.9c0.4-1.1-0.8-2.5-1.7-2.9c-0.7-0.3-1.5,0-1.8,0.7c-3.3,8-5.3,17.3-5.9,27.6
		c0,0.5-0.1,1.1-0.1,1.8c-0.4,5.3-1,14.3,5.4,15.4c3.5,0.6,5.9-2.6,7.6-4.9l0.1-0.1c2.1-2.7,4-5.6,5.8-8.6
		c-0.6,3.7-1.1,7.1-1.6,10.4c-0.2,1.7,1.7,3.3,3.1,3.6c0.1,0,0.3,0,0.4,0c0.9,0,1.6-0.6,1.8-1.5c0.1-0.5,0.2-1.1,0.3-1.6
		c4.8-7.3,9.2-14.9,13.5-22.3c1.5-2.7,3.1-5.4,4.7-8.1c-0.2,1.7-0.4,3.3-0.6,5l-2.4,20.3c-0.2,1.5,1.4,3.1,3,3.5
		c0.2,0,0.4,0.1,0.6,0.1c0.9,0,1.7-0.5,2-1.4c2.9-9.8,6.7-19,11.5-27.3c4.9-8.5,10.1-16.4,19-19.7C279.9,94.4,280.4,93.6,280.1,92.7
		z"/>
	<path class="st0" d="M115.7,268.8c0.2-1.5-1.6-3.5-3.1-3.8c-10.9-1.6-22-2.6-32.8-3.5l-2.9-0.3c16.1-7.2,36.7-20.9,44.3-45.1l0,0
		c2.3-7.3,5-21-2.4-31.2c-7.8-10.6-21.1-8.4-31-4.7c-12.9,4.9-24.2,13.6-32.6,25.4c-0.6,1,0.4,2.3,1.1,2.8c0.8,0.5,1.5,0.3,1.8-0.2
		c8.3-10.9,19.4-19.2,32-23.9c7.2-2.6,16.3-5.1,22.4-0.3c5.8,4.6,5.9,13.9,5.6,17.7c-1.5,20.8-16,39.7-39.8,51.9l0.1-0.4
		c0.9-4.7,1.9-9.5,2.9-14.2c0.7-3.5,1.4-6.9,2.2-10.4c2.5-11.9,5.1-24.3,6.9-36.5c0.2-1.1-1.1-2.7-2.2-3.1c-0.7-0.3-1.5,0-1.9,0.6
		c-0.9,1.4-1.9,2.7-2.9,4.1l-0.7,1c-0.6,0.8,0.2,2,0.7,2.5c0.3,0.2,0.6,0.3,0.8,0.3c-2.3,9.4-4.2,19-6.1,28.3
		c-0.8,3.7-1.5,7.4-2.3,11.1c-0.7,3.4-1.4,6.8-2.1,10.1c-0.7,3.2-1.4,6.4-2,9.6c-2.9,1.2-5.9,2.3-8.7,3.4c-1.1,0.3-1.6,1.1-1.5,2.1
		c0.2,1.5,2.1,3.1,3.4,3.2l4.9,0.5c-0.1,0.5-0.2,1.1-0.4,1.6c-1.2,5.3-2.5,10.9-2.8,16.3c-0.1,1.4,1.4,3,2.7,3.3c0.1,0,0.3,0,0.4,0
		c0.7,0,1.3-0.4,1.6-1.2c1.9-5.5,3-11.4,4-17.1c0.1-0.8,0.3-1.5,0.4-2.3l4.1,0.4c11,1.2,22.4,2.5,33.6,3.3
		C115,270.4,115.6,269.6,115.7,268.8z"/>
	<path class="st0" d="M122.8,268.9c0,0.1,0,0.2,0,0.2c0,0.3-0.1,0.6-0.2,0.9c-0.1,0.4-0.2,0.7-0.2,1c-0.3,1.6,1.4,3.1,2.8,3.4
		c0.2,0,0.4,0.1,0.6,0.1c0.9,0,1.6-0.5,1.8-1.4c3.3-14.1,5.5-27.8,6.4-40.7c0-0.2,0-0.3-0.1-0.4c-0.2-0.5-1-1.9-2.2-1.9h-0.1
		c-1.9,0.2-2,1.5-2.1,2.5c0,0.3,0.2,0.9,0.6,1.3l-1,5.2C127.1,248.8,125.1,258.9,122.8,268.9z"/>
	<path class="st0" d="M161.9,270.6c0.1,0,0.3,0,0.4,0c0.9,0,1.6-0.6,1.8-1.5c2.5-12.5,4.6-25.2,6.8-37.5c2.1-12.3,4.3-25,6.8-37.5
		c0.2-1.7-1.7-3.4-3.1-3.6c-1-0.2-1.8,0.4-2,1.4c-2.1,10-4.6,20.6-7.7,33.3c-0.3,1.3-0.7,2.7-1,4c-0.2-0.4-0.4-0.8-0.6-1.2
		c-1.7-3.1-5.2-6-9.3-5.5c-3.7,0.4-6.5,3.1-8.6,8.5s-3.4,11.5-3.9,17.9c-0.2,3.5-0.6,15,4.3,18.4c1.7,1.2,3.9,1.2,6.3,0.1
		c3.7-1.7,6.2-6,8.1-9.9c-0.5,3.2-1,6.4-1.4,9.5C158.5,268.8,160.5,270.4,161.9,270.6z M154.7,255.3L154.7,255.3
		c-1.2,2.3-2.5,4.3-3.8,5.8l-0.2,0.2c-1.2,1.3-1.6,1.7-2.8,1.2s-1.3-0.9-1.4-2.4l-0.1-0.5c-0.7-5.2-0.5-10.8,0.6-16.8
		c0.9-4.5,2-10.2,5-13.7c1.1-1.3,2.6-2.1,4-2.1c0.2,0,0.3,0,0.5,0c1.4,0.2,2.6,1.1,3.5,2.8c1.2,2.4,0.9,5.6,0.6,8.4
		c-0.1,0.5-0.1,1.1-0.2,1.7c0,0.2,0.1,0.4,0.2,0.6C159.1,246,157.1,250.9,154.7,255.3z"/>
	<path class="st0" d="M215.4,238.1c-1.4-0.5-2.2,0.1-2.5,0.8c-2.3,4.7-4.8,8.6-7.6,11.8c-2.6,2.9-8.6,9.8-13.3,9.1
		c-4.4-0.7-5.1-7.4-4.9-13.1c7-3.1,13.1-8.3,17.3-14.5c2.9-4.2,5.5-9.2,3.6-14c-1.2-3.3-4.1-5.5-7.3-5.7c-6-0.3-10.1,6.9-12.1,10.4
		c-3,5.2-4.9,10.6-5.8,16.1c-0.3,1.5-0.5,3.1-0.6,4.8c-2.2,1-4.5,1.7-6.9,2.4c-0.6,0.2-1.1,0.8-0.8,1.7c0.2,0.8,1.1,1.9,2.1,1.7
		c1.8-0.2,3.7-0.6,5.5-1.2c0.3,8.8,3.6,14.3,9.5,15.8c0.8,0.2,1.6,0.3,2.3,0.3c5.2,0,9.7-4.2,12.9-7.1c4.8-4.6,8.5-9.9,11.1-15.8
		C218.4,240.1,216.8,238.6,215.4,238.1z M191,229.6c1.1-2.5,4.5-9.9,8.9-12.2c1.3-0.7,2.3-0.8,2.8-0.2c1.3,1.2,0.8,5.7-0.2,7.9
		c-0.9,2.1-2.3,4.2-4.3,6.7c-3,3.7-6.5,6.7-10.7,9.3C188.2,237.1,189.3,233.3,191,229.6z"/>
	<path class="st0" d="M174.4,95c0.2,0,0.3,0.1,0.4,0.1c0.6,0,1.1-0.3,1.4-0.9c1.2-2.3,1.8-4.9,2.3-7.4c0.1-0.7,0.3-1.4,0.4-2.1
		c0.8-3.5,1.6-7.2,2.5-10.7c1.6-6.8,3.2-13.8,4.7-20.7c0.8-3.3,1.5-6.5,2.3-9.8c0.9-3.9,1.8-7.7,2.7-11.6c4.8-1.3,10.1-2.1,15.9-2.5
		c1.6-0.1,2-1.2,2-2c-0.1-1.5-2-3.5-3.9-3.5H205c-4.5,0.2-8.8,0.7-12.8,1.6c1-4.8,1.9-9.8,2.7-14.8c0.2-1-1-2.5-1.9-2.7
		c-0.7-0.2-1.3,0.2-1.4,0.8c-1.9,5.8-3.4,11.7-5.1,18.1c-3.9,1.1-7.6,2.5-11.1,4.1c-0.9,0.5-1.2,1.5-0.8,2.7
		c0.1,0.5,0.5,1.7,1.6,2.1c2.4,0.7,3.7,0.1,5.4-0.6c0.4-0.2,0.9-0.4,1.5-0.6c0.6-0.3,1.3-0.5,2-0.7c-1,4.1-1.9,8.2-2.8,12.2l-1.1,5
		c-0.8,3.4-1.6,6.9-2.4,10.3c-0.8,3.5-1.7,6.9-2.4,10.3c-0.7,2.9-1.4,5.9-2.1,8.8l-0.4,1.9c-0.2,0.8-0.4,1.5-0.6,2.3
		c-0.6,2.4-1.3,4.9-1.1,7.4C172.1,93,173.2,94.7,174.4,95z"/>
	<path class="st0" d="M94,65.9c-4.5,8.1-7,20.4-3.1,28.2c1.2,2.4,2.8,3.7,4.6,3.8c4.7,0.3,9.7-7,12.3-11c0.2-0.4,0.5-0.7,0.6-0.9
		c1.6-2.2,3.1-4.5,4.5-6.8c-0.1,0.4-0.3,0.8-0.4,1.2c-1.6,4.9-3.3,9.9-3.7,14.9c-0.1,1.3,1.3,2.9,2.6,3.2c0.2,0,0.3,0.1,0.5,0.1
		c0.7,0,1.3-0.4,1.6-1.1c0.1-0.3,0.2-0.5,0.3-0.8c0.2-0.4,0.4-0.9,0.5-1.4c1.9-2.6,3.7-5.3,5.4-8c2.6-3.8,5.2-7.8,8.1-11.6
		c4.1-5.5,8.6-10.8,13-15.9c-0.3,1.5-0.6,3-0.9,4.5c-0.6,3-1.1,6.2-1.9,9.2c-1.9,7.8-3.7,14.9-5.8,21.4c-0.5,1.5,1.2,3,2.5,3.5
		c0.3,0.1,0.6,0.1,0.8,0.1c0.8,0,1.5-0.5,1.8-1.3c6.2-18.3,17.5-34.1,32.7-45.6c0.5-0.4,0.8-1.1,0.7-1.7c-0.2-1.2-1.3-2.2-2.4-2.6
		c-0.8-0.3-1.6-0.2-2.2,0.2c-8.8,6.7-16.2,14.6-22.2,23.5c1.2-5.8,2.3-11.8,2.3-17.7c0-0.9-1.3-2.4-2.3-2.6c-0.5,0-0.9,0.2-1.1,0.5
		c-0.5-0.1-0.9,0.1-1.3,0.4l0,0c-6.6,6.8-12.5,14.4-17.3,20.9c-2.6,3.5-4.7,6.5-6.6,9.3c0.3-1.5,0.7-3,1-4.4
		c1.9-7.1,3.7-14.3,5.5-21.3c0.3-1.3-1.1-2.8-2.2-3.1c-0.8-0.2-1.6,0.1-1.9,0.9c-3,7.5-7,15.3-12,23c-2.5,3.8-4.8,7.1-7.3,10.1
		l-0.7,0.9c-1.1,1.5-2.2,3-3.5,4.1c-0.6,0.6-1.1,0.7-1.2,0.7c-0.1-0.1-0.9-0.5-1.3-4c-1.3-15.6,8-30.1,24-36.9
		c0.5-0.2,0.9-0.8,0.7-1.6c-0.2-0.8-1.2-2.1-2.4-1.9C107.2,50.6,98.8,57.2,94,65.9z"/>
	<path class="st0" d="M177.3,300.5c-10.3-1.3-21.9,0.6-32.1,2.3l-1.5,0.2c-11.7,1.9-23.2,4.9-34,8.8c-0.4,0.2-0.9,0.3-1.4,0.4
		c-2.4,0.7-5.9,1.7-5,5.6c0.5,1.7,2.9,4.2,5,4.2c0.1,0,0.1,0,0.2,0c1.8,0,2.6-0.9,2.9-1.5c0.5-0.9,0.5-2,0.1-3.2
		c2.6-0.4,5.3-1.4,8-2.4c1.9-0.7,3.8-1.4,5.5-1.8c6.2-1.6,11.8-2.9,17.1-3.8c6.2-1.1,12.3-1.9,18.6-2.4c2.8-0.2,5.6-0.3,8.4-0.3
		c3.4-0.1,7-0.1,10.4-0.5c1.4-0.2,1.9-1,1.9-1.8C181.3,302.9,178.6,300.6,177.3,300.5z"/>
</g>
</svg>
