<?xml version="1.0" encoding="utf-8"?>
<!-- Generator: Adobe Illustrator 21.1.0, SVG Export Plug-In . SVG Version: 6.00 Build 0)  -->
<!DOCTYPE svg PUBLIC "-//W3C//DTD SVG 1.1//EN" "http://www.w3.org/Graphics/SVG/1.1/DTD/svg11.dtd">
<svg version="1.1" id="Layer_1" xmlns="http://www.w3.org/2000/svg" xmlns:xlink="http://www.w3.org/1999/xlink" x="0px" y="0px"
	 viewBox="0 0 217.1 68.1" style="enable-background:new 0 0 217.1 68.1;" xml:space="preserve">
<style type="text/css">
	.st0{fill:#223063;}
	.st1{fill:#222F63;}
	.st2{fill:#FFFFFF;}
	.st3{fill:#1C1D1D;}
	.st4{fill:#1D1D1D;}
</style>
<rect x="-252.7" y="355.7" class="st0" width="68" height="68"/>
<rect x="-252.6" y="-3.8" class="st1" width="217.1" height="68.1"/>
<rect x="-252.6" y="102.9" class="st1" width="122.3" height="68.1"/>
<rect x="-252.9" y="205.6" class="st1" width="122.9" height="121.2"/>
<path class="st1" d="M-401.5,28.6L-401.5,28.6c3.1,0,5.5-2.5,5.5-5.5c0-3.1-2.5-5.5-5.6-5.5h-7.9v11L-401.5,28.6z M-409.5,43.6h9.6
	c3.1,0,5.6-2.5,5.6-5.5c0-3.1-2.5-5.5-5.6-5.5l-9.6,0V43.6z M-399.9,47.5h-13.5V13.7h11.8c5.2,0,9.5,4.2,9.5,9.4
	c0,2.7-1.1,5.1-3,6.9c2.8,1.6,4.6,4.7,4.6,8.1C-390.4,43.3-394.6,47.5-399.9,47.5"/>
<path class="st1" d="M-428.4,28.7L-428.4,28.7c3.1,0,5.6-2.5,5.6-5.6c0-3.1-2.5-5.6-5.6-5.6h-7.9v11.1L-428.4,28.7z M-436.3,43.7
	h9.6c3.1,0,5.6-2.5,5.6-5.6c0-3.1-2.5-5.6-5.6-5.6l-9.6,0V43.7z M-426.7,47.6h-13.5v-34h11.9c5.2,0,9.5,4.3,9.5,9.5
	c0,2.7-1.1,5.2-3,6.9c2.8,1.7,4.6,4.7,4.6,8.2C-417.3,43.4-421.5,47.6-426.7,47.6"/>
<path class="st1" d="M-382.9,45.2c0,1.4-1.1,2.5-2.5,2.5c-1.4,0-2.5-1.1-2.5-2.5c0-1.4,1.1-2.5,2.5-2.5
	C-384,42.7-382.9,43.8-382.9,45.2"/>
<path class="st1" d="M-358.5,28.8c-0.8,2.1-2.4,3.2-4.4,3.2c-1.2,0-2.2-0.4-3.1-1.1l1.2-2.3c0.6,0.5,1.1,0.7,1.8,0.7
	c0.9,0,1.6-0.5,2.1-1.5l0.5-1l-5.6-13.3h3l4,10.2l3.8-10.2h2.9L-358.5,28.8z"/>
<path class="st1" d="M-339.5,15.5l-1.6,1.9c-0.9-1-2.2-1.5-3.9-1.5c-2.3,0-4,1.7-4,4.3s1.7,4.3,4,4.3c1.7,0,3.1-0.6,4-1.6l1.6,1.6
	c-1.2,1.6-3.2,2.5-5.7,2.5c-4,0-6.8-2.8-6.8-6.8c0-4.1,2.8-6.9,6.8-6.9C-342.6,13.3-340.7,14.1-339.5,15.5"/>
<path class="st1" d="M-367.5,15.5l-1.6,1.9c-0.9-1-2.2-1.5-3.9-1.5c-2.3,0-4,1.7-4,4.3s1.7,4.3,4,4.3c1.7,0,3.1-0.6,4-1.6l1.6,1.6
	c-1.2,1.6-3.2,2.5-5.7,2.5c-4,0-6.8-2.8-6.8-6.8c0-4.1,2.8-6.9,6.8-6.9C-370.6,13.3-368.7,14.1-367.5,15.5"/>
<rect x="-336.9" y="8.1" class="st1" width="2.9" height="18.8"/>
<path class="st1" d="M-330.5,13.4h2.9v13.5h-2.9V13.4z M-327.4,9.6c0,1-0.7,1.7-1.7,1.7c-1,0-1.7-0.7-1.7-1.7c0-1,0.7-1.8,1.7-1.8
	C-328.1,7.8-327.4,8.5-327.4,9.6"/>
<path class="st1" d="M-311.2,18.5v8.4h-2.9v-7.6c0-2-1.2-3.3-3.3-3.3c-2.2,0-3.6,1.6-3.8,3.7v7.2h-2.9V13.4h2.9V16
	c1-1.9,2.7-2.7,5-2.7C-313.1,13.3-311.2,15.3-311.2,18.5"/>
<path class="st1" d="M-298.5,19.8c0-2.4-1.6-4.1-3.9-4.1c-2.3,0-3.9,1.7-3.9,4.1c0,2.4,1.6,4.2,3.9,4.2
	C-300.1,24-298.5,22.3-298.5,19.8 M-295.6,25.6c0,3.9-2.8,6.3-7,6.3c-2.1,0-4-0.7-5.6-1.8l1.2-2.1c1.3,0.9,2.6,1.5,4.2,1.5
	c2.6,0,4.2-1.5,4.2-3.8V24c-0.9,1.5-2.4,2.3-4.5,2.3c-3.7,0-6.1-2.6-6.1-6.5c0-3.8,2.4-6.4,6-6.4c2.1,0,3.6,0.8,4.6,2.3v-2.2h2.9
	V25.6z"/>
<path class="st1" d="M-367.5,36.6l-1.6,1.9c-0.9-1-2.2-1.5-3.9-1.5c-2.3,0-4,1.7-4,4.3c0,2.6,1.7,4.3,4,4.3c1.7,0,3.1-0.6,4-1.6
	l1.6,1.6c-1.2,1.6-3.2,2.5-5.7,2.5c-4,0-6.8-2.8-6.8-6.8c0-4.1,2.8-6.9,6.8-6.9C-370.6,34.4-368.7,35.1-367.5,36.6"/>
<path class="st1" d="M-363.2,41.5c0,2.5,1.6,4.2,4,4.2c2.3,0,4-1.7,4-4.2c0-2.5-1.6-4.2-4-4.2C-361.6,37.2-363.2,39-363.2,41.5
	 M-352.4,41.4c0,3.9-2.8,6.6-6.8,6.6c-4.1,0-6.8-2.7-6.8-6.6c0-3.9,2.8-6.6,6.8-6.6C-355.2,34.8-352.4,37.5-352.4,41.4"/>
<path class="st1" d="M-328.9,39.7v7.9h-2.8v-7.1c0-1.9-1.1-3.1-3-3.1c-2.2,0.1-3.5,1.7-3.5,4v6.3h-2.8v-7.1c0-1.9-1.1-3.1-3-3.1
	c-2.2,0.1-3.5,1.7-3.5,4v6.3h-2.7V34.9h2.7v2.5c0.9-1.8,2.5-2.6,4.6-2.6c2.3,0,3.8,1.1,4.4,3.1c0.8-2.1,2.5-3.1,4.8-3.1
	C-330.7,34.8-328.9,36.7-328.9,39.7"/>
<polygon class="st1" points="-461,13.6 -463.2,13.6 -462.1,17.6 -459.9,17.6 "/>
<polygon class="st1" points="-459,28.7 -457.9,32.6 -455.6,32.6 -456.7,28.7 "/>
<polygon class="st1" points="-455.8,43.7 -463.2,43.7 -463.2,32.6 -459,32.6 -460.1,28.7 -463.2,28.6 -463.2,17.6 -464.3,13.6 
	-467.1,13.6 -467.1,47.6 -454.7,47.6 "/>
<path class="st1" d="M-448.8,30c1.8-1.7,3-4.2,3-6.9c0-5.2-4.3-9.5-9.5-9.5h-1.2l1.1,3.9h0.1c3.1,0,5.6,2.5,5.6,5.6
	c0,3.1-2.5,5.6-5.5,5.6h0l-0.3,0l1.1,3.9l0.9,0c3.1,0,5.6,2.5,5.6,5.6c0,3.1-2.5,5.6-5.6,5.6h-1.1l1.1,3.9h0c5.2,0,9.5-4.3,9.5-9.5
	C-444.1,34.7-446,31.7-448.8,30"/>
<polygon class="st1" points="-459.9,13.6 -458.7,17.6 -456.5,17.6 -457.6,13.6 "/>
<path class="st2" d="M-164.5,28.6L-164.5,28.6c3.1,0,5.5-2.5,5.5-5.5c0-3.1-2.5-5.5-5.6-5.5h-7.9v11L-164.5,28.6z M-172.4,43.6h9.6
	c3.1,0,5.6-2.5,5.6-5.5c0-3.1-2.5-5.5-5.6-5.5l-9.6,0V43.6z M-162.8,47.5h-13.5V13.7h11.8c5.2,0,9.5,4.2,9.5,9.4
	c0,2.7-1.1,5.1-3,6.9c2.8,1.6,4.6,4.7,4.6,8.1C-153.3,43.3-157.6,47.5-162.8,47.5"/>
<path class="st2" d="M-191.4,28.7L-191.4,28.7c3.1,0,5.6-2.5,5.6-5.6c0-3.1-2.5-5.6-5.6-5.6h-7.9v11.1L-191.4,28.7z M-199.3,43.7
	h9.6c3.1,0,5.6-2.5,5.6-5.6c0-3.1-2.5-5.6-5.6-5.6l-9.6,0V43.7z M-189.7,47.6h-13.5v-34h11.9c5.2,0,9.5,4.3,9.5,9.5
	c0,2.7-1.1,5.2-3,6.9c2.8,1.7,4.6,4.7,4.6,8.2C-180.2,43.4-184.5,47.6-189.7,47.6"/>
<path class="st2" d="M-145.8,45.2c0,1.4-1.1,2.5-2.5,2.5c-1.4,0-2.5-1.1-2.5-2.5c0-1.4,1.1-2.5,2.5-2.5
	C-146.9,42.7-145.8,43.8-145.8,45.2"/>
<path class="st2" d="M-121.5,28.8c-0.8,2.1-2.4,3.2-4.4,3.2c-1.2,0-2.2-0.4-3.1-1.1l1.2-2.3c0.6,0.5,1.1,0.7,1.8,0.7
	c0.9,0,1.6-0.5,2.1-1.5l0.5-1l-5.6-13.3h3l4,10.2l3.8-10.2h2.9L-121.5,28.8z"/>
<path class="st2" d="M-102.4,15.5l-1.6,1.9c-0.9-1-2.2-1.5-3.9-1.5c-2.3,0-4,1.7-4,4.3s1.7,4.3,4,4.3c1.7,0,3.1-0.6,4-1.6l1.6,1.6
	c-1.2,1.6-3.2,2.5-5.7,2.5c-4,0-6.8-2.8-6.8-6.8c0-4.1,2.8-6.9,6.8-6.9C-105.6,13.3-103.7,14.1-102.4,15.5"/>
<path class="st2" d="M-130.4,15.5l-1.6,1.9c-0.9-1-2.2-1.5-3.9-1.5c-2.3,0-4,1.7-4,4.3s1.7,4.3,4,4.3c1.7,0,3.1-0.6,4-1.6l1.6,1.6
	c-1.2,1.6-3.2,2.5-5.7,2.5c-4,0-6.8-2.8-6.8-6.8c0-4.1,2.8-6.9,6.8-6.9C-133.6,13.3-131.7,14.1-130.4,15.5"/>
<rect x="-99.9" y="8.1" class="st2" width="2.9" height="18.8"/>
<path class="st2" d="M-93.5,13.4h2.9v13.5h-2.9V13.4z M-90.3,9.6c0,1-0.7,1.7-1.7,1.7c-1,0-1.7-0.7-1.7-1.7c0-1,0.7-1.8,1.7-1.8
	C-91.1,7.8-90.3,8.5-90.3,9.6"/>
<path class="st2" d="M-74.2,18.5v8.4h-2.9v-7.6c0-2-1.2-3.3-3.3-3.3c-2.2,0-3.6,1.6-3.8,3.7v7.2h-2.9V13.4h2.9V16
	c1-1.9,2.7-2.7,5-2.7C-76.1,13.3-74.2,15.3-74.2,18.5"/>
<path class="st2" d="M-61.5,19.8c0-2.4-1.6-4.1-3.9-4.1c-2.3,0-3.9,1.7-3.9,4.1c0,2.4,1.6,4.2,3.9,4.2C-63.1,24-61.5,22.3-61.5,19.8
	 M-58.6,25.6c0,3.9-2.8,6.3-7,6.3c-2.1,0-4-0.7-5.6-1.8L-70,28c1.3,0.9,2.6,1.5,4.2,1.5c2.6,0,4.2-1.5,4.2-3.8V24
	c-0.9,1.5-2.4,2.3-4.5,2.3c-3.7,0-6.1-2.6-6.1-6.5c0-3.8,2.4-6.4,6-6.4c2.1,0,3.6,0.8,4.6,2.3v-2.2h2.9V25.6z"/>
<path class="st2" d="M-130.4,36.6l-1.6,1.9c-0.9-1-2.2-1.5-3.9-1.5c-2.3,0-4,1.7-4,4.3c0,2.6,1.7,4.3,4,4.3c1.7,0,3.1-0.6,4-1.6
	l1.6,1.6c-1.2,1.6-3.2,2.5-5.7,2.5c-4,0-6.8-2.8-6.8-6.8c0-4.1,2.8-6.9,6.8-6.9C-133.6,34.4-131.7,35.1-130.4,36.6"/>
<path class="st2" d="M-126.2,41.5c0,2.5,1.6,4.2,4,4.2c2.3,0,4-1.7,4-4.2c0-2.5-1.6-4.2-4-4.2C-124.5,37.2-126.2,39-126.2,41.5
	 M-115.4,41.4c0,3.9-2.8,6.6-6.8,6.6c-4.1,0-6.8-2.7-6.8-6.6c0-3.9,2.8-6.6,6.8-6.6C-118.1,34.8-115.4,37.5-115.4,41.4"/>
<path class="st2" d="M-91.9,39.7v7.9h-2.8v-7.1c0-1.9-1.1-3.1-3-3.1c-2.2,0.1-3.5,1.7-3.5,4v6.3h-2.8v-7.1c0-1.9-1.1-3.1-3-3.1
	c-2.2,0.1-3.5,1.7-3.5,4v6.3h-2.7V34.9h2.7v2.5c0.9-1.8,2.5-2.6,4.6-2.6c2.3,0,3.8,1.1,4.4,3.1c0.8-2.1,2.5-3.1,4.8-3.1
	C-93.6,34.8-91.9,36.7-91.9,39.7"/>
<polygon class="st2" points="-223.9,13.6 -226.2,13.6 -225.1,17.6 -222.8,17.6 "/>
<polygon class="st2" points="-221.9,28.7 -220.8,32.6 -218.6,32.6 -219.7,28.7 "/>
<polygon class="st2" points="-218.8,43.7 -226.2,43.7 -226.2,32.6 -221.9,32.6 -223,28.7 -226.2,28.6 -226.2,17.6 -227.3,13.6 
	-230.1,13.6 -230.1,47.6 -217.7,47.6 "/>
<path class="st2" d="M-211.7,30c1.8-1.7,3-4.2,3-6.9c0-5.2-4.3-9.5-9.5-9.5h-1.2l1.1,3.9h0.1c3.1,0,5.6,2.5,5.6,5.6
	c0,3.1-2.5,5.6-5.5,5.6h0l-0.3,0l1.1,3.9l0.9,0c3.1,0,5.6,2.5,5.6,5.6c0,3.1-2.5,5.6-5.6,5.6h-1.1l1.1,3.9h0c5.2,0,9.5-4.3,9.5-9.5
	C-207.1,34.7-208.9,31.7-211.7,30"/>
<polygon class="st2" points="-222.8,13.6 -221.7,17.6 -219.5,17.6 -220.6,13.6 "/>
<path class="st1" d="M-401.8,135.3L-401.8,135.3c3.1,0,5.5-2.5,5.5-5.5c0-3.1-2.5-5.5-5.6-5.5h-7.9v11L-401.8,135.3z M-409.7,150.2
	h9.6c3.1,0,5.6-2.5,5.6-5.5c0-3.1-2.5-5.5-5.6-5.5l-9.6,0V150.2z M-400.1,154.1h-13.5v-33.9h11.8c5.2,0,9.5,4.2,9.5,9.4
	c0,2.7-1.1,5.1-3,6.9c2.8,1.6,4.6,4.7,4.6,8.1C-390.6,149.9-394.9,154.1-400.1,154.1"/>
<path class="st1" d="M-428.7,135.3L-428.7,135.3c3.1,0,5.6-2.5,5.6-5.6c0-3.1-2.5-5.6-5.6-5.6h-7.9v11.1L-428.7,135.3z
	 M-436.6,150.3h9.6c3.1,0,5.6-2.5,5.6-5.6c0-3.1-2.5-5.6-5.6-5.6l-9.6,0V150.3z M-427,154.2h-13.5v-34h11.9c5.2,0,9.5,4.3,9.5,9.5
	c0,2.7-1.1,5.2-3,6.9c2.8,1.7,4.6,4.7,4.6,8.2C-417.5,150-421.8,154.2-427,154.2"/>
<polygon class="st1" points="-461.2,120.2 -463.5,120.2 -462.4,124.2 -460.1,124.2 "/>
<polygon class="st1" points="-459.2,135.3 -458.1,139.2 -455.9,139.2 -457,135.3 "/>
<polygon class="st1" points="-456.1,150.3 -463.5,150.3 -463.5,139.2 -459.2,139.2 -460.3,135.3 -463.5,135.3 -463.5,124.2 
	-464.6,120.2 -467.4,120.2 -467.4,154.2 -455,154.2 "/>
<path class="st1" d="M-449,136.6c1.8-1.7,3-4.2,3-6.9c0-5.2-4.3-9.5-9.5-9.5h-1.2l1.1,3.9h0.1c3.1,0,5.6,2.5,5.6,5.6
	c0,3.1-2.5,5.6-5.5,5.6h0l-0.3,0l1.1,3.9l0.9,0c3.1,0,5.6,2.5,5.6,5.6c0,3.1-2.5,5.6-5.6,5.6h-1.1l1.1,3.9h0c5.2,0,9.5-4.3,9.5-9.5
	C-444.4,141.3-446.2,138.3-449,136.6"/>
<polygon class="st1" points="-460.1,120.2 -459,124.2 -456.8,124.2 -457.9,120.2 "/>
<path class="st2" d="M-164.5,135.3L-164.5,135.3c3.1,0,5.5-2.5,5.5-5.5c0-3.1-2.5-5.5-5.6-5.5h-7.9v11L-164.5,135.3z M-172.4,150.2
	h9.6c3.1,0,5.6-2.5,5.6-5.5c0-3.1-2.5-5.5-5.6-5.5l-9.6,0V150.2z M-162.8,154.1h-13.5v-33.9h11.8c5.2,0,9.5,4.2,9.5,9.4
	c0,2.7-1.1,5.1-3,6.9c2.8,1.6,4.6,4.7,4.6,8.1C-153.3,149.9-157.6,154.1-162.8,154.1"/>
<path class="st2" d="M-191.4,135.3L-191.4,135.3c3.1,0,5.6-2.5,5.6-5.6c0-3.1-2.5-5.6-5.6-5.6h-7.9v11.1L-191.4,135.3z
	 M-199.3,150.3h9.6c3.1,0,5.6-2.5,5.6-5.6c0-3.1-2.5-5.6-5.6-5.6l-9.6,0V150.3z M-189.7,154.2h-13.5v-34h11.9c5.2,0,9.5,4.3,9.5,9.5
	c0,2.7-1.1,5.2-3,6.9c2.8,1.7,4.6,4.7,4.6,8.2C-180.2,150-184.5,154.2-189.7,154.2"/>
<polygon class="st2" points="-223.9,120.2 -226.2,120.2 -225.1,124.2 -222.8,124.2 "/>
<polygon class="st2" points="-221.9,135.3 -220.8,139.2 -218.6,139.2 -219.7,135.3 "/>
<polygon class="st2" points="-218.8,150.3 -226.2,150.3 -226.2,139.2 -221.9,139.2 -223,135.3 -226.2,135.3 -226.2,124.2 
	-227.3,120.2 -230.1,120.2 -230.1,154.2 -217.7,154.2 "/>
<path class="st2" d="M-211.7,136.6c1.8-1.7,3-4.2,3-6.9c0-5.2-4.3-9.5-9.5-9.5h-1.2l1.1,3.9h0.1c3.1,0,5.6,2.5,5.6,5.6
	c0,3.1-2.5,5.6-5.5,5.6h0l-0.3,0l1.1,3.9l0.9,0c3.1,0,5.6,2.5,5.6,5.6c0,3.1-2.5,5.6-5.6,5.6h-1.1l1.1,3.9h0c5.2,0,9.5-4.3,9.5-9.5
	C-207.1,141.3-208.9,138.3-211.7,136.6"/>
<polygon class="st2" points="-222.8,120.2 -221.7,124.2 -219.5,124.2 -220.6,120.2 "/>
<path class="st1" d="M-446.9,287.5c-0.8,1.9-2.2,2.9-4,2.9c-1.1,0-2-0.3-2.8-1l1.1-2.1c0.6,0.4,1,0.6,1.6,0.6c0.8,0,1.5-0.4,1.9-1.4
	l0.4-0.9l-5.1-12.1h2.8l3.7,9.3l3.4-9.3h2.7L-446.9,287.5z"/>
<path class="st1" d="M-429.6,275.4l-1.5,1.7c-0.9-0.9-2-1.4-3.5-1.4c-2.1,0-3.7,1.6-3.7,3.9s1.5,3.9,3.7,3.9c1.5,0,2.8-0.5,3.6-1.5
	l1.5,1.5c-1.1,1.5-2.9,2.3-5.2,2.3c-3.7,0-6.2-2.5-6.2-6.2c0-3.7,2.5-6.2,6.2-6.2C-432.4,273.4-430.7,274.1-429.6,275.4"/>
<path class="st1" d="M-455,275.4l-1.5,1.7c-0.9-0.9-2-1.4-3.5-1.4c-2.1,0-3.7,1.6-3.7,3.9s1.5,3.9,3.7,3.9c1.5,0,2.8-0.5,3.6-1.5
	l1.5,1.5c-1.1,1.5-2.9,2.3-5.2,2.3c-3.7,0-6.2-2.5-6.2-6.2c0-3.7,2.5-6.2,6.2-6.2C-457.9,273.4-456.2,274.1-455,275.4"/>
<path class="st1" d="M-455,294l-1.5,1.7c-0.9-0.9-2-1.4-3.5-1.4c-2.1,0-3.7,1.6-3.7,3.9s1.5,3.9,3.7,3.9c1.5,0,2.8-0.5,3.6-1.5
	l1.5,1.5c-1.1,1.5-2.9,2.3-5.2,2.3c-3.7,0-6.2-2.5-6.2-6.2c0-3.7,2.5-6.2,6.2-6.2C-457.9,292-456.2,292.7-455,294"/>
<rect x="-427.2" y="268.7" class="st1" width="2.7" height="17.1"/>
<path class="st1" d="M-421.4,273.5h2.6v12.3h-2.6V273.5z M-418.5,270c0,0.9-0.7,1.6-1.5,1.6c-0.9,0-1.5-0.7-1.5-1.6
	c0-0.9,0.7-1.6,1.5-1.6C-419.2,268.4-418.5,269.1-418.5,270"/>
<path class="st1" d="M-403.8,278.1v7.6h-2.7v-6.9c0-1.8-1.1-3-3-3c-2,0-3.3,1.4-3.5,3.3v6.5h-2.7v-12.3h2.7v2.4
	c0.9-1.7,2.5-2.4,4.5-2.4C-405.5,273.4-403.8,275.2-403.8,278.1"/>
<path class="st1" d="M-392.3,279.3c0-2.2-1.5-3.8-3.5-3.8c-2.1,0-3.6,1.6-3.6,3.8c0,2.2,1.5,3.8,3.6,3.8
	C-393.7,283.1-392.3,281.5-392.3,279.3 M-389.6,284.6c0,3.5-2.5,5.7-6.4,5.7c-1.9,0-3.6-0.6-5.1-1.6l1.1-1.9
	c1.2,0.9,2.4,1.3,3.9,1.3c2.3,0,3.9-1.4,3.9-3.5v-1.5c-0.8,1.3-2.2,2.1-4.1,2.1c-3.3,0-5.5-2.4-5.5-5.9c0-3.5,2.2-5.8,5.5-5.8
	c1.9,0,3.3,0.7,4.2,2.1v-2h2.6V284.6z"/>
<path class="st1" d="M-450.2,298.3c0,2.2,1.5,3.8,3.6,3.8c2.1,0,3.5-1.5,3.5-3.8c0-2.2-1.5-3.7-3.5-3.7
	C-448.8,294.6-450.2,296.1-450.2,298.3 M-440.7,298.3c0,3.5-2.5,5.9-6,5.9c-3.6,0-6.1-2.4-6.1-5.9c0-3.5,2.5-5.9,6.1-5.9
	C-443.1,292.5-440.7,294.8-440.7,298.3"/>
<path class="st1" d="M-419.1,296.9v7.2h-2.5v-6.5c0-1.8-1-2.8-2.7-2.8c-2,0.1-3.2,1.6-3.2,3.6v5.7h-2.5v-6.5c0-1.8-1-2.8-2.7-2.8
	c-2,0.1-3.2,1.6-3.2,3.6v5.7h-2.5v-11.6h2.5v2.2c0.8-1.6,2.3-2.3,4.2-2.3c2.1,0,3.5,1,4,2.8c0.7-1.9,2.3-2.8,4.4-2.8
	C-420.7,292.5-419.1,294.2-419.1,296.9"/>
<path class="st1" d="M-400.7,243.7L-400.7,243.7c3.1,0,5.5-2.5,5.5-5.5c0-3.1-2.5-5.5-5.6-5.5h-7.9v11.1L-400.7,243.7z
	 M-408.6,258.7h9.6c3.1,0,5.6-2.5,5.6-5.5c0-3.1-2.5-5.5-5.6-5.5l-9.6,0V258.7z M-399,262.6h-13.5v-33.9h11.8c5.2,0,9.5,4.2,9.5,9.5
	c0,2.7-1.1,5.1-3,6.9c2.8,1.6,4.6,4.7,4.6,8.1C-389.5,258.4-393.8,262.6-399,262.6"/>
<path class="st1" d="M-427.5,243.7L-427.5,243.7c3.1,0,5.6-2.5,5.6-5.6c0-3.1-2.5-5.6-5.6-5.6h-7.9v11.1L-427.5,243.7z
	 M-435.5,258.8h9.6c3.1,0,5.6-2.5,5.6-5.6s-2.5-5.6-5.6-5.6l-9.6,0V258.8z M-425.9,262.7h-13.5v-34h11.9c5.2,0,9.5,4.3,9.5,9.5
	c0,2.7-1.1,5.2-3,6.9c2.8,1.7,4.7,4.7,4.7,8.2C-416.4,258.5-420.6,262.7-425.9,262.7"/>
<path class="st1" d="M-468.1,301.9c0,1.2-1,2.2-2.2,2.2s-2.2-1-2.2-2.2c0-1.2,1-2.2,2.2-2.2S-468.1,300.7-468.1,301.9"/>
<polygon class="st1" points="-460.1,228.7 -462.4,228.7 -461.3,232.6 -459,232.6 "/>
<polygon class="st1" points="-458.1,243.7 -457,247.7 -454.8,247.7 -455.9,243.7 "/>
<polygon class="st1" points="-455,258.8 -462.4,258.8 -462.4,247.6 -458.1,247.7 -459.3,243.7 -462.4,243.7 -462.4,232.6 
	-463.5,228.7 -466.3,228.7 -466.3,262.7 -453.9,262.7 "/>
<path class="st1" d="M-447.9,245.1c1.8-1.7,3-4.2,3-6.9c0-5.2-4.3-9.5-9.5-9.5h-1.2l1.1,3.9h0.1c3.1,0,5.6,2.5,5.6,5.6
	c0,3.1-2.5,5.6-5.5,5.6h0l-0.3,0l1.1,3.9l0.9,0c3.1,0,5.6,2.5,5.6,5.6c0,3.1-2.5,5.6-5.6,5.6h-1.1l1.1,3.9h0c5.2,0,9.5-4.3,9.5-9.5
	C-443.3,249.8-445.2,246.7-447.9,245.1"/>
<polygon class="st1" points="-459,228.7 -457.9,232.6 -455.7,232.6 -456.8,228.7 "/>
<path class="st2" d="M-210.4,287.5c-0.8,1.9-2.2,2.9-4,2.9c-1.1,0-2-0.3-2.8-1l1.1-2.1c0.6,0.4,1,0.6,1.6,0.6c0.8,0,1.5-0.4,1.9-1.4
	l0.4-0.9l-5.1-12.1h2.8l3.7,9.3l3.4-9.3h2.7L-210.4,287.5z"/>
<path class="st2" d="M-193.1,275.4l-1.5,1.7c-0.9-0.9-2-1.4-3.5-1.4c-2.1,0-3.7,1.6-3.7,3.9s1.5,3.9,3.7,3.9c1.5,0,2.8-0.5,3.6-1.5
	l1.5,1.5c-1.1,1.5-2.9,2.3-5.2,2.3c-3.7,0-6.2-2.5-6.2-6.2c0-3.7,2.5-6.2,6.2-6.2C-196,273.4-194.2,274.1-193.1,275.4"/>
<path class="st2" d="M-218.6,275.4l-1.5,1.7c-0.9-0.9-2-1.4-3.5-1.4c-2.1,0-3.7,1.6-3.7,3.9s1.5,3.9,3.7,3.9c1.5,0,2.8-0.5,3.6-1.5
	l1.5,1.5c-1.1,1.5-2.9,2.3-5.2,2.3c-3.7,0-6.2-2.5-6.2-6.2c0-3.7,2.5-6.2,6.2-6.2C-221.4,273.4-219.7,274.1-218.6,275.4"/>
<path class="st2" d="M-218.6,294l-1.5,1.7c-0.9-0.9-2-1.4-3.5-1.4c-2.1,0-3.7,1.6-3.7,3.9s1.5,3.9,3.7,3.9c1.5,0,2.8-0.5,3.6-1.5
	l1.5,1.5c-1.1,1.5-2.9,2.3-5.2,2.3c-3.7,0-6.2-2.5-6.2-6.2c0-3.7,2.5-6.2,6.2-6.2C-221.4,292-219.7,292.7-218.6,294"/>
<rect x="-190.7" y="268.7" class="st2" width="2.7" height="17.1"/>
<path class="st2" d="M-185,273.5h2.6v12.3h-2.6V273.5z M-182.1,270c0,0.9-0.7,1.6-1.5,1.6c-0.9,0-1.5-0.7-1.5-1.6
	c0-0.9,0.7-1.6,1.5-1.6C-182.8,268.4-182.1,269.1-182.1,270"/>
<path class="st2" d="M-167.4,278.1v7.6h-2.7v-6.9c0-1.8-1.1-3-3-3c-2,0-3.3,1.4-3.5,3.3v6.5h-2.7v-12.3h2.7v2.4
	c0.9-1.7,2.5-2.4,4.5-2.4C-169.1,273.4-167.4,275.2-167.4,278.1"/>
<path class="st2" d="M-155.8,279.3c0-2.2-1.5-3.8-3.5-3.8c-2.1,0-3.6,1.6-3.6,3.8c0,2.2,1.5,3.8,3.6,3.8
	C-157.3,283.1-155.8,281.5-155.8,279.3 M-153.2,284.6c0,3.5-2.5,5.7-6.4,5.7c-1.9,0-3.6-0.6-5.1-1.6l1.1-1.9
	c1.2,0.9,2.4,1.3,3.9,1.3c2.3,0,3.9-1.4,3.9-3.5v-1.5c-0.8,1.3-2.2,2.1-4.1,2.1c-3.3,0-5.5-2.4-5.5-5.9c0-3.5,2.2-5.8,5.5-5.8
	c1.9,0,3.3,0.7,4.2,2.1v-2h2.6V284.6z"/>
<path class="st2" d="M-213.8,298.3c0,2.2,1.5,3.8,3.6,3.8c2.1,0,3.5-1.5,3.5-3.8c0-2.2-1.5-3.7-3.5-3.7
	C-212.3,294.6-213.8,296.1-213.8,298.3 M-204.2,298.3c0,3.5-2.5,5.9-6,5.9c-3.6,0-6.1-2.4-6.1-5.9c0-3.5,2.5-5.9,6.1-5.9
	C-206.7,292.5-204.2,294.8-204.2,298.3"/>
<path class="st2" d="M-182.7,296.9v7.2h-2.5v-6.5c0-1.8-1-2.8-2.7-2.8c-2,0.1-3.2,1.6-3.2,3.6v5.7h-2.5v-6.5c0-1.8-1-2.8-2.7-2.8
	c-2,0.1-3.2,1.6-3.2,3.6v5.7h-2.5v-11.6h2.5v2.2c0.8-1.6,2.3-2.3,4.2-2.3c2.1,0,3.5,1,4,2.8c0.7-1.9,2.3-2.8,4.4-2.8
	C-184.3,292.5-182.7,294.2-182.7,296.9"/>
<path class="st2" d="M-164.2,243.7L-164.2,243.7c3.1,0,5.5-2.5,5.5-5.5c0-3.1-2.5-5.5-5.6-5.5h-7.9v11.1L-164.2,243.7z
	 M-172.1,258.7h9.6c3.1,0,5.6-2.5,5.6-5.5c0-3.1-2.5-5.5-5.6-5.5l-9.6,0V258.7z M-162.5,262.6h-13.5v-33.9h11.8
	c5.2,0,9.5,4.2,9.5,9.5c0,2.7-1.1,5.1-3,6.9c2.8,1.6,4.6,4.7,4.6,8.1C-153,258.4-157.3,262.6-162.5,262.6"/>
<path class="st2" d="M-191.1,243.7L-191.1,243.7c3.1,0,5.6-2.5,5.6-5.6c0-3.1-2.5-5.6-5.6-5.6h-7.9v11.1L-191.1,243.7z M-199,258.8
	h9.6c3.1,0,5.6-2.5,5.6-5.6s-2.5-5.6-5.6-5.6l-9.6,0V258.8z M-189.4,262.7H-203v-34h11.9c5.2,0,9.5,4.3,9.5,9.5c0,2.7-1.1,5.2-3,6.9
	c2.8,1.7,4.7,4.7,4.7,8.2C-179.9,258.5-184.2,262.7-189.4,262.7"/>
<path class="st2" d="M-231.7,301.9c0,1.2-1,2.2-2.2,2.2s-2.2-1-2.2-2.2c0-1.2,1-2.2,2.2-2.2S-231.7,300.7-231.7,301.9"/>
<polygon class="st2" points="-223.7,228.7 -225.9,228.7 -224.8,232.6 -222.6,232.6 "/>
<polygon class="st2" points="-221.7,243.7 -220.6,247.7 -218.3,247.7 -219.5,243.7 "/>
<polygon class="st2" points="-218.6,258.8 -225.9,258.8 -225.9,247.6 -221.7,247.7 -222.8,243.7 -225.9,243.7 -225.9,232.6 
	-227,228.7 -229.9,228.7 -229.9,262.7 -217.4,262.7 "/>
<path class="st2" d="M-211.5,245.1c1.8-1.7,3-4.2,3-6.9c0-5.2-4.3-9.5-9.5-9.5h-1.2l1.1,3.9h0.1c3.1,0,5.6,2.5,5.6,5.6
	c0,3.1-2.5,5.6-5.5,5.6h0l-0.3,0l1.1,3.9l0.9,0c3.1,0,5.6,2.5,5.6,5.6c0,3.1-2.5,5.6-5.6,5.6h-1.1l1.1,3.9h0c5.2,0,9.5-4.3,9.5-9.5
	C-206.8,249.8-208.7,246.7-211.5,245.1"/>
<polygon class="st2" points="-222.6,228.7 -221.5,232.6 -219.2,232.6 -220.3,228.7 "/>
<rect x="-248.3" y="-109.1" class="st0" width="100" height="60"/>
<g>
	<path class="st2" d="M-174.4-80.7L-174.4-80.7c1.8,0,3.4-1,4.1-2.6c1.4-3.3-1-6.5-4.1-6.5h-6.5v9.1H-174.4z M-180.9-68.4h7.7
		c2.2,0,4.2-1.5,4.6-3.6c0.6-2.9-1.6-5.5-4.5-5.5h-7.9v9.1H-180.9z M-173.1-65.2h-11.1V-93h9.7c4.3,0,7.8,3.5,7.8,7.8
		c0,2.2-0.9,4.2-2.4,5.6c2.3,1.4,3.8,3.8,3.8,6.7C-165.3-68.7-168.8-65.2-173.1-65.2"/>
	<path class="st2" d="M-196.5-80.7L-196.5-80.7c1.8,0,3.4-1,4.1-2.6c1.4-3.3-1-6.5-4.1-6.5h-6.5v9.1H-196.5z M-203-68.4h7.7
		c2.2,0,4.2-1.5,4.6-3.6c0.6-2.9-1.6-5.5-4.5-5.5h-7.9L-203-68.4L-203-68.4z M-195.1-65.1h-11.1v-28h9.4c3.9,0,7.4,2.7,8,6.6
		c0.4,2.7-0.6,5.2-2.3,6.8c2.3,1.4,3.8,3.8,3.8,6.7C-187.3-68.6-190.8-65.1-195.1-65.1"/>
	<polygon class="st2" points="-223.2,-93 -225.1,-93 -224.2,-89.8 -222.3,-89.8 	"/>
	<polygon class="st2" points="-221.6,-80.7 -220.7,-77.5 -218.9,-77.5 -219.8,-80.7 	"/>
	<polygon class="st2" points="-219,-68.4 -225.1,-68.4 -225.1,-77.5 -221.6,-77.5 -222.5,-80.7 -225.1,-80.7 -225.1,-89.8 
		-226,-93.1 -228.3,-93.1 -228.3,-65.1 -218.1,-65.1 	"/>
	<path class="st2" d="M-213.2-79.6c1.8-1.7,2.7-4.1,2.3-6.8c-0.6-3.9-4.1-6.6-8-6.6h-0.7l0.9,3.2h0.1c1.7,0,3.4,1,4.1,2.6
		c1.4,3.3-1,6.5-4.1,6.6l0,0h-0.3l0.9,3.2h0.6c2.2,0,4.2,1.5,4.6,3.6c0.6,2.9-1.6,5.5-4.5,5.5h-0.9l0.9,3.2l0,0
		c3.2,0,6.1-1.9,7.2-4.8C-208.5-74-210.2-77.8-213.2-79.6"/>
	<polygon class="st2" points="-222.3,-93 -221.4,-89.8 -219.6,-89.8 -220.5,-93 	"/>
</g>
<path class="st3" d="M88.1,32.4L88.1,32.4c3.1,0,5.5-2.5,5.5-5.5c0-3.1-2.5-5.5-5.6-5.5h-7.9v11L88.1,32.4z M80.2,47.4h9.6
	c3.1,0,5.6-2.5,5.6-5.5c0-3.1-2.5-5.5-5.6-5.5l-9.6,0V47.4z M89.8,51.3H76.3V17.4h11.8c5.2,0,9.5,4.2,9.5,9.4c0,2.7-1.1,5.1-3,6.9
	c2.8,1.6,4.6,4.7,4.6,8.1C99.3,47.1,95,51.3,89.8,51.3"/>
<path class="st3" d="M61.2,32.4L61.2,32.4c3.1,0,5.6-2.5,5.6-5.6c0-3.1-2.5-5.6-5.6-5.6h-7.9v11.1L61.2,32.4z M53.3,47.5h9.6
	c3.1,0,5.6-2.5,5.6-5.6c0-3.1-2.5-5.6-5.6-5.6l-9.6,0V47.5z M62.9,51.4H49.4v-34h11.9c5.2,0,9.5,4.3,9.5,9.5c0,2.7-1.1,5.2-3,6.9
	c2.8,1.7,4.6,4.7,4.6,8.2C72.4,47.1,68.2,51.4,62.9,51.4"/>
<path class="st3" d="M106.8,48.9c0,1.4-1.1,2.5-2.5,2.5c-1.4,0-2.5-1.1-2.5-2.5c0-1.4,1.1-2.5,2.5-2.5
	C105.7,46.4,106.8,47.6,106.8,48.9"/>
<path class="st3" d="M131.1,32.5c-0.8,2.1-2.4,3.2-4.4,3.2c-1.2,0-2.2-0.4-3.1-1.1l1.2-2.3c0.6,0.5,1.1,0.7,1.8,0.7
	c0.9,0,1.6-0.5,2.1-1.5l0.5-1l-5.6-13.3h3l4,10.2l3.8-10.2h2.9L131.1,32.5z"/>
<path class="st3" d="M150.2,19.3l-1.6,1.9c-0.9-1-2.2-1.5-3.9-1.5c-2.3,0-4,1.7-4,4.3s1.7,4.3,4,4.3c1.7,0,3.1-0.6,4-1.6l1.6,1.6
	c-1.2,1.6-3.2,2.5-5.7,2.5c-4,0-6.8-2.8-6.8-6.8c0-4.1,2.8-6.9,6.8-6.9C147,17.1,148.9,17.9,150.2,19.3"/>
<path class="st3" d="M122.2,19.3l-1.6,1.9c-0.9-1-2.2-1.5-3.9-1.5c-2.3,0-4,1.7-4,4.3s1.7,4.3,4,4.3c1.7,0,3.1-0.6,4-1.6l1.6,1.6
	c-1.2,1.6-3.2,2.5-5.7,2.5c-4,0-6.8-2.8-6.8-6.8c0-4.1,2.8-6.9,6.8-6.9C119,17.1,120.9,17.9,122.2,19.3"/>
<rect x="152.8" y="11.9" class="st3" width="2.9" height="18.8"/>
<path class="st3" d="M159.1,17.2h2.9v13.5h-2.9V17.2z M162.3,13.3c0,1-0.7,1.7-1.7,1.7c-1,0-1.7-0.7-1.7-1.7c0-1,0.7-1.8,1.7-1.8
	C161.5,11.6,162.3,12.3,162.3,13.3"/>
<path class="st3" d="M178.4,22.3v8.4h-2.9v-7.6c0-2-1.2-3.3-3.3-3.3c-2.2,0-3.6,1.6-3.8,3.7v7.2h-2.9V17.2h2.9v2.6
	c1-1.9,2.7-2.7,5-2.7C176.5,17.1,178.4,19.1,178.4,22.3"/>
<path class="st3" d="M191.1,23.6c0-2.4-1.6-4.1-3.9-4.1c-2.3,0-3.9,1.7-3.9,4.1c0,2.4,1.6,4.2,3.9,4.2
	C189.5,27.7,191.1,26,191.1,23.6 M194,29.4c0,3.9-2.8,6.3-7,6.3c-2.1,0-4-0.7-5.6-1.8l1.2-2.1c1.3,0.9,2.6,1.5,4.2,1.5
	c2.6,0,4.2-1.5,4.2-3.8v-1.7c-0.9,1.5-2.4,2.3-4.5,2.3c-3.7,0-6.1-2.6-6.1-6.5c0-3.8,2.4-6.4,6-6.4c2.1,0,3.6,0.8,4.6,2.3v-2.2h2.9
	V29.4z"/>
<path class="st3" d="M122.2,40.3l-1.6,1.9c-0.9-1-2.2-1.5-3.9-1.5c-2.3,0-4,1.7-4,4.3c0,2.6,1.7,4.3,4,4.3c1.7,0,3.1-0.6,4-1.6
	l1.6,1.6c-1.2,1.6-3.2,2.5-5.7,2.5c-4,0-6.8-2.8-6.8-6.8c0-4.1,2.8-6.9,6.8-6.9C119,38.1,120.9,38.9,122.2,40.3"/>
<path class="st3" d="M126.4,45.2c0,2.5,1.6,4.2,4,4.2c2.3,0,4-1.7,4-4.2c0-2.5-1.6-4.2-4-4.2C128.1,41,126.4,42.7,126.4,45.2
	 M137.2,45.2c0,3.9-2.8,6.6-6.8,6.6c-4.1,0-6.8-2.7-6.8-6.6c0-3.9,2.8-6.6,6.8-6.6C134.5,38.6,137.2,41.2,137.2,45.2"/>
<path class="st3" d="M160.7,43.5v7.9H158v-7.1c0-1.9-1.1-3.1-3-3.1c-2.2,0.1-3.5,1.7-3.5,4v6.3h-2.8v-7.1c0-1.9-1.1-3.1-3-3.1
	c-2.2,0.1-3.5,1.7-3.5,4v6.3h-2.7V38.7h2.7v2.5c0.9-1.8,2.5-2.6,4.6-2.6c2.3,0,3.8,1.1,4.4,3.1c0.8-2.1,2.5-3.1,4.8-3.1
	C159,38.6,160.7,40.4,160.7,43.5"/>
<polygon class="st3" points="28.7,17.4 26.4,17.4 27.6,21.3 29.8,21.3 "/>
<polygon class="st3" points="30.7,32.4 31.8,36.3 34,36.3 32.9,32.4 "/>
<polygon class="st3" points="33.8,47.5 26.4,47.5 26.4,36.3 30.7,36.3 29.6,32.4 26.4,32.4 26.4,21.3 25.3,17.4 22.5,17.4 
	22.5,51.4 34.9,51.4 "/>
<path class="st3" d="M40.9,33.7c1.8-1.7,3-4.2,3-6.9c0-5.2-4.3-9.5-9.5-9.5h-1.2l1.1,3.9h0.1c3.1,0,5.6,2.5,5.6,5.6
	c0,3.1-2.5,5.6-5.5,5.6h0l-0.3,0l1.1,3.9l0.9,0c3.1,0,5.6,2.5,5.6,5.6c0,3.1-2.5,5.6-5.6,5.6h-1.1l1.1,3.9h0c5.2,0,9.5-4.3,9.5-9.5
	C45.5,38.4,43.7,35.4,40.9,33.7"/>
<polygon class="st3" points="29.8,17.4 30.9,21.3 33.1,21.3 32,17.4 "/>
<path class="st3" d="M88.1,139L88.1,139c3.1,0,5.5-2.5,5.5-5.5c0-3.1-2.5-5.5-5.6-5.5h-7.9v11L88.1,139z M80.2,154h9.6
	c3.1,0,5.6-2.5,5.6-5.5c0-3.1-2.5-5.5-5.6-5.5l-9.6,0V154z M89.8,157.9H76.3V124h11.8c5.2,0,9.5,4.2,9.5,9.4c0,2.7-1.1,5.1-3,6.9
	c2.8,1.6,4.6,4.7,4.6,8.1C99.3,153.7,95,157.9,89.8,157.9"/>
<path class="st3" d="M61.2,139L61.2,139c3.1,0,5.6-2.5,5.6-5.6c0-3.1-2.5-5.6-5.6-5.6h-7.9V139L61.2,139z M53.3,154.1h9.6
	c3.1,0,5.6-2.5,5.6-5.6c0-3.1-2.5-5.6-5.6-5.6l-9.6,0V154.1z M62.9,158H49.4v-34h11.9c5.2,0,9.5,4.3,9.5,9.5c0,2.7-1.1,5.2-3,6.9
	c2.8,1.7,4.6,4.7,4.6,8.2C72.4,153.7,68.2,158,62.9,158"/>
<polygon class="st3" points="28.7,124 26.4,124 27.6,127.9 29.8,127.9 "/>
<polygon class="st3" points="30.7,139 31.8,142.9 34,143 32.9,139 "/>
<polygon class="st3" points="33.8,154.1 26.4,154.1 26.4,142.9 30.7,142.9 29.6,139 26.4,139 26.4,127.9 25.3,124 22.5,124 
	22.5,158 34.9,158 "/>
<path class="st3" d="M40.9,140.4c1.8-1.7,3-4.2,3-6.9c0-5.2-4.3-9.5-9.5-9.5h-1.2l1.1,3.9h0.1c3.1,0,5.6,2.5,5.6,5.6
	c0,3.1-2.5,5.6-5.5,5.6h0l-0.3,0l1.1,3.9l0.9,0c3.1,0,5.6,2.5,5.6,5.6c0,3.1-2.5,5.6-5.6,5.6h-1.1L36,158h0c5.2,0,9.5-4.3,9.5-9.5
	C45.5,145.1,43.7,142,40.9,140.4"/>
<polygon class="st3" points="29.8,124 30.9,127.9 33.1,127.9 32,124 "/>
<path class="st3" d="M42.2,291.2c-0.8,1.9-2.2,2.9-4,2.9c-1.1,0-2-0.3-2.8-1l1.1-2.1c0.6,0.4,1,0.6,1.6,0.6c0.8,0,1.5-0.4,1.9-1.4
	l0.4-0.9l-5.1-12.1H38l3.7,9.3l3.4-9.3h2.7L42.2,291.2z"/>
<path class="st3" d="M59.5,279.2l-1.5,1.7c-0.9-0.9-2-1.4-3.5-1.4c-2.1,0-3.7,1.6-3.7,3.9s1.5,3.9,3.7,3.9c1.5,0,2.8-0.5,3.6-1.5
	l1.5,1.5c-1.1,1.5-2.9,2.3-5.2,2.3c-3.7,0-6.2-2.5-6.2-6.2c0-3.7,2.5-6.2,6.2-6.2C56.6,277.2,58.4,277.9,59.5,279.2"/>
<path class="st3" d="M34,279.2l-1.5,1.7c-0.9-0.9-2-1.4-3.5-1.4c-2.1,0-3.7,1.6-3.7,3.9s1.5,3.9,3.7,3.9c1.5,0,2.8-0.5,3.6-1.5
	l1.5,1.5c-1.1,1.5-2.9,2.3-5.2,2.3c-3.7,0-6.2-2.5-6.2-6.2c0-3.7,2.5-6.2,6.2-6.2C31.2,277.2,32.9,277.9,34,279.2"/>
<path class="st3" d="M34,297.7l-1.5,1.7c-0.9-0.9-2-1.4-3.5-1.4c-2.1,0-3.7,1.6-3.7,3.9s1.5,3.9,3.7,3.9c1.5,0,2.8-0.5,3.6-1.5
	l1.5,1.5c-1.1,1.5-2.9,2.3-5.2,2.3c-3.7,0-6.2-2.5-6.2-6.2c0-3.7,2.5-6.2,6.2-6.2C31.2,295.7,32.9,296.4,34,297.7"/>
<rect x="61.9" y="272.4" class="st3" width="2.7" height="17.1"/>
<path class="st3" d="M67.6,277.3h2.6v12.3h-2.6V277.3z M70.5,273.8c0,0.9-0.7,1.6-1.5,1.6c-0.9,0-1.5-0.7-1.5-1.6
	c0-0.9,0.7-1.6,1.5-1.6C69.8,272.1,70.5,272.8,70.5,273.8"/>
<path class="st3" d="M85.2,281.9v7.6h-2.7v-6.9c0-1.8-1.1-3-3-3c-2,0-3.3,1.4-3.5,3.3v6.5h-2.7v-12.3h2.7v2.4
	c0.9-1.7,2.5-2.4,4.5-2.4C83.5,277.2,85.2,279,85.2,281.9"/>
<path class="st3" d="M96.8,283.1c0-2.2-1.5-3.8-3.5-3.8c-2.1,0-3.6,1.6-3.6,3.8c0,2.2,1.5,3.8,3.6,3.8
	C95.3,286.8,96.8,285.3,96.8,283.1 M99.4,288.3c0,3.5-2.5,5.7-6.4,5.7c-1.9,0-3.6-0.6-5.1-1.6l1.1-1.9c1.2,0.9,2.4,1.3,3.9,1.3
	c2.3,0,3.9-1.4,3.9-3.5v-1.5c-0.8,1.3-2.2,2.1-4.1,2.1c-3.3,0-5.5-2.4-5.5-5.9c0-3.5,2.2-5.8,5.5-5.8c1.9,0,3.3,0.7,4.2,2.1v-2h2.6
	V288.3z"/>
<path class="st3" d="M38.8,302.1c0,2.2,1.5,3.8,3.6,3.8c2.1,0,3.5-1.5,3.5-3.8c0-2.2-1.5-3.7-3.5-3.7
	C40.3,298.4,38.8,299.9,38.8,302.1 M48.4,302.1c0,3.5-2.5,5.9-6,5.9c-3.6,0-6.1-2.4-6.1-5.9c0-3.5,2.5-5.9,6.1-5.9
	C45.9,296.2,48.4,298.6,48.4,302.1"/>
<path class="st3" d="M69.9,300.7v7.2h-2.5v-6.5c0-1.8-1-2.8-2.7-2.8c-2,0.1-3.2,1.6-3.2,3.6v5.7H59v-6.5c0-1.8-1-2.8-2.7-2.8
	c-2,0.1-3.2,1.6-3.2,3.6v5.7h-2.5v-11.6h2.5v2.2c0.8-1.6,2.3-2.3,4.2-2.3c2.1,0,3.5,1,4,2.8c0.7-1.9,2.3-2.8,4.4-2.8
	C68.4,296.2,69.9,297.9,69.9,300.7"/>
<path class="st3" d="M88.4,247.5L88.4,247.5c3.1,0,5.5-2.5,5.5-5.5c0-3.1-2.5-5.5-5.6-5.5h-7.9v11.1L88.4,247.5z M80.5,262.4h9.6
	c3.1,0,5.6-2.5,5.6-5.5c0-3.1-2.5-5.5-5.6-5.5l-9.6,0V262.4z M90.1,266.4H76.6v-33.9h11.8c5.2,0,9.5,4.2,9.5,9.5
	c0,2.7-1.1,5.1-3,6.9c2.8,1.6,4.6,4.7,4.6,8.1C99.6,262.1,95.3,266.4,90.1,266.4"/>
<path class="st3" d="M61.5,247.5L61.5,247.5c3.1,0,5.6-2.5,5.6-5.6c0-3.1-2.5-5.6-5.6-5.6h-7.9v11.1L61.5,247.5z M53.6,262.5h9.6
	c3.1,0,5.6-2.5,5.6-5.6s-2.5-5.6-5.6-5.6l-9.6,0V262.5z M63.2,266.5H49.6v-34h11.9c5.2,0,9.5,4.3,9.5,9.5c0,2.7-1.1,5.2-3,6.9
	c2.8,1.7,4.7,4.7,4.7,8.2C72.7,262.2,68.4,266.5,63.2,266.5"/>
<path class="st3" d="M21,305.7c0,1.2-1,2.2-2.2,2.2s-2.2-1-2.2-2.2c0-1.2,1-2.2,2.2-2.2S21,304.4,21,305.7"/>
<polygon class="st3" points="28.9,232.4 26.7,232.4 27.8,236.4 30,236.4 "/>
<polygon class="st3" points="30.9,247.5 32,251.4 34.3,251.4 33.2,247.5 "/>
<polygon class="st3" points="34.1,262.5 26.7,262.5 26.7,251.4 30.9,251.4 29.8,247.5 26.7,247.5 26.7,236.4 25.6,232.4 22.7,232.4 
	22.7,266.5 35.2,266.5 "/>
<path class="st3" d="M41.1,248.8c1.8-1.7,3-4.2,3-6.9c0-5.2-4.3-9.5-9.5-9.5h-1.2l1.1,3.9h0.1c3.1,0,5.6,2.5,5.6,5.6
	c0,3.1-2.5,5.6-5.5,5.6h0l-0.3,0l1.1,3.9l0.9,0c3.1,0,5.6,2.5,5.6,5.6c0,3.1-2.5,5.6-5.6,5.6h-1.1l1.1,3.9h0c5.2,0,9.5-4.3,9.5-9.5
	C45.8,253.5,43.9,250.5,41.1,248.8"/>
<polygon class="st3" points="30,232.4 31.1,236.4 33.4,236.4 32.3,232.4 "/>
<path class="st3" d="M26.8,370.7l1.5,5.2h3l-1.5-5.2H26.8z M41.5,392.6c2.4-2.3,4-5.6,4-9.2c0-7-5.7-12.6-12.6-12.6h-1.6l1.5,5.2
	h0.1c4.1,0,7.4,3.3,7.4,7.4c0,4.1-3.3,7.4-7.4,7.4h0h-0.4l1.5,5.2l1.2,0c4.1,0,7.4,3.3,7.4,7.4s-3.3,7.4-7.4,7.4h-1.5l1.5,5.2h0
	c7,0,12.6-5.7,12.6-12.6C47.7,398.8,45.2,394.8,41.5,392.6 M27.9,390.8l1.5,5.2l3,0l-1.5-5.2L27.9,390.8z M25.3,370.7h-3l1.5,5.2h3
	L25.3,370.7z"/>
<g>
	<path class="st3" d="M78.2-76.9L78.2-76.9c1.8,0,3.4-1,4.1-2.6c1.4-3.3-1-6.5-4.1-6.5h-6.5v9.1H78.2z M71.7-64.6h7.7
		c2.2,0,4.2-1.5,4.6-3.6c0.6-2.9-1.6-5.5-4.5-5.5h-7.9v9.1H71.7z M79.5-61.4H68.4v-27.8h9.7c4.3,0,7.8,3.5,7.8,7.8
		c0,2.2-0.9,4.2-2.4,5.6c2.3,1.4,3.8,3.8,3.8,6.7C87.3-64.9,83.8-61.4,79.5-61.4"/>
	<path class="st3" d="M56.1-76.9L56.1-76.9c1.8,0,3.4-1,4.1-2.6c1.4-3.3-1-6.5-4.1-6.5h-6.5v9.1H56.1z M49.6-64.6h7.7
		c2.2,0,4.2-1.5,4.6-3.6c0.6-2.9-1.6-5.5-4.5-5.5h-7.9v9.1H49.6z M57.5-61.3H46.4v-28h9.4c3.9,0,7.4,2.7,8,6.6
		c0.4,2.7-0.6,5.2-2.3,6.8c2.3,1.4,3.8,3.8,3.8,6.7C65.3-64.8,61.8-61.3,57.5-61.3"/>
	<polygon class="st3" points="29.4,-89.2 27.5,-89.2 28.4,-86 30.3,-86 	"/>
	<polygon class="st3" points="31,-76.9 31.9,-73.7 33.7,-73.7 32.8,-76.9 	"/>
	<polygon class="st3" points="33.6,-64.6 27.5,-64.6 27.5,-73.7 31,-73.7 30.1,-76.9 27.5,-76.9 27.5,-86 26.6,-89.3 24.3,-89.3 
		24.3,-61.3 34.5,-61.3 	"/>
	<path class="st3" d="M39.4-75.8c1.8-1.7,2.7-4.1,2.3-6.8c-0.6-3.9-4.1-6.6-8-6.6H33l0.9,3.2H34c1.7,0,3.4,1,4.1,2.6
		c1.4,3.3-1,6.5-4.1,6.6l0,0h-0.3l0.9,3.2h0.6c2.2,0,4.2,1.5,4.6,3.6c0.6,2.9-1.6,5.5-4.5,5.5h-0.9l0.9,3.2l0,0
		c3.2,0,6.1-1.9,7.2-4.8C44.1-70.2,42.4-74,39.4-75.8"/>
	<polygon class="st3" points="30.3,-89.2 31.2,-86 33,-86 32.1,-89.2 	"/>
</g>
<g>
	<path class="st0" d="M-410.4-82.3L-410.4-82.3c1.8,0,3.4-1,4.1-2.6c1.4-3.3-1-6.5-4.1-6.5h-6.5v9.1H-410.4z M-416.9-70h7.7
		c2.2,0,4.2-1.5,4.6-3.6c0.6-2.9-1.6-5.5-4.5-5.5h-7.9v9.1H-416.9z M-409.1-66.8h-11.1v-27.8h9.7c4.3,0,7.8,3.5,7.8,7.8
		c0,2.2-0.9,4.2-2.4,5.6c2.3,1.4,3.8,3.8,3.8,6.7C-401.3-70.3-404.8-66.8-409.1-66.8"/>
	<path class="st0" d="M-432.5-82.3L-432.5-82.3c1.8,0,3.4-1,4.1-2.6c1.4-3.3-1-6.5-4.1-6.5h-6.5v9.1H-432.5z M-439-70h7.7
		c2.2,0,4.2-1.5,4.6-3.6c0.6-2.9-1.6-5.5-4.5-5.5h-7.9v9.1H-439z M-431.1-66.7h-11.1v-28h9.4c3.9,0,7.4,2.7,8,6.6
		c0.4,2.7-0.6,5.2-2.3,6.8c2.3,1.4,3.8,3.8,3.8,6.7C-423.3-70.2-426.8-66.7-431.1-66.7"/>
	<polygon class="st0" points="-459.2,-94.6 -461.1,-94.6 -460.2,-91.4 -458.3,-91.4 	"/>
	<polygon class="st0" points="-457.6,-82.3 -456.7,-79.1 -454.9,-79.1 -455.8,-82.3 	"/>
	<polygon class="st0" points="-455,-70 -461.1,-70 -461.1,-79.1 -457.6,-79.1 -458.5,-82.3 -461.1,-82.3 -461.1,-91.4 -462,-94.7 
		-464.3,-94.7 -464.3,-66.7 -454.1,-66.7 	"/>
	<path class="st0" d="M-449.2-81.2c1.8-1.7,2.7-4.1,2.3-6.8c-0.6-3.9-4.1-6.6-8-6.6h-0.7l0.9,3.2h0.1c1.7,0,3.4,1,4.1,2.6
		c1.4,3.3-1,6.5-4.1,6.6l0,0h-0.3l0.9,3.2h0.6c2.2,0,4.2,1.5,4.6,3.6c0.6,2.9-1.6,5.5-4.5,5.5h-0.9l0.9,3.2l0,0
		c3.2,0,6.1-1.9,7.2-4.8C-444.5-75.6-446.2-79.4-449.2-81.2"/>
	<polygon class="st0" points="-458.3,-94.6 -457.4,-91.4 -455.6,-91.4 -456.5,-94.6 	"/>
</g>
<g>
	<path class="st4" d="M436.8,311.5c-2.4-4.7-10.2-15.4-31.3-13.2c-16.4,1.8-33.1,9-47.1,20.4c-0.5,0.4-0.7,1.3,0.1,2.3
		c0.7,0.9,1.6,1.1,2.3,0.6c10.9-8.6,23.6-14.7,36.9-17.8c10.7-2.5,29.6-4.6,35.5,8.9c4.3,9.8,1.1,21.7-9.8,36.4
		c-7.2,9.7-16.6,18.3-27.1,24.8c-2.6,1.6-5.2,3-8.1,4.4c1.3-6.1,2.4-11.3,3.4-16.3l0.9-4.2c3-15,6.2-30.5,8.1-45.9
		c0.1-1.1-1.2-2.4-2.1-2.6c-0.7-0.1-1.3,0.3-1.4,1c-1.8,8.4-3.4,16.9-5,25.2c-1.5,8.1-3.1,16.5-4.9,24.7c-1.4,6.6-2.9,13.3-4.6,20.6
		c-8.4,3.4-17.3,5.5-24.9,7.2c-1.1,0.3-1.4,1.1-1.3,1.8c0.2,1.2,2,2.7,3.3,2.6c6.8-0.4,14-2.1,21.4-4.9c-0.4,1.5-0.8,3-1.2,4.5
		c-1.6,5.9-3.3,12-3.7,18.1c-0.1,1.1,1.3,2.3,2.2,2.6c0.1,0,0.3,0.1,0.4,0.1c0.6,0,1.1-0.3,1.3-0.9c2.5-5.8,3.7-12.2,4.9-18.4
		c0.4-2.1,0.8-4.4,1.3-6.5l0.4-1.8c4.1-1.9,8.2-4,12.2-6.4c12.3-7.5,22.9-17.5,30.6-28.9C439.5,334.8,442,321.9,436.8,311.5z"/>
	<path class="st4" d="M592.5,353.6c-0.7-0.6-2.1-1.1-3-0.4c-0.1,0.1-0.4,0.4-0.5,0.9c-1.5-0.9-3-1.2-4.6-0.9
		c-6.2,1.2-11.2,11.6-12.6,14.7c-2.8,6.4-8.4,22,1.3,28.5c1.6,1.1,3.3,1.6,5,1.6c0.7,0,1.4-0.1,2.1-0.3c4.8-1.2,9.5-6.4,14.3-15.7
		C599.3,373.1,600.4,360.8,592.5,353.6z M591.7,375.8c-1.2,3.2-3.1,6.4-5.9,10.3l-0.5,0.6c-1.9,2.7-4.3,6-7.3,6.6
		c-1.6,0.3-2.9,0.1-3.8-0.8c-2.2-2.1-2.3-7.5-1.7-11.5c0.5-3.4,1.5-6.8,2.8-10.2c2.6-6.5,6.7-13.8,10.5-14.6
		c0.2-0.1,0.5-0.1,0.7-0.1c0.9,0,1.8,0.4,2.7,1.2c0.5,0.5,1.1,0.4,1.5,0.1C593.9,363.5,594.2,369.3,591.7,375.8z"/>
	<path class="st4" d="M646.6,345.1c-9,3.3-18.5,6.1-27.7,8.7l1.5-7.1c6.9-2.5,12.3-7.5,15.2-14.2c1.8-4,3.6-12.4,1.1-17.7
		c-1.1-2.3-2.8-3.8-5.2-4.4c-4.6-1.3-8.1,2.3-9.6,6.4c-1.5,4.3-2.4,9-3.3,13.6c-0.4,2-0.8,4.1-1.2,6.1l-1.7,7.7c-2.3,0.7-4.6,1-7,1
		c-0.6,0-1.1,0.5-1.1,1.1c0,0.7,0.8,2,1.8,2c1.8,0.1,3.7,0,5.5-0.3l-1.6,7.3c-3.6,1-7.3,2.2-11.2,3.3c-0.6,0.2-1.1,0.8-0.8,1.7
		c0.3,0.9,1.4,2,2.4,1.7c3-0.8,6-1.7,8.6-2.4l-0.6,2.7c-1.1,5-2.2,10-3.3,15c-1.1,4.8-2.3,9.7-3.4,14.5c-2.5,10.4-5.1,21.2-6.8,31.9
		c-0.3,1.5,1.5,2.9,2.8,3.2c0.2,0,0.4,0.1,0.6,0.1c0.9,0,1.6-0.5,1.9-1.4c2.6-9.4,4.5-19.3,6.4-28.8c0.8-4.3,1.7-8.7,2.6-13
		c1.8-8.6,3.7-17.2,5.5-25.8l1.4-0.4c9.8-2.9,19.9-5.8,29.9-8.1c0.7-0.2,1.2-0.6,1.3-1.2c0.2-0.8-0.2-1.7-1.1-2.5
		C648.6,345.1,647.5,344.7,646.6,345.1z M621.6,341.5L621.6,341.5c0.5-2.2,0.9-4.5,1.4-6.8c0.9-4.5,1.9-9.1,3-13.6V321
		c0.3-1.3,0.7-2.6,1.3-3.7c0.8-1.4,2.2-2.7,3.4-2.7l0,0c0.8,0,1.5,0.6,2.1,1.8c1.3,2.3,0.6,6.6,0.3,8.5c-1.1,7.2-5.3,13.3-11.6,17
		L621.6,341.5z"/>
	<path class="st4" d="M695.4,353.6c-0.9-0.3-1.8,0.1-2.1,1l0,0c-2.6,7.5-5.6,14.6-8.8,21c-0.5,1.1-1.1,2.2-1.6,3.3
		c-2.5,5.2-5.3,11.1-9.1,15c-0.8,0.8-2,1.4-2.6,1.2c-0.4-0.1-0.6-0.7-0.6-1.1c-0.2-1.1,0.2-2.6,0.5-3.9c0.1-0.5,0.2-1,0.3-1.5
		l2.1-11.4c0.4-2,0.7-4,1.1-6c1-5.4,2-10.9,2.8-16.4c0.2-1.1-1.2-2.4-2.1-2.6c-0.7-0.1-1.3,0.3-1.5,0.9c-1.8,7.2-3.3,14.7-4.7,21.9
		c-0.6,3.1-1.2,6.1-1.8,9.2c-0.1,0.4-0.2,0.9-0.3,1.4c-0.8,3.7-2,8.8,0.1,12c0.9,1.4,2.3,2.3,4.2,2.7c1.9,0.4,4.9,0,8-4.1
		c2.6-3.4,4.7-7.3,6.7-11.1l0.6-1.2c0.1-0.2,0.2-0.3,0.3-0.5c-0.7,3.1-1.5,6.2-2.2,9.3c-4,16.7-8.1,34.1-11.4,51.2
		c-0.3,1.7,1.5,3.2,3,3.5c0.2,0,0.4,0.1,0.6,0.1c1,0,1.8-0.6,2-1.5c0.2-0.7,0.4-1.5,0.6-2.3c3.9-16.2,7.2-32.7,10.4-48.8
		c2.5-12.5,5.1-25.4,8-38.1C698.1,355.5,696.6,353.9,695.4,353.6z"/>
	<path class="st4" d="M724.7,352.9c-1.2,0.1-2.4,0.5-3.3,1.2c0-0.1-0.1-0.2-0.2-0.3c-0.6-0.9-1.4-1-1.9-0.7
		c-9.4,5.2-15.6,15.5-16.4,26.9c-0.3,4.5,0.1,10.8,3.5,15.1c1.8,2.3,4.8,4.1,7.9,4.1c1.4,0,2.7-0.3,4.1-1.1c5-2.9,8.7-9,11-13.4
		c2.9-5.4,4.7-11,5.3-16.7c0.6-5.7-0.4-9.7-3.3-12.5C729.7,353.8,727,352.8,724.7,352.9z M730.1,366.2c-0.4,3.2-1.2,6.6-2.6,10.1
		c-1.4,3.6-3.2,7-5.3,10.1l-0.4,0.5c-1.8,2.6-4.7,6.8-7.6,7.4c-1.4,0.3-4.1-1.3-5-2.7c-0.4-0.7-0.6-1.6-0.9-2.5l-0.1-0.2
		c-0.4-1.7-0.6-3.4-0.7-5.4c-0.1-3.8,0.4-7.6,1.7-11.3c2-5.9,5.7-11.1,10.9-15.5c0.1,0.4,0.4,0.8,0.8,1.2c0.8,0.8,1.8,1,2.5,0.4
		c1.1-0.9,2.4-1.2,3.5-0.9c1.3,0.4,2.4,1.6,2.9,3.2C730.4,362.4,730.3,364.3,730.1,366.2z"/>
	<path class="st4" d="M809.5,345c-9.9,1.7-16.1,12.1-20.6,19.7l-0.1,0.1c-1.8,3-3.4,6.1-5,9.3c0.1-1.3,0.3-2.6,0.5-4
		c0.5-4.1,1-8.2,0.7-12.1c0.2-0.3,0.4-0.6,0.6-0.9s0.4-0.9-0.1-1.7c-0.3-0.6-0.9-1.1-1.5-1.4c-0.2-0.2-0.4-0.3-0.7-0.4
		c-0.4-0.1-0.9,0.1-1.1,0.5c-0.3,0.5-0.6,1-0.8,1.6l-1.9,3.1c-5.1,8.2-10.2,16.7-14.8,25.3c0.6-3.7,1.1-7.4,1.6-11
		c0.8-5.4,1.6-10.9,2.5-16.3c0.3-1.6-1.6-3.2-2.9-3.5c-1-0.2-1.8,0.3-2.1,1.3c-2.9,13.2-8.2,24.8-15.9,34.6
		c-0.2,0.2-0.3,0.5-0.5,0.8c-0.3,0.5-1.4,2-1.8,2l0,0c0,0-0.2-0.1-0.6-0.8c-0.2-0.4-0.2-2-0.2-2.7c0-0.4,0-0.7,0-1
		c-0.1-3.9,0-7.9,0.4-11.9c0.7-7.1,2.3-14,4.1-21c0.3-1-0.8-2.6-1.8-2.9c-0.7-0.2-1.4,0.1-1.7,0.8c-3.3,7.9-5.3,17.1-5.9,27.6
		c0,0.5-0.1,1-0.1,1.6c-0.4,5-1.1,14.4,5.4,15.5c3.4,0.6,5.6-2.4,7.3-4.5l0.4-0.5c2.1-2.7,4-5.5,5.7-8.5c-0.5,3.3-1.1,6.8-1.5,10.3
		c-0.2,1.7,1.8,3.3,3.2,3.6c0.1,0,0.3,0,0.4,0c0.9,0,1.6-0.6,1.8-1.5c0.1-0.4,0.2-0.9,0.3-1.4c4.7-7.2,9.1-14.7,13.4-22
		c1.1-1.9,2.3-3.9,3.4-5.8c-0.3,2.4-0.6,4.8-0.9,7.3l-2.4,20.3c-0.2,1.5,1.5,3.2,3.1,3.5c0.2,0,0.4,0.1,0.5,0.1
		c0.9,0,1.6-0.5,1.9-1.4c3-10.2,6.8-19.1,11.5-27.3c4.9-8.5,10.1-16.4,19-19.7c0.9-0.3,1.3-1.1,1.1-2
		C813,346.5,810.9,344.8,809.5,345z"/>
	<path class="st4" d="M900.7,340.7c5.6-17.6,0.1-27.7-2.5-31.2c-6.1-8.3-17.1-10-30.9-4.7c-13,5-24.2,13.7-32.5,25.3
		c-0.7,0.9,0.2,2.2,1,2.8c0.9,0.6,1.6,0.4,2-0.1c8.4-11,19.5-19.2,32-23.9c6.7-2.5,16.2-5.2,22.4-0.2c5.9,4.7,5.9,13.9,5.6,17.7
		c-1.5,20.8-16,39.6-39.9,51.8c0.6-3.2,1.3-6.3,1.9-9.5l1-5.1c0.8-4.1,1.7-8.2,2.6-12.2c2.4-11.3,4.9-23,6.6-34.6
		c0.2-1.1-1.1-2.7-2.2-3.1c-0.7-0.3-1.4,0-1.8,0.6c-0.7,1.2-1.5,2.2-2.4,3.3c-0.4,0.5-0.8,1.1-1.2,1.7c-0.6,0.8,0.1,1.9,0.6,2.4
		c0.3,0.3,0.6,0.4,0.9,0.4c-2.2,9-4.1,18.3-5.9,27.3c-0.8,4.1-1.7,8.1-2.5,12.2l-1.2,5.8c-1,4.7-2,9.4-3,14.1
		c-2.9,1.2-5.9,2.4-8.8,3.3c-1,0.3-1.6,1.1-1.5,2.1c0.2,1.6,2.2,3.1,3.4,3.2c1.6,0.2,3.3,0.3,4.9,0.5l-0.1,0.4
		c-1.3,5.7-2.7,11.7-3.1,17.6c-0.1,1.3,1.5,3,2.8,3.3c0.1,0,0.3,0,0.4,0c0.7,0,1.3-0.4,1.6-1.2c1.9-5.5,3-11.4,4-17.1
		c0.1-0.8,0.3-1.6,0.4-2.4l2.6,0.3c11.5,1.3,23.3,2.6,35.1,3.4c1.5,0.1,2.1-0.8,2.2-1.5c0.2-1.5-1.6-3.5-3.1-3.7
		c-11.3-1.6-22.9-2.7-34.1-3.7l-1.6-0.1l0,0C872.5,378.6,893,365,900.7,340.7z"/>
	<path class="st4" d="M911.1,354.7c-1.8,0.2-2,1.5-2.1,2.3c0,0.4,0.1,0.9,0.5,1.3c-2.3,11.4-4.6,23.2-7.3,34.9c0,0.1,0,0.1-0.1,0.2
		l-0.4,2c-0.3,1.6,1.5,3.1,2.9,3.5c0.2,0,0.4,0.1,0.5,0.1c0.9,0,1.5-0.5,1.7-1.4c3.3-14.1,5.5-27.8,6.4-40.6c0-0.7-0.4-1.4-0.8-1.8
		C912.1,354.9,911.6,354.7,911.1,354.7z"/>
	<path class="st4" d="M917.5,321.8c-0.7-0.1-1.3,0.3-1.5,0.9l0,0c-2,7.8-3.3,14-4.2,19.6c-0.2,1.3,1.4,2.9,2.5,3.1
		c0.1,0,0.2,0,0.3,0c0.7,0,1.2-0.4,1.4-1.1c1.7-7,2.8-14.3,3.6-19.9C919.8,323.3,918.5,322,917.5,321.8z"/>
	<path class="st4" d="M954.1,321.2c-1.1-0.2-2,0.3-2.2,1.3c-2.4,11.4-5,22.6-7.7,33.4l-0.8,3c-0.1,0.3-0.2,0.7-0.2,1
		c-0.2-0.4-0.4-0.8-0.6-1.2c-1.6-2.9-5-6-9.3-5.6c-3.6,0.4-6.5,3.2-8.6,8.5s-3.4,11.3-3.8,17.9c-0.3,4.5-0.4,15.2,4.3,18.4
		c1.7,1.2,3.8,1.2,6.3,0.1c3.7-1.7,6.2-6.1,8.1-10c-0.5,3.3-1,6.5-1.4,9.5c-0.2,1.7,1.7,3.2,3.2,3.5c0.1,0,0.3,0,0.4,0
		c0.9,0,1.6-0.6,1.8-1.5c2.5-12.7,4.7-25.7,6.9-38.3c2.1-12.1,4.2-24.5,6.6-36.8C957.3,323,955.5,321.5,954.1,321.2z M940.2,371.2
		c-1.8,5.9-3.7,10.6-5.9,14.7c-1,1.8-2.2,4.1-3.9,5.9c-1.3,1.4-1.6,1.8-2.9,1.3c-1.2-0.4-1.2-0.8-1.4-2.2c0-0.2,0-0.4-0.1-0.7
		c-0.6-5.5-0.4-11.1,0.6-16.7c0.9-5.1,2.1-10.3,5-13.8c1.1-1.3,2.6-2.1,4-2.1c0.1,0,0.3,0,0.4,0c1.5,0.2,2.7,1.2,3.5,2.8
		c1.2,2.5,0.9,5.8,0.5,8.8c0,0.4-0.1,0.8-0.1,1.2C940,370.7,940.1,370.9,940.2,371.2z"/>
	<path class="st4" d="M992.3,372.8c-1.5-0.7-2.4-0.1-2.8,0.6l0,0c-2.2,4.7-4.7,8.5-7.6,11.8c-2.6,2.9-8.7,9.8-13.3,9.1
		c-4.5-0.7-5.2-7.4-4.9-13.1c6.9-3.1,13-8.2,17.3-14.5c2.8-4.2,5.5-9.2,3.6-14c-1.3-3.2-4.2-5.5-7.3-5.7c-5.8-0.3-9.9,6.7-12.1,10.4
		c-2.9,5-4.9,10.4-5.8,16.1c-0.3,1.6-0.5,3.2-0.6,4.8c-2.2,0.9-4.4,1.7-6.8,2.4c-0.7,0.2-1,0.8-0.9,1.6c0.2,0.8,1.1,2,2.1,1.9
		c1.8-0.2,3.6-0.6,5.5-1.1c0.3,8.9,3.6,14.3,9.5,15.9c0.8,0.2,1.6,0.3,2.3,0.3c5.3,0,10-4.4,12.9-7.2c4.7-4.4,8.4-9.7,11-15.8
		C995,374.9,993.5,373.4,992.3,372.8z M967.5,364.3c1.1-2.5,4.5-10,9-12.2c1.3-0.7,2.3-0.8,2.8-0.2c1.3,1.2,0.8,5.7-0.2,7.8
		s-2.4,4.3-4.3,6.7c-2.9,3.6-6.5,6.7-10.7,9.2C964.8,371.7,965.9,367.9,967.5,364.3z"/>
	<path class="st4" d="M508.6,350.4c-1-1.3-2.8-2-3.9-1.2c-8.7,6.6-16.2,14.5-22.2,23.5c1.2-5.8,2.3-11.8,2.3-17.6
		c0-0.9-1.3-2.4-2.3-2.6c-0.5-0.1-0.9,0.1-1.2,0.5c-0.5,0-0.9,0.1-1.2,0.4c-6.8,7-12.8,14.9-17.3,21c-2,2.8-4.3,5.9-6.5,9.3
		c0.3-1.5,0.7-2.9,1-4.3l1.1-4.2c1.5-5.6,3-11.5,4.4-17.2c0.3-1.3-1.1-2.8-2.2-3.1c-0.9-0.3-1.6,0.1-1.9,0.9c-2.9,7.5-7,15.2-12,23
		c-2.2,3.4-4.7,6.8-7.2,10.1c-0.3,0.4-0.6,0.8-0.9,1.2c-1,1.4-2.1,2.7-3.2,3.8c-0.6,0.6-1.1,0.7-1.2,0.7c0,0-0.9-0.4-1.3-3.9
		c-1.7-16,7.4-30.2,23.7-37c0.5-0.2,0.9-0.8,0.7-1.7c-0.2-0.7-1.2-2.1-2.4-1.8c-9.1,2.3-17.5,8.9-22.3,17.5
		c-4.5,8.1-7,20.4-3.1,28.2c1.2,2.4,2.7,3.7,4.6,3.8c4.6,0.3,9.6-6.9,12.3-10.8c0.3-0.4,0.5-0.8,0.7-1.1c1.5-2.2,3-4.5,4.5-6.8
		c-0.2,0.5-0.3,1-0.5,1.4c-1.6,4.8-3.2,9.8-3.7,14.7c-0.1,1.3,1.3,2.9,2.5,3.2c0.2,0,0.3,0.1,0.5,0.1c0.7,0,1.3-0.4,1.6-1.1
		c0.3-0.7,0.6-1.5,0.9-2.3c1.9-2.6,3.7-5.3,5.4-8c2.6-3.9,5.3-7.8,8.1-11.6c4.1-5.4,8.5-10.7,12.9-15.7c-0.3,1.6-0.6,3.2-0.9,4.7
		c-0.5,2.9-1.1,5.9-1.8,8.7c-1.7,7.2-3.6,14.4-5.8,21.4c-0.5,1.6,1.2,3,2.5,3.5c0.3,0.1,0.6,0.1,0.9,0.1c0.8,0,1.5-0.5,1.8-1.3
		c6.2-18.3,17.5-34,32.6-45.6C509.4,352.8,509.4,351.6,508.6,350.4z"/>
	<path class="st4" d="M541.5,332.8c-4.2,0.1-8.5,0.7-12.9,1.6c1.2-5.6,2-10.3,2.7-14.8c0.1-1-1-2.4-1.9-2.6
		c-0.6-0.2-1.2,0.2-1.5,0.8c-1.7,5.1-3.3,10.9-5,18.1c-3.7,1.1-7.4,2.4-11.1,4.1c-0.9,0.4-1.3,1.5-0.9,2.7v0.1
		c0.2,0.5,0.5,1.6,1.5,1.9c2.4,0.7,3.7,0.1,5.4-0.6c0.4-0.2,0.9-0.4,1.4-0.6c0.7-0.3,1.3-0.5,2-0.7c-0.5,2.1-1,4.2-1.4,6.3
		c-0.8,3.7-1.7,7.3-2.5,10.9l-4.9,20.7c-0.9,3.6-1.7,7.2-2.5,10.8c-0.2,0.7-0.4,1.5-0.6,2.2c-0.7,2.4-1.3,5-1.2,7.6
		c0.1,0.9,1.2,2.6,2.4,2.8c0.1,0,0.2,0,0.4,0c0.6,0,1.1-0.3,1.4-0.9c1.3-2.2,1.8-4.8,2.3-7.2c0.1-0.7,0.3-1.5,0.5-2.2
		c0.8-3.6,1.7-7.2,2.5-10.8l4.7-20.7c0.8-3.5,1.7-7.1,2.5-10.7c0.8-3.6,1.7-7.1,2.5-10.7c4.7-1.2,9.8-2,15.9-2.5
		c1.7-0.1,2.2-1.2,2.2-2.1C545.3,334.7,543.3,332.7,541.5,332.8z"/>
</g>
<g>
	<path class="st4" d="M414.5-18.1c7-0.1,14.3-1.3,21.6-3.6c-0.5,1.4-0.9,2.9-1.4,4.3c-2,5.9-4,11.9-4.7,17.9c-0.2,1,1,2.4,2,2.7
		c0.2,0.1,0.4,0.1,0.6,0.1c0.5,0,1-0.3,1.3-0.8c2.7-5.6,4.3-11.8,5.9-17.8c0.6-2.2,1.1-4.5,1.8-6.6c0.1-0.4,0.2-0.7,0.3-1.1
		c0.1-0.2,0.1-0.4,0.2-0.6c3.9-1.5,8-3.4,12.5-5.7c12.6-6.7,23.7-16,32.2-27.1c11-14.7,14.1-27.1,9.4-37.8l0,0
		c-2.1-4.8-9.3-16-30.5-14.9c-16.4,0.7-33.5,7-48.1,17.5c-0.6,0.4-0.8,1.3,0,2.4c0.7,1,1.6,1,2.1,0.7c11.4-8,24.5-13.4,37.8-15.6
		c24-4,32.3,3.7,35,11c3.7,10.1-0.1,21.8-11.8,35.7c-7.7,9.1-17.6,17.1-28.5,23c-3,1.6-5.7,2.9-8.3,3.9c1.5-5.4,2.9-10.8,4.4-16.1
		l0.7-2.6c4-15.4,8.2-31.2,11.1-47c0.2-1-1-2.5-2-2.7c-0.7-0.1-1.3,0.2-1.5,0.9c-2.2,8.2-4.3,16.5-6.3,24.6S446.2-57,444-48.8
		c-1.6,5.7-3.2,11.5-4.8,17.1l-0.9,3.3c-8.4,2.8-17.1,4.4-25.4,5.8c-1.2,0.2-1.5,1-1.4,1.7C411.5-19.6,413.3-18.1,414.5-18.1z"/>
	<path class="st4" d="M420,36.9c-0.6-0.6-2.1-1.1-3-0.4c-0.1,0.1-0.4,0.4-0.5,0.8c-1.4-0.9-2.9-1.1-4.5-0.8
		c-5.8,1.2-10.7,10.7-12.5,14.8c-2.8,6.4-8.4,22,1.3,28.5c1.6,1.1,3.3,1.6,5,1.6c0.7,0,1.4-0.1,2.1-0.3c4.8-1.2,9.5-6.4,14.4-15.7
		C428.9,52,425.2,41.7,420,36.9z M416.7,40L416.7,40L416.7,40L416.7,40L416.7,40L416.7,40z M419.1,59c-1.3,3.2-3.1,6.4-5.9,10.3
		c-0.2,0.3-0.5,0.7-0.7,1c-1.9,2.5-4.2,5.7-7.1,6.3c-1.7,0.3-2.9,0.1-3.8-0.8c-2.1-2-2.3-7.1-1.6-11.4c0.5-3.4,1.4-6.8,2.8-10.2
		c2.6-6.5,6.7-13.8,10.5-14.7c0.2-0.1,0.5-0.1,0.7-0.1c0.9,0,1.8,0.4,2.6,1.2c0,0,0.1,0,0.1,0.1c0.5,0.4,1,0.2,1.2,0.1
		c0,0,0.1,0,0.1-0.1C421.3,46.8,421.6,52.6,419.1,59z"/>
	<path class="st4" d="M478,31.7c0.2-0.8-0.2-1.7-1-2.5c-0.9-0.9-2-1.2-2.9-0.9c-8.2,3-16.8,5.5-25.1,8l-2.5,0.7
		c0.2-0.9,0.4-1.7,0.5-2.6c0.3-1.5,0.6-3,1-4.4c6.9-2.6,12.3-7.6,15.2-14.2c1.8-4,3.6-12.3,1.1-17.6c-1.1-2.3-2.8-3.8-5.1-4.5
		c-4.9-1.4-8.2,2.6-9.6,6.4c-1.5,4.1-2.3,8.6-3.2,13c-0.4,2.2-0.9,4.5-1.4,6.7c-0.3,1.4-0.6,2.8-0.9,4.1c-0.3,1.2-0.5,2.4-0.8,3.6
		c-2.2,0.7-4.6,1-7,1c-0.3,0-0.6,0.2-0.8,0.4s-0.3,0.5-0.3,0.8c0,0.7,0.8,2,1.8,2l0,0c1.8,0.1,3.6,0,5.4-0.3l-1.6,7.3
		c-3.7,1.1-7.5,2.2-11.2,3.4c-0.7,0.2-1,0.9-0.8,1.6c0.2,0.8,1.2,2,2.4,1.8c2.9-0.8,5.8-1.6,8.6-2.4c-0.6,2.7-1.2,5.4-1.8,8
		c-0.7,3.2-1.4,6.4-2.1,9.6c-1.1,5.1-2.4,10.3-3.6,15.3c-2.4,10.2-5,20.7-6.6,31.1c-0.2,1.5,1.5,2.9,2.9,3.1c0.2,0,0.4,0.1,0.5,0.1
		c0.9,0,1.6-0.5,1.9-1.4c2.7-9.9,4.7-20.1,6.6-30c0.8-3.9,1.6-7.8,2.4-11.7l5.6-25.8c10.2-3,20.8-6.1,31.2-8.5
		C477.7,32.7,478,32,478,31.7z M449,24.8C449.1,24.8,449.1,24.8,449,24.8c0.6-2.6,1.1-5.1,1.6-7.7c0.9-4.2,1.7-8.6,2.8-12.8
		c0.3-1.2,0.6-2.7,1.3-3.8c0.8-1.4,2.2-2.7,3.4-2.7l0,0c0.8,0,1.5,0.6,2.1,1.8c1.2,2.2,0.6,6.1,0.3,8.4c-1.2,7.2-5.4,13.3-11.6,17
		C449,25,449,24.9,449,24.8z"/>
	<path class="st4" d="M531.3,91.7c-0.3,1.7,1.5,3.2,3,3.5c0.2,0.1,0.5,0.1,0.7,0.1c1,0,1.7-0.5,2-1.5c0.2-0.6,0.4-1.5,0.5-2.4
		c3.8-16,7.2-32.5,10.4-48.4c2.5-12.6,5.2-25.6,8-38.4V4.5c0.1-1.4-1.5-3-2.8-3.3c-0.9-0.2-1.6,0.3-1.9,1.1
		c-2.6,7.6-5.6,14.6-8.7,21c-0.6,1.1-1.1,2.3-1.7,3.5c-2.5,5.2-5.3,11.1-9,14.9c-0.9,0.9-2,1.4-2.6,1.2c-0.4-0.1-0.6-0.7-0.6-1.2
		c-0.2-1,0.2-2.5,0.5-3.8c0.1-0.5,0.3-1.1,0.3-1.5l2.1-11.4c0.4-2.4,0.9-4.8,1.3-7.2c0.9-4.9,1.9-10.1,2.6-15.1
		c0.2-1-0.8-1.9-1.1-2.1c-0.6-0.5-1.2-0.7-1.7-0.5c-0.4,0.2-0.7,0.5-0.7,0.9c-1.8,7.5-3.4,15.3-4.9,22.8c-0.5,2.8-1.1,5.5-1.7,8.3
		c-0.1,0.5-0.2,1-0.3,1.6c-0.8,3.6-1.9,8.6,0.1,11.8c0.9,1.4,2.3,2.3,4.2,2.7c3.8,0.8,6.6-2.3,8-4.2c2.3-3.1,4.2-6.6,6.1-10
		c0.4-0.7,0.8-1.5,1.2-2.2c0.1-0.2,0.2-0.5,0.4-0.7c-0.8,3.4-1.6,6.8-2.4,10.2C538.6,57.7,534.6,74.7,531.3,91.7z"/>
	<path class="st4" d="M587.6,32.6c3-5.6,4.7-11.2,5.3-16.8c0.5-5.5-0.6-9.7-3.4-12.4l0,0c-1.9-1.8-4.4-2.9-6.7-2.7
		c-1.2,0.1-2.4,0.5-3.3,1.2c-0.1-0.2-0.2-0.3-0.3-0.5c-0.6-0.8-1.3-0.7-1.7-0.5c-9.4,5.2-15.7,15.5-16.4,26.9
		c-0.4,6.6,0.8,11.6,3.5,15.1c1.9,2.3,4.8,4.1,8,4.1c1.3,0,2.7-0.3,4.1-1.1C580.4,43.8,584.1,39.3,587.6,32.6z M572.1,42.3
		c-1.5,0.3-4.1-1.3-5-2.7c-0.5-0.7-0.6-1.6-0.8-2.5V37c-0.5-2-0.7-3.8-0.7-5.4c-0.1-3.9,0.5-7.7,1.7-11.4c2-5.8,5.6-11,10.8-15.5
		c0.2,0.4,0.5,0.8,0.8,1.1c0.8,0.8,1.8,0.9,2.5,0.3c1.1-0.9,2.3-1.2,3.5-0.8c1.3,0.4,2.4,1.5,2.9,3.2c0.6,1.8,0.3,3.8,0.2,5.5
		c-0.3,3-1.2,6.2-2.5,10.2c-1.4,3.8-3.2,7.2-5.4,10.2l-0.4,0.6C577.9,37.4,574.9,41.6,572.1,42.3z"/>
	<path class="st4" d="M675.4-16.5c-0.4-1.3-2.4-2.9-3.8-2.7c-9.9,1.7-16.1,12.1-20.6,19.8l-0.1,0.1c-1.7,2.8-3.4,6-5,9.4
		c0.1-1.4,0.3-2.9,0.5-4.4c0.6-5,1.3-10.2,0.1-14.9l0,0c-0.1-0.5-0.6-1.1-1.2-1.3c-0.4-0.1-0.9,0.1-1.2,0.5c-0.9,1.5-1.4,3.3-1.7,5
		c-0.1,0.1-0.2,0.2-0.3,0.4l0,0c-1.1,1.9-2.3,3.8-3.4,5.6c-4.7,7.7-9.5,15.6-13.8,23.7c0.5-3.4,1-6.8,1.5-10.2
		C627.2,9,628,3.2,629-2.3v-0.1c0.1-1.7-1.8-3.3-3.2-3.4c-1-0.1-1.7,0.4-1.9,1.4C621,8.8,615.7,20.4,608,30.2
		c-0.2,0.2-0.4,0.5-0.6,0.8c-0.4,0.5-1.4,1.9-1.8,2c0,0-0.2-0.1-0.5-0.7c-0.2-0.5-0.2-2.1-0.1-2.9c0-0.3,0-0.6,0-0.8
		c-0.1-4.3,0-8.1,0.4-11.9c0.7-7.3,2.5-14.6,4.1-20.9c0.4-1.1-0.8-2.5-1.7-2.9c-0.7-0.3-1.5,0-1.8,0.7c-3.3,8-5.3,17.3-5.9,27.6
		c0,0.5-0.1,1.1-0.1,1.8c-0.4,5.3-1,14.3,5.4,15.4c3.5,0.6,5.9-2.6,7.6-4.9l0.1-0.1c2.1-2.7,4-5.6,5.8-8.6
		c-0.6,3.7-1.1,7.1-1.6,10.4c-0.2,1.7,1.7,3.3,3.1,3.6c0.1,0,0.3,0,0.4,0c0.9,0,1.6-0.6,1.8-1.5c0.1-0.5,0.2-1.1,0.3-1.6
		c4.8-7.3,9.2-14.9,13.5-22.3c1.5-2.7,3.1-5.4,4.7-8.1c-0.2,1.7-0.4,3.3-0.6,5l-2.4,20.3c-0.2,1.5,1.4,3.1,3,3.5
		c0.2,0,0.4,0.1,0.6,0.1c0.9,0,1.7-0.5,2-1.4c2.9-9.8,6.7-19,11.5-27.3c4.9-8.5,10.1-16.4,19-19.7C675.2-14.8,675.7-15.6,675.4-16.5
		z"/>
	<path class="st4" d="M511,159.6c0.2-1.5-1.6-3.5-3.1-3.8c-10.9-1.6-22-2.6-32.8-3.5l-2.9-0.3c16.1-7.2,36.7-20.9,44.3-45.1l0,0
		c2.3-7.3,5-21-2.4-31.2c-7.8-10.6-21.1-8.4-31-4.7c-12.9,4.9-24.2,13.6-32.6,25.4c-0.6,1,0.4,2.3,1.1,2.8c0.8,0.5,1.5,0.3,1.8-0.2
		c8.3-10.9,19.4-19.2,32-23.9c7.2-2.6,16.3-5.1,22.4-0.3c5.8,4.6,5.9,13.9,5.6,17.7c-1.5,20.8-16,39.7-39.8,51.9l0.1-0.4
		c0.9-4.7,1.9-9.5,2.9-14.2c0.7-3.5,1.4-6.9,2.2-10.4c2.5-11.9,5.1-24.3,6.9-36.5c0.2-1.1-1.1-2.7-2.2-3.1c-0.7-0.3-1.5,0-1.9,0.6
		c-0.9,1.4-1.9,2.7-2.9,4.1l-0.7,1c-0.6,0.8,0.2,2,0.7,2.5c0.3,0.2,0.6,0.3,0.8,0.3c-2.3,9.4-4.2,19-6.1,28.3
		c-0.8,3.7-1.5,7.4-2.3,11.1c-0.7,3.4-1.4,6.8-2.1,10.1c-0.7,3.2-1.4,6.4-2,9.6c-2.9,1.2-5.9,2.3-8.7,3.4c-1.1,0.3-1.6,1.1-1.5,2.1
		c0.2,1.5,2.1,3.1,3.4,3.2l4.9,0.5c-0.1,0.5-0.2,1.1-0.4,1.6c-1.2,5.3-2.5,10.9-2.8,16.3c-0.1,1.4,1.4,3,2.7,3.3c0.1,0,0.3,0,0.4,0
		c0.7,0,1.3-0.4,1.6-1.2c1.9-5.5,3-11.4,4-17.1c0.1-0.8,0.3-1.5,0.4-2.3l4.1,0.4c11,1.2,22.4,2.5,33.6,3.3
		C510.3,161.2,510.9,160.4,511,159.6z"/>
	<path class="st4" d="M518.1,159.7c0,0.1,0,0.2,0,0.2c0,0.3-0.1,0.6-0.2,0.9c-0.1,0.4-0.2,0.7-0.2,1c-0.3,1.6,1.4,3.1,2.8,3.4
		c0.2,0,0.4,0.1,0.6,0.1c0.9,0,1.6-0.5,1.8-1.4c3.3-14.1,5.5-27.8,6.4-40.7c0-0.2,0-0.3-0.1-0.4c-0.2-0.5-1-1.9-2.2-1.9h-0.1
		c-1.9,0.2-2,1.5-2.1,2.5c0,0.3,0.2,0.9,0.6,1.3l-1,5.2C522.4,139.6,520.4,149.7,518.1,159.7z"/>
	<path class="st4" d="M557.2,161.4c0.1,0,0.3,0,0.4,0c0.9,0,1.6-0.6,1.8-1.5c2.5-12.5,4.6-25.2,6.8-37.5c2.1-12.3,4.3-25,6.8-37.5
		c0.2-1.7-1.7-3.4-3.1-3.6c-1-0.2-1.8,0.4-2,1.4c-2.1,10-4.6,20.6-7.7,33.3c-0.3,1.3-0.7,2.7-1,4c-0.2-0.4-0.4-0.8-0.6-1.2
		c-1.7-3.1-5.2-6-9.3-5.5c-3.7,0.4-6.5,3.1-8.6,8.5c-2.1,5.4-3.4,11.5-3.9,17.9c-0.2,3.5-0.6,15,4.3,18.4c1.7,1.2,3.9,1.2,6.3,0.1
		c3.7-1.7,6.2-6,8.1-9.9c-0.5,3.2-1,6.4-1.4,9.5C553.8,159.6,555.8,161.2,557.2,161.4z M550,146.1L550,146.1
		c-1.2,2.3-2.5,4.3-3.8,5.8l-0.2,0.2c-1.2,1.3-1.6,1.7-2.8,1.2c-1.2-0.5-1.3-0.9-1.4-2.4l-0.1-0.5c-0.7-5.2-0.5-10.8,0.6-16.8
		c0.9-4.5,2-10.2,5-13.7c1.1-1.3,2.6-2.1,4-2.1c0.2,0,0.3,0,0.5,0c1.4,0.2,2.6,1.1,3.5,2.8c1.2,2.4,0.9,5.6,0.6,8.4
		c-0.1,0.5-0.1,1.1-0.2,1.7c0,0.2,0.1,0.4,0.2,0.6C554.4,136.8,552.4,141.7,550,146.1z"/>
	<path class="st4" d="M610.7,128.9c-1.4-0.5-2.2,0.1-2.5,0.8c-2.3,4.7-4.8,8.6-7.6,11.8c-2.6,2.9-8.6,9.8-13.3,9.1
		c-4.4-0.7-5.1-7.4-4.9-13.1c7-3.1,13.1-8.3,17.3-14.5c2.9-4.2,5.5-9.2,3.6-14c-1.2-3.3-4.1-5.5-7.3-5.7c-6-0.3-10.1,6.9-12.1,10.4
		c-3,5.2-4.9,10.6-5.8,16.1c-0.3,1.5-0.5,3.1-0.6,4.8c-2.2,1-4.5,1.7-6.9,2.4c-0.6,0.2-1.1,0.8-0.8,1.7c0.2,0.8,1.1,1.9,2.1,1.7
		c1.8-0.2,3.7-0.6,5.5-1.2c0.3,8.8,3.6,14.3,9.5,15.8c0.8,0.2,1.6,0.3,2.3,0.3c5.2,0,9.7-4.2,12.9-7.1c4.8-4.6,8.5-9.9,11.1-15.8
		C613.7,130.9,612.1,129.4,610.7,128.9z M586.3,120.4c1.1-2.5,4.5-9.9,8.9-12.2c1.3-0.7,2.3-0.8,2.8-0.2c1.3,1.2,0.8,5.7-0.2,7.9
		c-0.9,2.1-2.3,4.2-4.3,6.7c-3,3.7-6.5,6.7-10.7,9.3C583.5,127.9,584.6,124.1,586.3,120.4z"/>
	<path class="st4" d="M569.7-14.2c0.2,0,0.3,0.1,0.4,0.1c0.6,0,1.1-0.3,1.4-0.9c1.2-2.3,1.8-4.9,2.3-7.4c0.1-0.7,0.3-1.4,0.4-2.1
		c0.8-3.5,1.6-7.2,2.5-10.7c1.6-6.8,3.2-13.8,4.7-20.7c0.8-3.3,1.5-6.5,2.3-9.8c0.9-3.9,1.8-7.7,2.7-11.6c4.8-1.3,10.1-2.1,15.9-2.5
		c1.6-0.1,2-1.2,2-2c-0.1-1.5-2-3.5-3.9-3.5h-0.1c-4.5,0.2-8.8,0.7-12.8,1.6c1-4.8,1.9-9.8,2.7-14.8c0.2-1-1-2.5-1.9-2.7
		c-0.7-0.2-1.3,0.2-1.4,0.8c-1.9,5.8-3.4,11.7-5.1,18.1c-3.9,1.1-7.6,2.5-11.1,4.1c-0.9,0.5-1.2,1.5-0.8,2.7
		c0.1,0.5,0.5,1.7,1.6,2.1c2.4,0.7,3.7,0.1,5.4-0.6c0.4-0.2,0.9-0.4,1.5-0.6c0.6-0.3,1.3-0.5,2-0.7c-1,4.1-1.9,8.2-2.8,12.2l-1.1,5
		c-0.8,3.4-1.6,6.9-2.4,10.3c-0.8,3.5-1.7,6.9-2.4,10.3c-0.7,2.9-1.4,5.9-2.1,8.8l-0.4,1.9c-0.2,0.8-0.4,1.5-0.6,2.3
		c-0.6,2.4-1.3,4.9-1.1,7.4C567.4-16.2,568.5-14.5,569.7-14.2z"/>
	<path class="st4" d="M489.3-43.3c-4.5,8.1-7,20.4-3.1,28.2c1.2,2.4,2.8,3.7,4.6,3.8c4.7,0.3,9.7-7,12.3-11c0.2-0.4,0.5-0.7,0.6-0.9
		c1.6-2.2,3.1-4.5,4.5-6.8c-0.1,0.4-0.3,0.8-0.4,1.2c-1.6,4.9-3.3,9.9-3.7,14.9c-0.1,1.3,1.3,2.9,2.6,3.2c0.2,0,0.3,0.1,0.5,0.1
		c0.7,0,1.3-0.4,1.6-1.1c0.1-0.3,0.2-0.5,0.3-0.8c0.2-0.4,0.4-0.9,0.5-1.4c1.9-2.6,3.7-5.3,5.4-8c2.6-3.8,5.2-7.8,8.1-11.6
		c4.1-5.5,8.6-10.8,13-15.9c-0.3,1.5-0.6,3-0.9,4.5c-0.6,3-1.1,6.2-1.9,9.2c-1.9,7.8-3.7,14.9-5.8,21.4c-0.5,1.5,1.2,3,2.5,3.5
		c0.3,0.1,0.6,0.1,0.8,0.1c0.8,0,1.5-0.5,1.8-1.3c6.2-18.3,17.5-34.1,32.7-45.6c0.5-0.4,0.8-1.1,0.7-1.7c-0.2-1.2-1.3-2.2-2.4-2.6
		c-0.8-0.3-1.6-0.2-2.2,0.2c-8.8,6.7-16.2,14.6-22.2,23.5c1.2-5.8,2.3-11.8,2.3-17.7c0-0.9-1.3-2.4-2.3-2.6c-0.5,0-0.9,0.2-1.1,0.5
		c-0.5-0.1-0.9,0.1-1.3,0.4l0,0c-6.6,6.8-12.5,14.4-17.3,20.9c-2.6,3.5-4.7,6.5-6.6,9.3c0.3-1.5,0.7-3,1-4.4
		c1.9-7.1,3.7-14.3,5.5-21.3c0.3-1.3-1.1-2.8-2.2-3.1c-0.8-0.2-1.6,0.1-1.9,0.9c-3,7.5-7,15.3-12,23c-2.5,3.8-4.8,7.1-7.3,10.1
		l-0.7,0.9c-1.1,1.5-2.2,3-3.5,4.1c-0.6,0.6-1.1,0.7-1.2,0.7c-0.1-0.1-0.9-0.5-1.3-4c-1.3-15.6,8-30.1,24-36.9
		c0.5-0.2,0.9-0.8,0.7-1.6c-0.2-0.8-1.2-2.1-2.4-1.9C502.5-58.6,494.1-52,489.3-43.3z"/>
	<path class="st4" d="M572.6,191.3c-10.3-1.3-21.9,0.6-32.1,2.3l-1.5,0.2c-11.7,1.9-23.2,4.9-34,8.8c-0.4,0.2-0.9,0.3-1.4,0.4
		c-2.4,0.7-5.9,1.7-5,5.6c0.5,1.7,2.9,4.2,5,4.2c0.1,0,0.1,0,0.2,0c1.8,0,2.6-0.9,2.9-1.5c0.5-0.9,0.5-2,0.1-3.2
		c2.6-0.4,5.3-1.4,8-2.4c1.9-0.7,3.8-1.4,5.5-1.8c6.2-1.6,11.8-2.9,17.1-3.8c6.2-1.1,12.3-1.9,18.6-2.4c2.8-0.2,5.6-0.3,8.4-0.3
		c3.4-0.1,7-0.1,10.4-0.5c1.4-0.2,1.9-1,1.9-1.8C576.6,193.7,573.9,191.4,572.6,191.3z"/>
</g>
<path class="st2" d="M-226,367l1.5,5.2h3l-1.5-5.2H-226z M-211.2,388.8c2.4-2.3,4-5.6,4-9.2c0-7-5.7-12.6-12.6-12.6h-1.6l1.5,5.2
	h0.1c4.1,0,7.4,3.3,7.4,7.4c0,4.1-3.3,7.4-7.4,7.4h0h-0.4l1.5,5.2l1.2,0c4.1,0,7.4,3.3,7.4,7.4s-3.3,7.4-7.4,7.4h-1.5l1.5,5.2h0
	c7,0,12.6-5.7,12.6-12.6C-205,395.1-207.5,391-211.2,388.8 M-224.8,387l1.5,5.2l3,0l-1.5-5.2L-224.8,387z M-227.5,367h-3l1.5,5.2h3
	L-227.5,367z"/>
<polygon class="st0" points="-463,367 -461.5,372.2 -458.5,372.2 -460,367 "/>
<path class="st0" d="M-448.2,388.8c2.4-2.3,4-5.6,4-9.2c0-7-5.7-12.6-12.6-12.6h-1.6l1.5,5.2h0.1c4.1,0,7.4,3.3,7.4,7.4
	c0,4.1-3.3,7.4-7.4,7.4h0h-0.4l1.5,5.2l1.2,0c4.1,0,7.4,3.3,7.4,7.4s-3.3,7.4-7.4,7.4h-1.5l1.5,5.2h0c7,0,12.6-5.7,12.6-12.6
	C-442,395.1-444.5,391-448.2,388.8"/>
<polygon class="st0" points="-461.8,387 -460.3,392.3 -457.4,392.3 -458.8,387 "/>
<polygon class="st0" points="-464.5,367 -467.5,367 -466,372.2 -463,372.2 "/>
</svg>
