<?xml version="1.0" encoding="utf-8"?>
<!-- Generator: Adobe Illustrator 21.1.0, SVG Export Plug-In . SVG Version: 6.00 Build 0)  -->
<!DOCTYPE svg PUBLIC "-//W3C//DTD SVG 1.1//EN" "http://www.w3.org/Graphics/SVG/1.1/DTD/svg11.dtd">
<svg version="1.1" id="Layer_1" xmlns="http://www.w3.org/2000/svg" xmlns:xlink="http://www.w3.org/1999/xlink" x="0px" y="0px"
	 viewBox="0 0 122.9 121.2" style="enable-background:new 0 0 122.9 121.2;" xml:space="preserve">
<style type="text/css">
	.st0{fill:#223063;}
	.st1{fill:#222F63;}
	.st2{fill:#FFFFFF;}
	.st3{fill:#1C1D1D;}
	.st4{fill:#1D1D1D;}
</style>
<path class="st3" d="M42.5,81.8c-0.8,1.9-2.2,2.9-4,2.9c-1.1,0-2-0.3-2.8-1l1.1-2.1c0.6,0.4,1,0.6,1.6,0.6c0.8,0,1.5-0.4,1.9-1.4
	l0.4-0.9l-5.1-12.1h2.8l3.7,9.3l3.4-9.3h2.7L42.5,81.8z"/>
<path class="st3" d="M59.8,69.8l-1.5,1.7c-0.9-0.9-2-1.4-3.5-1.4c-2.1,0-3.7,1.6-3.7,3.9s1.5,3.9,3.7,3.9c1.5,0,2.8-0.5,3.6-1.5
	l1.5,1.5c-1.1,1.5-2.9,2.3-5.2,2.3c-3.7,0-6.2-2.5-6.2-6.2c0-3.7,2.5-6.2,6.2-6.2C57,67.8,58.7,68.5,59.8,69.8"/>
<path class="st3" d="M34.4,69.8l-1.5,1.7c-0.9-0.9-2-1.4-3.5-1.4c-2.1,0-3.7,1.6-3.7,3.9s1.5,3.9,3.7,3.9c1.5,0,2.8-0.5,3.6-1.5
	l1.5,1.5c-1.1,1.5-2.9,2.3-5.2,2.3c-3.7,0-6.2-2.5-6.2-6.2c0-3.7,2.5-6.2,6.2-6.2C31.5,67.8,33.2,68.5,34.4,69.8"/>
<path class="st3" d="M34.4,88.3L32.9,90c-0.9-0.9-2-1.4-3.5-1.4c-2.1,0-3.7,1.6-3.7,3.9s1.5,3.9,3.7,3.9c1.5,0,2.8-0.5,3.6-1.5
	l1.5,1.5c-1.1,1.5-2.9,2.3-5.2,2.3c-3.7,0-6.2-2.5-6.2-6.2c0-3.7,2.5-6.2,6.2-6.2C31.5,86.3,33.2,87,34.4,88.3"/>
<rect x="62.2" y="63" class="st3" width="2.7" height="17.1"/>
<path class="st3" d="M68,67.9h2.6v12.3H68V67.9z M70.9,64.4c0,0.9-0.7,1.6-1.5,1.6c-0.9,0-1.5-0.7-1.5-1.6c0-0.9,0.7-1.6,1.5-1.6
	C70.2,62.7,70.9,63.4,70.9,64.4"/>
<path class="st3" d="M85.6,72.5v7.6h-2.7v-6.9c0-1.8-1.1-3-3-3c-2,0-3.3,1.4-3.5,3.3v6.5h-2.7V67.9h2.7v2.4c0.9-1.7,2.5-2.4,4.5-2.4
	C83.9,67.8,85.6,69.6,85.6,72.5"/>
<path class="st3" d="M97.1,73.7c0-2.2-1.5-3.8-3.5-3.8c-2.1,0-3.6,1.6-3.6,3.8c0,2.2,1.5,3.8,3.6,3.8C95.7,77.5,97.1,75.9,97.1,73.7
	 M99.8,78.9c0,3.5-2.5,5.7-6.4,5.7c-1.9,0-3.6-0.6-5.1-1.6l1.1-1.9c1.2,0.9,2.4,1.3,3.9,1.3c2.3,0,3.9-1.4,3.9-3.5v-1.5
	c-0.8,1.3-2.2,2.1-4.1,2.1c-3.3,0-5.5-2.4-5.5-5.9c0-3.5,2.2-5.8,5.5-5.8c1.9,0,3.3,0.7,4.2,2.1v-2h2.6V78.9z"/>
<path class="st3" d="M39.2,92.7c0,2.2,1.5,3.8,3.6,3.8c2.1,0,3.5-1.5,3.5-3.8c0-2.2-1.5-3.7-3.5-3.7C40.6,89,39.2,90.5,39.2,92.7
	 M48.7,92.7c0,3.5-2.5,5.9-6,5.9c-3.6,0-6.1-2.4-6.1-5.9c0-3.5,2.5-5.9,6.1-5.9C46.3,86.8,48.7,89.2,48.7,92.7"/>
<path class="st3" d="M70.3,91.3v7.2h-2.5V92c0-1.8-1-2.8-2.7-2.8c-2,0.1-3.2,1.6-3.2,3.6v5.7h-2.5V92c0-1.8-1-2.8-2.7-2.8
	c-2,0.1-3.2,1.6-3.2,3.6v5.7h-2.5V86.9h2.5v2.2c0.8-1.6,2.3-2.3,4.2-2.3c2.1,0,3.5,1,4,2.8c0.7-1.9,2.3-2.8,4.4-2.8
	C68.7,86.8,70.3,88.5,70.3,91.3"/>
<path class="st3" d="M88.7,38.1L88.7,38.1c3.1,0,5.5-2.5,5.5-5.5c0-3.1-2.5-5.5-5.6-5.5h-7.9V38L88.7,38.1z M80.8,53h9.6
	c3.1,0,5.6-2.5,5.6-5.5c0-3.1-2.5-5.5-5.6-5.5l-9.6,0V53z M90.4,57H76.9V23.1h11.8c5.2,0,9.5,4.2,9.5,9.5c0,2.7-1.1,5.1-3,6.9
	c2.8,1.6,4.6,4.7,4.6,8.1C99.9,52.7,95.7,57,90.4,57"/>
<path class="st3" d="M61.9,38.1L61.9,38.1c3.1,0,5.6-2.5,5.6-5.6c0-3.1-2.5-5.6-5.6-5.6h-7.9v11.1L61.9,38.1z M53.9,53.1h9.6
	c3.1,0,5.6-2.5,5.6-5.6S66.6,42,63.5,42l-9.6,0V53.1z M63.5,57.1H50V23h11.9c5.2,0,9.5,4.3,9.5,9.5c0,2.7-1.1,5.2-3,6.9
	c2.8,1.7,4.7,4.7,4.7,8.2C73,52.8,68.8,57.1,63.5,57.1"/>
<path class="st3" d="M21.3,96.3c0,1.2-1,2.2-2.2,2.2s-2.2-1-2.2-2.2c0-1.2,1-2.2,2.2-2.2S21.3,95,21.3,96.3"/>
<polygon class="st3" points="29.3,23 27,23 28.1,27 30.4,27 "/>
<polygon class="st3" points="31.3,38.1 32.4,42 34.6,42 33.5,38.1 "/>
<polygon class="st3" points="34.4,53.1 27,53.1 27,42 31.3,42 30.1,38.1 27,38.1 27,27 25.9,23 23.1,23 23.1,57.1 35.5,57.1 "/>
<path class="st3" d="M41.5,39.4c1.8-1.7,3-4.2,3-6.9c0-5.2-4.3-9.5-9.5-9.5h-1.2l1.1,3.9h0.1c3.1,0,5.6,2.5,5.6,5.6
	c0,3.1-2.5,5.6-5.5,5.6h0l-0.3,0l1.1,3.9l0.9,0c3.1,0,5.6,2.5,5.6,5.6c0,3.1-2.5,5.6-5.6,5.6h-1.1l1.1,3.9h0c5.2,0,9.5-4.3,9.5-9.5
	C46.1,44.1,44.2,41.1,41.5,39.4"/>
<polygon class="st3" points="30.4,23 31.5,27 33.7,27 32.6,23 "/>
</svg>
